<svg fill="none" viewBox="0 0 16 17" xmlns="http://www.w3.org/2000/svg">
  <path fill="#000" d="M6.63.463a.625.625 0 1 0-1.207.324l.259.966a.625.625 0 1 0 1.207-.324zm3.688 13.765a.625.625 0 1 0-1.207.323l.259.966a.625.625 0 1 0 1.207-.323zm1.925-11.364a.625.625 0 1 0 .883.884l.708-.707a.625.625 0 1 0-.884-.884zM2.166 12.94a.625.625 0 0 0 .884.884l.707-.707a.625.625 0 0 0-.884-.884z"/>
  <path fill="#000" fill-rule="evenodd" d="M2.99 8.116a5.01 5.01 0 1 1 10.02 0 5.01 5.01 0 0 1-10.02 0M8 4.376a3.74 3.74 0 1 0 0 7.479 3.74 3.74 0 0 0 0-7.479" clip-rule="evenodd"/>
  <path fill="#000" d="M.797 5.414A.625.625 0 0 0 .473 6.62l.966.259a.625.625 0 0 0 .323-1.208zm13.764 3.688a.625.625 0 0 0-.323 1.207l.965.259a.625.625 0 1 0 .324-1.207zm-.765-2.664a.625.625 0 0 1 .442-.766l.965-.258a.625.625 0 1 1 .324 1.207l-.966.259a.625.625 0 0 1-.765-.442M.031 10.126a.625.625 0 0 1 .442-.765l.966-.26a.625.625 0 0 1 .324 1.208l-.966.259a.625.625 0 0 1-.766-.442m12.212 2.107a.625.625 0 0 1 .884 0l.707.707a.625.625 0 1 1-.884.884l-.707-.707a.625.625 0 0 1 0-.884M2.166 2.157a.625.625 0 0 1 .884 0l.707.707a.625.625 0 1 1-.883.884l-.708-.707a.625.625 0 0 1 0-.884M10.135.022a.624.624 0 0 1 .442.765l-.259.966a.625.625 0 1 1-1.207-.323L9.37.464a.625.625 0 0 1 .765-.442M6.447 13.786c.334.09.531.432.442.766l-.259.966a.625.625 0 1 1-1.207-.324l.259-.966a.625.625 0 0 1 .765-.442"/>
</svg>
