<svg width="96" height="72" viewBox="0 0 96 72" fill="none" xmlns="http://www.w3.org/2000/svg">
<path d="M65.25 37.25C56.9657 37.25 50.25 40 50.25 53.25V55.5C50.25 57.1569 48.9069 58.5 47.25 58.5H36C30.201 58.5 25.5 53.799 25.5 48V24C25.5 18.201 30.201 13.5 36 13.5H52.5L70.5 31.5V34.25C70.5 35.9069 69.1569 37.25 67.5 37.25H65.25Z" fill="#CCDAFF"/>
<path d="M68.6368 38.1947C60.6348 36.0506 52.4097 40.7993 50.2656 48.8013L49.6832 50.9747C49.2544 52.5751 47.6094 53.5248 46.009 53.096L35.1423 50.1843C29.5409 48.6834 26.2168 42.9258 27.7177 37.3244L33.9294 14.1422C35.4303 8.54083 41.1878 5.21671 46.7892 6.7176L62.727 10.9881L75.4549 33.0335L74.4843 36.6557C74.0555 38.2561 72.4105 39.2059 70.8101 38.7771L68.6368 38.1947Z" fill="#8FABF9"/>
<rect x="37.6196" y="25.4839" width="15" height="4" rx="2" transform="rotate(15 37.6196 25.4839)" fill="#CCDAFF"/>
<rect x="35.29" y="34.1772" width="10" height="4" rx="2" transform="rotate(15 35.29 34.1772)" fill="#CCDAFF"/>
<path opacity="0.04" d="M58.8634 19.9302L62.7267 10.988L75.4546 33.0334L68.4983 33.523C61.2067 34.0361 55.9644 26.6403 58.8634 19.9302Z" fill="black"/>
<path d="M60.7854 18.2322L62.7266 10.9878L75.4545 33.0332L68.21 31.0921C62.6086 29.5912 59.2845 23.8336 60.7854 18.2322Z" fill="#ADC2FC"/>
<path d="M65.25 65.25C71.8774 65.25 77.25 59.8774 77.25 53.25C77.25 46.6226 71.8774 41.25 65.25 41.25C58.6226 41.25 53.25 46.6226 53.25 53.25C53.25 59.8774 58.6226 65.25 65.25 65.25Z" fill="#557FF3"/>
<path d="M65.1719 48.25C65.7155 48.25 66.1562 48.6908 66.1562 49.2344V57.1094C66.1562 57.653 65.7155 58.0938 65.1719 58.0938C64.6283 58.0937 64.1875 57.653 64.1875 57.1094V49.2344C64.1876 48.6908 64.6283 48.2501 65.1719 48.25Z" fill="white"/>
<path d="M60.75 54L65.25 58.5L69.75 54" stroke="white" stroke-width="2" stroke-linecap="round" stroke-linejoin="round"/>
<path d="M81.3761 44.25C81.5992 44.25 81.8222 44.34 81.9927 44.5155C82.3338 44.8664 82.3338 45.4378 81.9927 45.7887L80.2434 47.5884C79.9023 47.9394 79.3469 47.9394 79.0058 47.5884C78.6647 47.2375 78.6647 46.6661 79.0058 46.3151L80.7551 44.5155C80.9257 44.34 81.1487 44.25 81.3717 44.25H81.3761Z" fill="#CCCCCC"/>
<path d="M80.5014 52.3487H83.1254C83.6064 52.3487 84 52.7536 84 53.2485C84 53.7434 83.6064 54.1484 83.1254 54.1484H80.5014C80.0204 54.1484 79.6268 53.7434 79.6268 53.2485C79.6268 52.7536 80.0204 52.3487 80.5014 52.3487Z" fill="#CCCCCC"/>
<path d="M79.0147 58.9138C79.1853 58.7383 79.4083 58.6484 79.6314 58.6484H79.6357C79.8588 58.6484 80.0818 58.7383 80.2523 58.9138L82.0016 60.7135C82.3427 61.0645 82.3427 61.6359 82.0016 61.9868C81.6605 62.3377 81.1051 62.3377 80.764 61.9868L79.0147 60.1871C78.6736 59.8362 78.6736 59.2648 79.0147 58.9138Z" fill="#CCCCCC"/>
</svg>
