<svg fill="none" viewBox="0 0 64 64" xmlns="http://www.w3.org/2000/svg">
  <path fill="#000" d="M58.974 34.294c0 3.41-.698 6.788-2.053 9.94a25.9 25.9 0 0 1-5.847 8.426 27.1 27.1 0 0 1-8.75 5.63A27.9 27.9 0 0 1 32 60.267a27.9 27.9 0 0 1-10.322-1.977 27.1 27.1 0 0 1-8.75-5.63 25.9 25.9 0 0 1-5.848-8.427 25.1 25.1 0 0 1-2.053-9.94c0-6.888 2.842-13.494 7.9-18.365S24.848 8.32 32.001 8.32c3.542 0 7.05.672 10.322 1.977a27.1 27.1 0 0 1 8.75 5.63 25.9 25.9 0 0 1 5.848 8.427 25.1 25.1 0 0 1 2.053 9.94" opacity=".53"/>
  <path fill="url(#safari_svg__a)" stroke="#CDCDCD" stroke-linecap="round" stroke-linejoin="round" stroke-width=".352" d="M60 32a27.999 27.999 0 0 1-47.799 19.799A28 28 0 1 1 60 32"/>
  <path fill="url(#safari_svg__b)" d="M57.805 32a25.806 25.806 0 1 1-51.612 0 25.806 25.806 0 0 1 51.612 0"/>
  <path fill="#F4F2F3" d="M32 7.54a.375.375 0 0 0-.377.376v4.34a.375.375 0 1 0 .753 0v-4.34A.375.375 0 0 0 32 7.54m-2.462.155a.375.375 0 0 0-.412.414l.19 1.816a.375.375 0 1 0 .749-.079l-.19-1.815a.376.376 0 0 0-.337-.336m4.94.002a.375.375 0 0 0-.337.335l-.19 1.816a.375.375 0 1 0 .748.079l.19-1.816a.375.375 0 0 0-.41-.414m-7.468.365a.375.375 0 0 0-.366.454l.898 4.246a.375.375 0 1 0 .737-.156l-.9-4.246a.375.375 0 0 0-.37-.298m9.996.004a.375.375 0 0 0-.37.298l-.902 4.245a.376.376 0 1 0 .736.156l.902-4.245a.375.375 0 0 0-.366-.454m-12.41.676a.375.375 0 0 0-.39.491l.565 1.737a.375.375 0 1 0 .715-.233l-.564-1.736a.38.38 0 0 0-.325-.259m14.81.001a.38.38 0 0 0-.326.26l-.564 1.735a.375.375 0 1 0 .715.233l.565-1.736a.375.375 0 0 0-.39-.492m-17.195.873a.375.375 0 0 0-.337.53l1.762 3.965c.085.19.306.275.497.19a.375.375 0 0 0 .19-.496l-1.762-3.966a.38.38 0 0 0-.35-.223m19.608.013a.38.38 0 0 0-.351.223L39.7 13.815a.375.375 0 1 0 .687.307l1.768-3.963a.376.376 0 0 0-.336-.53m-21.823 1.159a.375.375 0 0 0-.352.564l.912 1.58a.375.375 0 1 0 .652-.376l-.913-1.58a.38.38 0 0 0-.3-.189m24.007 0a.37.37 0 0 0-.299.187l-.913 1.581a.375.375 0 1 0 .652.376l.913-1.58a.376.376 0 0 0-.353-.565m-26.158 1.34a.377.377 0 0 0-.292.598l2.548 3.513a.376.376 0 1 0 .61-.442l-2.549-3.513a.38.38 0 0 0-.317-.155m28.336.02a.38.38 0 0 0-.317.155l-2.553 3.51a.376.376 0 1 0 .608.442l2.553-3.51a.375.375 0 0 0-.29-.597M15.923 13.74a.375.375 0 0 0-.3.628l1.222 1.357a.376.376 0 1 0 .56-.504l-1.223-1.356a.38.38 0 0 0-.26-.125m32.156.003a.38.38 0 0 0-.26.124l-1.221 1.357a.375.375 0 1 0 .559.503l1.222-1.356a.375.375 0 0 0-.3-.628M14.08 15.51a.376.376 0 0 0-.232.656l3.225 2.903a.375.375 0 1 0 .504-.559l-3.226-2.903a.38.38 0 0 0-.271-.097m35.85.013a.38.38 0 0 0-.27.096l-3.228 2.901a.375.375 0 1 0 .503.56l3.227-2.901a.375.375 0 0 0-.231-.656M12.549 17.48a.375.375 0 0 0-.234.68l1.476 1.074a.375.375 0 1 0 .442-.609l-1.476-1.073a.4.4 0 0 0-.208-.072m38.914.014a.4.4 0 0 0-.209.072l-1.477 1.072a.376.376 0 1 0 .442.609l1.477-1.072a.375.375 0 0 0-.233-.681m-40.346 2.088a.375.375 0 0 0-.162.702l3.758 2.17a.375.375 0 1 0 .377-.652l-3.759-2.17a.4.4 0 0 0-.214-.05m41.767 0a.37.37 0 0 0-.214.05l-3.759 2.17a.375.375 0 1 0 .377.651l3.758-2.17a.375.375 0 0 0-.162-.701m-42.85 2.24a.375.375 0 0 0-.16.72l1.667.744a.375.375 0 1 0 .306-.688l-1.667-.743a.4.4 0 0 0-.146-.033m43.94.015a.4.4 0 0 0-.146.033l-1.668.742a.376.376 0 1 0 .306.688l1.668-.742a.375.375 0 0 0-.16-.72M9.068 24.164a.375.375 0 0 0-.084.733l4.126 1.344a.375.375 0 1 0 .233-.715l-4.126-1.344a.4.4 0 0 0-.149-.018m45.868.016a.4.4 0 0 0-.148.018l-4.128 1.341a.376.376 0 1 0 .233.716l4.127-1.342a.375.375 0 0 0-.084-.733M8.467 26.622a.375.375 0 0 0-.08.744l1.785.38a.376.376 0 1 0 .157-.736l-1.786-.38a.4.4 0 0 0-.076-.008m47.066.003-.076.008-1.786.38a.375.375 0 1 0 .157.736l1.785-.38a.376.376 0 0 0-.08-.744m-47.52 2.469a.375.375 0 0 0-.003.749l4.315.456a.375.375 0 1 0 .08-.748l-4.316-.457a.4.4 0 0 0-.077 0m47.978.032a.3.3 0 0 0-.077 0l-4.316.451a.375.375 0 1 0 .078.749l4.316-.451a.375.375 0 0 0-.001-.749M7.939 31.624a.375.375 0 1 0 0 .753h1.826a.375.375 0 1 0 0-.753zm46.295 0a.375.375 0 1 0 0 .753h1.826a.375.375 0 1 0 0-.753zM12.4 33.675a.3.3 0 0 0-.076 0l-4.316.451a.375.375 0 1 0 .078.749l4.316-.45a.375.375 0 0 0-.002-.75m39.198.027a.375.375 0 0 0-.002.749l4.316.456a.376.376 0 1 0 .078-.748l-4.315-.457a.4.4 0 0 0-.077 0m-41.35 2.542a.4.4 0 0 0-.075.008l-1.786.38a.375.375 0 1 0 .156.735l1.786-.379a.375.375 0 0 0-.08-.744m43.504.003a.375.375 0 0 0-.37.298.375.375 0 0 0 .29.447l1.785.38a.375.375 0 1 0 .156-.737l-1.785-.38a.4.4 0 0 0-.076-.008M13.255 37.73a.4.4 0 0 0-.149.018l-4.126 1.34a.375.375 0 1 0 .233.716l4.127-1.342a.375.375 0 0 0-.084-.733m37.485.014a.375.375 0 0 0-.084.733l4.126 1.344a.375.375 0 1 0 .233-.715L50.89 37.76a.4.4 0 0 0-.149-.017m-39.06 2.925a.4.4 0 0 0-.146.032l-1.668.743a.375.375 0 1 0 .306.687l1.668-.742a.375.375 0 0 0-.16-.72m40.633.014a.375.375 0 0 0-.16.72l1.667.744a.375.375 0 1 0 .306-.687l-1.667-.744a.4.4 0 0 0-.146-.033m-37.386.815a.37.37 0 0 0-.214.05l-3.759 2.17a.375.375 0 1 0 .376.652l3.759-2.17a.376.376 0 0 0-.162-.702m34.145 0a.376.376 0 0 0-.162.702l3.759 2.17a.376.376 0 1 0 .376-.652l-3.758-2.17a.4.4 0 0 0-.215-.05M13.99 44.682a.4.4 0 0 0-.209.072l-1.477 1.072a.375.375 0 1 0 .442.609l1.477-1.072a.375.375 0 0 0-.234-.681m36.01.012a.376.376 0 0 0-.234.68l1.477 1.074a.375.375 0 1 0 .443-.609l-1.477-1.073a.4.4 0 0 0-.208-.072m-32.664.13a.37.37 0 0 0-.272.096l-3.227 2.902a.375.375 0 1 0 .503.56l3.227-2.902a.375.375 0 0 0-.231-.656m29.318.01a.376.376 0 0 0-.232.656l3.226 2.904a.376.376 0 1 0 .503-.56l-3.225-2.903a.38.38 0 0 0-.272-.096m-26.256 2.757a.38.38 0 0 0-.318.155l-2.553 3.51a.375.375 0 1 0 .609.442l2.553-3.51a.375.375 0 0 0-.291-.597m23.182.016a.377.377 0 0 0-.291.597l2.548 3.513a.375.375 0 1 0 .609-.442l-2.548-3.513a.38.38 0 0 0-.318-.155m-26.478.542a.38.38 0 0 0-.26.124l-1.221 1.356a.376.376 0 1 0 .559.504l1.221-1.357a.376.376 0 0 0-.299-.627m29.793.001a.375.375 0 0 0-.3.628l1.222 1.357a.376.376 0 1 0 .56-.504l-1.222-1.356a.38.38 0 0 0-.26-.125m-22.932 1.505a.37.37 0 0 0-.35.223l-1.77 3.964a.376.376 0 1 0 .688.306l1.768-3.963a.375.375 0 0 0-.336-.53m16.05.011a.376.376 0 0 0-.338.53l1.763 3.965a.376.376 0 1 0 .688-.306l-1.763-3.965a.38.38 0 0 0-.35-.224m-19.157 1.215a.37.37 0 0 0-.3.187l-.912 1.581a.375.375 0 1 0 .651.376l.913-1.58a.376.376 0 0 0-.352-.564m22.287 0a.375.375 0 0 0-.352.564l.913 1.58a.375.375 0 1 0 .652-.376l-.913-1.58a.38.38 0 0 0-.3-.188m-15.244.056a.375.375 0 0 0-.37.299l-.902 4.245a.375.375 0 1 0 .736.156l.902-4.245a.375.375 0 0 0-.366-.455m8.188.003a.375.375 0 0 0-.366.454l.898 4.246a.375.375 0 1 0 .737-.156l-.9-4.246a.376.376 0 0 0-.37-.298m-4.088.428a.375.375 0 0 0-.376.377v4.34a.375.375 0 1 0 .753 0v-4.34a.375.375 0 0 0-.376-.377m-6.906 1.403a.38.38 0 0 0-.325.258l-.565 1.737a.375.375 0 1 0 .716.232l.564-1.736a.376.376 0 0 0-.39-.491m13.81 0a.376.376 0 0 0-.39.492L39.077 55a.375.375 0 1 0 .716-.233l-.565-1.736a.38.38 0 0 0-.325-.259m-9.265.967a.376.376 0 0 0-.337.336l-.191 1.815a.376.376 0 1 0 .748.078l.191-1.815a.376.376 0 0 0-.411-.414m4.708.002a.376.376 0 0 0-.412.414l.19 1.815a.375.375 0 0 0 .413.335.375.375 0 0 0 .336-.413l-.19-1.815a.375.375 0 0 0-.337-.336"/>
  <g filter="url(#safari_svg__c)" opacity=".409">
    <path fill="#000" d="M49.634 16.95 29.049 28.91 16.034 49.4l19.04-14.103z"/>
  </g>
  <path fill="#FF5150" d="m34.95 35.09-5.9-6.18 20.93-14.08z"/>
  <path fill="#F1F1F1" d="m34.95 35.09-5.9-6.18-15.031 20.26z"/>
  <path fill="#000" d="m14.019 49.17 20.93-14.08 15.03-20.26z" opacity=".243"/>
  <defs>
    <radialGradient id="safari_svg__b" cx="0" cy="0" r="1" gradientTransform="translate(32.116 28.237)scale(27.9999)" gradientUnits="userSpaceOnUse">
      <stop stop-color="#06C2E7"/>
      <stop offset=".25" stop-color="#0DB8EC"/>
      <stop offset=".5" stop-color="#12AEF1"/>
      <stop offset=".75" stop-color="#1F86F9"/>
      <stop offset="1" stop-color="#107DDD"/>
    </radialGradient>
    <linearGradient id="safari_svg__a" x1="31.999" x2="31.999" y1="59.999" y2="4" gradientUnits="userSpaceOnUse">
      <stop stop-color="#BDBDBD"/>
      <stop offset="1" stop-color="#fff"/>
    </linearGradient>
    <filter id="safari_svg__c" width="38.689" height="37.539" x="13.489" y="14.406" color-interpolation-filters="sRGB" filterUnits="userSpaceOnUse">
      <feFlood flood-opacity="0" result="BackgroundImageFix"/>
      <feBlend in="SourceGraphic" in2="BackgroundImageFix" result="shape"/>
      <feGaussianBlur result="effect1_foregroundBlur_4730_968" stdDeviation="1.272"/>
    </filter>
  </defs>
</svg>
