<svg fill="none" viewBox="0 0 128 128" xmlns="http://www.w3.org/2000/svg">
  <path fill="#fff" d="M78.16 51.16a.983.983 0 1 0 0-1.966.983.983 0 0 0 0 1.966Zm-29.201 2.541c.643 0 1.151-.508 1.151-1.152 0-.643-.508-1.151-1.151-1.151-.644 0-1.152.508-1.152 1.151 0 .644.508 1.152 1.151 1.152Z"/>
  <path fill="#fff" fill-rule="evenodd" d="M128 64c0 35.346-28.654 64-64 64-35.346 0-64-28.654-64-64C0 28.654 28.654 0 64 0c35.346 0 64 28.654 64 64Zm-82.774 55.422c-1.471-5.133-4.682-16.687-9.276-35.096-6.877-27.542-11.993-50.002 13.822-57.015.27-.068.372-.372.169-.542-2.981-2.71-8.029-3.184-12.975-2.202a.342.342 0 0 1-.407-.339c0-.067 0-.135.068-.203 1.186-1.66 3.32-2.947 4.777-3.726-1.016-.915-2.372-1.525-3.523-1.931-.34-.136-.34-.712-.034-.847.034-.034.067-.068.135-.068 10.163-1.355 20.835 1.694 26.086 8.401a.694.694 0 0 0 .203.136c17.243 3.693 20.394 28.118 19.344 34.86a55.595 55.595 0 0 0 13.618-3.354c4.337-1.66 5.861-1.288 6.403-.305.576 1.118-.101 2.981-1.626 4.709-2.88 3.286-8.097 5.86-17.277 6.606-3.174.257-5.979.135-8.399.028-4.58-.2-7.782-.34-9.488 2.275-1.118 1.728-.237 5.793 8.638 7.08 6.336.913 12.077.276 16.262-.19 3.736-.415 6.233-.693 6.809.394 1.22 2.337-5.793 7.013-17.82 7.114-.914 0-1.83-.034-2.71-.068-7.453-.372-12.941-2.405-16.363-4.268a.554.554 0 0 1-.203-.102c-.61-.339-1.795.271-1.084 1.559.407.779 2.575 2.778 5.827 4.505-.339 2.71.508 6.877 1.965 11.62.169-.028.338-.062.512-.097.245-.05.498-.1.775-.14 2.948-.474 4.506.068 5.387 1.016 4.166-3.116 11.111-7.52 11.789-6.707 3.388 4.031 3.828 13.55 3.083 17.379-.034.067-.102.135-.237.203-1.593.677-10.367-1.719-10.367-2.973-.339-6.242-1.499-6.818-2.854-7.123h-.906c.034.034.067.102.101.17l.305.711c.542 1.491 1.39 6.166.746 7.318-.644 1.152-4.845 1.727-7.453 1.761-2.575.034-3.15-.914-3.693-2.371-.407-1.186-.61-3.93-.61-5.522a4.91 4.91 0 0 1 .068-1.253c-.78.338-1.922 1.117-2.295 1.626-.102 1.524-.102 3.963.711 6.673.407 1.288-8.816 6.776-10.104 5.76-1.32-1.051-3.692-11.349-2.676-15.516-1.084.102-1.965.44-2.44 1.118-2.133 2.947.543 17.04 3.389 18.869 1.49.983 8.943-3.218 12.636-6.369.61.847 1.778.915 3.218.915 1.897-.068 4.54-.339 6.403-.915 1.027 2.407 2.47 5.606 3.57 8.013C103.162 115.005 122.5 91.761 122.5 64c0-32.309-26.191-58.5-58.5-58.5S5.5 31.691 5.5 64c0 25.742 16.626 47.6 39.726 55.422ZM78.3 40.6l.13.059c.238.101.509-.17.34-.373-.78-1.05-1.932-2.033-4.37-2.033-2.44 0-3.93.847-4.608 1.931-.136.272.27.543.542.407.813-.44 2.067-.949 4.065-.915 1.905.033 3.01.526 3.9.924Zm-1.834 14.592c2.1 0 3.794-1.694 3.794-3.76 0-2.1-1.694-3.76-3.794-3.76s-3.794 1.693-3.794 3.76c0 2.066 1.693 3.76 3.794 3.76Zm-25.07-1.152a4.395 4.395 0 0 0-4.403-4.404c-2.44 0-4.438 1.965-4.404 4.404a4.395 4.395 0 0 0 4.404 4.404 4.395 4.395 0 0 0 4.404-4.404Zm-12.602-9.689c.475-.711 1.22-1.795 3.591-2.778 2.372-.982 4.235-.846 5.522-.542.271.068.475-.237.237-.406-1.016-.847-3.286-1.863-6.267-.745-2.642.982-3.896 3.048-3.896 4.404 0 .305.644.338.813.067Z" clip-rule="evenodd"/>
</svg>
