<svg width="14" height="14" viewBox="0 0 14 14" fill="none" xmlns="http://www.w3.org/2000/svg">
<path d="M12.3333 5.9375C12.3333 7.93391 10.9495 9.7323 8.83903 10.498L8.80029 10.5122L8.76286 10.5295C8.08412 10.8412 6.81842 11.1871 5.368 11.5104C4.39168 11.7281 3.37533 11.9261 2.47835 12.0902L2.80387 11.7147C3.43809 10.9834 3.25448 9.95312 2.62826 9.39827C1.60413 8.49094 1 7.2651 1 5.9375C1.00003 3.31636 3.42504 1 6.66667 1V9.53674e-07C2.98479 9.53674e-07 3.54935e-05 2.65834 0 5.9375C0 7.53127 0.705169 8.97828 1.8527 10.0448L1.96517 10.1466C2.22284 10.3749 2.27798 10.7657 2.0695 11.034L2.0485 11.0596L0.970215 12.3027C0.602201 12.7271 0.95847 13.3722 1.51204 13.2772C3.72558 12.8969 7.60501 12.1617 9.18017 11.4381C11.6161 10.5543 13.3333 8.42466 13.3333 5.9375C13.3333 2.65834 10.3485 9.53674e-07 6.66667 9.53674e-07V1C9.85767 1 12.2573 3.24459 12.3315 5.81494L12.3333 5.9375Z" fill="black" fill-opacity="0.84"/>
</svg>
