<svg fill="none" viewBox="0 0 16 16" xmlns="http://www.w3.org/2000/svg">
  <path fill="#000" d="M7.999 1c1.42 0 2.778.58 3.776 1.606a5.53 5.53 0 0 1 1.556 3.857c0 2.194.468 3.928.824 4.665l.07.134a1.18 1.18 0 0 1 0 1.148 1.14 1.14 0 0 1-.994.59h-2.765a2.34 2.34 0 0 1-.714 1.32A2.57 2.57 0 0 1 8 15c-.65 0-1.28-.24-1.752-.68A2.34 2.34 0 0 1 5.534 13H2.766a1.14 1.14 0 0 1-.578-.162 1.16 1.16 0 0 1-.563-1.002l.01-.15a1.2 1.2 0 0 1 .14-.423l.07-.135c.356-.738.823-2.472.823-4.665 0-1.443.558-2.83 1.556-3.857A5.27 5.27 0 0 1 7.999 1M6.823 13c.059.148.15.287.278.405.231.216.554.345.899.345s.668-.129.9-.345c.126-.118.218-.257.277-.405zM8 2.25c-1.077 0-2.113.44-2.88 1.228a4.28 4.28 0 0 0-1.201 2.985c0 2.362-.506 4.34-.987 5.287h10.14c-.483-.947-.99-2.924-.99-5.287a4.28 4.28 0 0 0-1.201-2.985A4.02 4.02 0 0 0 7.999 2.25"/>
</svg>
