<svg xmlns="http://www.w3.org/2000/svg" width="24" height="24" fill="none" viewBox="0 0 24 24">
  <path fill="#000" fill-rule="evenodd" d="M17.517 13a4.5 4.5 0 1 1 0 9 4.5 4.5 0 0 1 0-9Zm-2.25 3.75a.5.5 0 0 0-.5.5v.5a.5.5 0 0 0 .5.5h4.5a.5.5 0 0 0 .5-.5v-.5a.5.5 0 0 0-.5-.5h-4.5Z" clip-rule="evenodd"/>
  <path fill="#000" fill-rule="evenodd" d="M9.348 3.097a3.72 3.72 0 0 1 5.206.025l1.185 1.173c.331.328.816.45 1.264.319l.558-.164a3.406 3.406 0 0 1 4.366 3.152l.084 2.474a11.363 11.363 0 0 1-.33 3.123 6.023 6.023 0 0 0-1.324-.977 9.879 9.879 0 0 0 .154-2.097l-.083-2.472a1.907 1.907 0 0 0-2.443-1.765l-.558.165a2.783 2.783 0 0 1-2.743-.691L13.5 4.189a2.214 2.214 0 0 0-.728-.48V13.81a5.972 5.972 0 0 0-1.27 3.69c0 1.661.675 3.165 1.765 4.251-.94.325-1.975.28-2.887-.14l-1.78-.82a11.377 11.377 0 0 1-6.611-10.715l.083-2.44a3.407 3.407 0 0 1 4.396-3.144l.376.114c.446.135.932.018 1.266-.307l1.24-1.202Zm1.881.568a2.21 2.21 0 0 0-.836.508L9.154 5.376a2.783 2.783 0 0 1-2.747.664l-.377-.114a1.906 1.906 0 0 0-2.46 1.759l-.082 2.44a9.877 9.877 0 0 0 5.738 9.304l1.78.82c.073.033.148.062.223.087V3.666Z" clip-rule="evenodd"/>
</svg>
