<svg fill="none" viewBox="0 0 64 64" xmlns="http://www.w3.org/2000/svg">
  <g fill="#FF1B2D" clip-path="url(#opera_svg__a)">
    <path d="M58.895 32.034c0 8.002-3.486 15.198-8.983 20.174-6.904 3.363-13.34 1.009-15.484-.47 6.77-1.48 11.931-9.752 11.931-19.704S41.198 13.81 34.428 12.33c2.145-1.48 8.58-3.833 15.484-.47 5.497 4.976 8.983 12.171 8.983 20.174"/>
    <path d="M23.099 16.768c-2.95 3.497-4.893 8.743-5.027 14.593v1.278c.134 5.85 2.078 11.096 5.027 14.593 3.888 5.043 9.586 8.204 16.02 8.204 3.956 0 7.643-1.21 10.793-3.295C45.152 56.445 38.852 59 31.947 59h-1.273C16.396 58.395 5 46.56 5 32.034 5 17.104 17.066 5 31.947 5h.134c6.838 0 13.072 2.623 17.831 6.86-3.15-2.085-6.837-3.296-10.792-3.296-6.435 0-12.2 3.228-16.021 8.204"/>
  </g>
  <defs>
    <clipPath id="opera_svg__a">
      <path fill="#fff" d="M5 5h54v54H5z"/>
    </clipPath>
  </defs>
</svg>
