<svg width="48" height="48" viewBox="0 0 48 48" fill="none" xmlns="http://www.w3.org/2000/svg">
<path d="M14.5 34.5001H26.9531C27.2668 32.7507 27.7667 32.6831 28.5239 31.3663C29.6766 29.3618 31.3769 28.0266 33.603 27.4815L34.3247 23.0713C34.6421 21.1319 36.3386 19.7603 38.25 19.7984C38.3052 19.7995 38.3605 19.8013 38.4155 19.8047C39.1668 19.8516 39.9999 19.3436 40 18.5909V13.0001C40 11.3432 38.6569 10.0001 37 10.0001L14.5 10.0001C12.8431 10.0001 11.5 11.3432 11.5 13.0001L11.5 33.0001C11.5 34.6568 12.8432 34.5001 14.5 34.5001Z" fill="#CCCCCC"/>
<path d="M27 34.25C27 34 27.8395 32.5564 28.5239 31.3662C29.6766 29.3618 31.3768 28.0266 33.603 27.4814L34.3247 23.0713C34.5998 21.3904 35.911 20.1372 37.5 19.8574V13.5C37.5 11.8431 36.1569 10.5 34.5 10.5L11.5 10.5C9.84315 10.5 8.5 11.8431 8.5 13.5L8.5 32.5C8.5 34.1569 9.84315 35.5 11.5 35.5L27 34.25Z" fill="#7295F6"/>
<path d="M34.3384 23C34.6699 21.1828 36.2158 19.8804 38 19.8013V13C38 11.3431 36.6569 10 35 10L11 10C9.34315 10 8 11.3431 8 13L8 23L34.3384 23Z" fill="#8FABF9"/>
<path d="M27.2969 34.4434C27.5982 33.3126 27.999 32.2791 28.5239 31.3662C29.6766 29.3618 31.3768 28.0266 33.603 27.4814L34.3247 23.0713C34.4012 22.6036 34.5582 22.1691 34.7788 21.7793L31.2178 18.2178C30.2611 17.2613 28.7169 17.2391 27.7334 18.168L10.5 34.4434H27.2969Z" fill="#B3F1AA"/>
<path d="M27.2812 34.5C27.5843 33.347 27.9902 32.2944 28.5239 31.3662C28.8743 30.7569 29.2761 30.2098 29.7271 29.7275L21.7676 21.7676C20.7913 20.7915 19.2087 20.7915 18.2324 21.7676L9.5 30.5V34.5H27.2812Z" fill="#7BD66D"/>
<path d="M17 23H15V25H17V23ZM15 25H13V27H15V25ZM13 27H11V29H13V27ZM11 31V29H9V31H11Z" fill="#7BD66D"/>
<path d="M19 23H17V25H19V23ZM17 25H15V27H17V25ZM15 27H13V29H15V27ZM13 29H11V31H13V29ZM11 33V31H9V33H11Z" fill="#96E38A"/>
<path d="M27 23H25V25H27V23ZM29 25H27V27H29V25ZM30.5049 29C30.6648 28.87 30.8301 28.7473 31 28.6309V27H29V29H30.5049Z" fill="#D3FFCC"/>
<path d="M25 23H23V25H25V23ZM27 25H25V27H27V25ZM29 27H27V29H29V27Z" fill="#B3F1AA"/>
<path opacity="0.2" d="M27.2812 34.5C27.5843 33.347 27.9902 32.2944 28.5239 31.3662C29.6766 29.3618 31.3768 28.0266 33.603 27.4814L34.3247 23.0713C34.3286 23.0474 34.334 23.0238 34.3384 23L9.5 23L9.5 34.5H27.2812Z" fill="#557FF3"/>
<path opacity="0.6" d="M34.3384 23C34.5715 21.7222 35.405 20.7 36.5 20.1777V17.5L9.5 17.5V23L34.3384 23Z" fill="url(#paint0_linear_2814_377)"/>
<path opacity="0.2" d="M28.7456 31C29.8904 29.1987 31.5153 27.9927 33.603 27.4814L33.6816 27L9.5 27V31L28.7456 31Z" fill="#14307E"/>
<path opacity="0.4" d="M26.3637 35C26.8289 35 27.2293 34.6782 27.355 34.2303C27.6491 33.1825 28.0321 32.2215 28.5239 31.3662C28.5956 31.2416 28.6697 31.1194 28.7456 31L9.5 31V35H26.3637Z" fill="#14307E"/>
<path d="M25.6982 36C26.4245 36 27.039 35.4776 27.212 34.7723C27.2764 34.5098 27.3459 34.2523 27.4209 34H11C10.4477 34 10 33.5523 10 33L10 13C10 12.4477 10.4477 12 11 12L35 12C35.5523 12 36 12.4477 36 13V20.4629C36.5829 20.0709 37.2714 19.8336 38 19.8013V13C38 11.3949 36.7394 10.0842 35.1543 10.0039L35 10L11 10C9.34315 10 8 11.3431 8 13L8 33L8.00391 33.1543C8.08421 34.7394 9.3949 36 11 36H25.6982Z" fill="#EEEEEE"/>
<path d="M19.5 17C19.5 18.6569 18.1569 20 16.5 20C14.8431 20 13.5 18.6569 13.5 17C13.5 15.3431 14.8431 14 16.5 14C18.1569 14 19.5 15.3431 19.5 17Z" fill="#FFD65C"/>
<path d="M36.2984 23.3946L34.8876 32.0162C34.7749 32.7045 35.2346 33.3561 35.9208 33.4809C36.555 33.5962 37.1758 33.2215 37.3693 32.6067L39.9927 24.2736C40.3421 23.1639 39.6231 22.0031 38.4739 21.8217C37.4395 21.6583 36.4675 22.3611 36.2984 23.3946Z" fill="#557FF3"/>
<path d="M42.6171 42H30.2062C29.264 42 28.4955 41.2337 28.5304 40.292C28.7927 33.2312 30.7941 29.204 36.0389 29.204C39.59 29.204 41.2961 32.6163 41.2961 35.1755C41.2961 37.0141 42.2991 38.9588 43.3541 40.4099C43.8036 41.0282 43.3815 42 42.6171 42Z" fill="#FFDE7A"/>
<path fill-rule="evenodd" clip-rule="evenodd" d="M42.6171 42.0001H30.2062C29.264 42.0001 28.4955 41.2338 28.5304 40.2922C28.7927 33.2314 30.7941 29.2041 36.0389 29.2041C39.59 29.2041 41.2961 32.6164 41.2961 35.1756C41.2961 37.0142 42.2991 38.9589 43.3541 40.41C43.8036 41.0283 43.3815 42.0001 42.6171 42.0001ZM34.1082 40.0001H36.57C36.5662 39.305 36.6371 38.226 37.0305 37.3081C37.1616 38.226 37.857 39.305 38.3733 40.0001H40.7193C40.0299 38.766 39.4453 37.2997 39.3207 35.7706L31.5347 34.322C30.999 35.685 30.6597 37.553 30.5445 40.0001H32.3048C32.3011 39.305 32.372 38.226 32.7653 37.3081C32.8965 38.226 33.5919 39.305 34.1082 40.0001ZM32.6197 32.4896C33.3803 31.6603 34.4321 31.2041 36.0389 31.2041C37.0848 31.2041 37.8385 31.6746 38.3931 32.422C38.6731 32.7993 38.8896 33.2356 39.0404 33.6841L32.6197 32.4896Z" fill="#F9BE1A"/>
<path d="M46.2507 29.5C46.3994 29.5 46.5481 29.56 46.6618 29.677C46.8892 29.9109 46.8892 30.2919 46.6618 30.5258L45.4956 31.7256C45.2682 31.9596 44.898 31.9596 44.6706 31.7256C44.4431 31.4917 44.4431 31.1107 44.6706 30.8768L45.8367 29.677C45.9505 29.56 46.0991 29.5 46.2478 29.5H46.2507Z" fill="#CCCCCC"/>
<path d="M45.6676 34.8991H47.4169C47.7376 34.8991 48 35.1691 48 35.499C48 35.829 47.7376 36.0989 47.4169 36.0989H45.6676C45.3469 36.0989 45.0845 35.829 45.0845 35.499C45.0845 35.1691 45.3469 34.8991 45.6676 34.8991Z" fill="#CCCCCC"/>
<path d="M44.6765 39.2759C44.7902 39.1589 44.9389 39.0989 45.0876 39.0989H45.0905C45.2392 39.0989 45.3879 39.1589 45.5016 39.2759L46.6678 40.4757C46.8952 40.7096 46.8952 41.0906 46.6678 41.3245C46.4403 41.5585 46.0701 41.5585 45.8427 41.3245L44.6765 40.1247C44.4491 39.8908 44.4491 39.5098 44.6765 39.2759Z" fill="#CCCCCC"/>
<defs>
<linearGradient id="paint0_linear_2814_377" x1="23" y1="23" x2="23" y2="17.5" gradientUnits="userSpaceOnUse">
<stop stop-color="white" stop-opacity="0.4"/>
<stop offset="0.648438" stop-color="white" stop-opacity="0"/>
</linearGradient>
</defs>
</svg>
