<svg width="55" height="48" viewBox="0 0 55 48" fill="none" xmlns="http://www.w3.org/2000/svg">
<path d="M37.1831 23.662C29.7156 23.662 23.662 29.7156 23.662 37.1831V41.1427C23.662 42.2936 22.7847 43.2676 21.6338 43.2676C9.68578 43.2676 0 33.5818 0 21.6338C0 9.68578 9.68578 0 21.6338 0C33.5818 0 43.2676 9.68578 43.2676 21.6338C43.2676 22.7847 42.2936 23.662 41.1427 23.662H37.1831Z" fill="#557FF3"/>
<path fill-rule="evenodd" clip-rule="evenodd" d="M35.5792 23.7561C33.4828 20.3888 30.7989 17.4252 27.6708 15.0086C27.7019 14.8557 27.7182 14.6974 27.7182 14.5353C27.7182 13.5902 27.1641 12.7745 26.3631 12.3954C26.3562 11.8766 26.3373 11.3606 26.3068 10.8478C26.7747 10.8273 27.2452 10.817 27.7182 10.817C32.8332 10.817 37.666 12.0256 41.9464 14.1729C41.7123 13.5355 41.449 12.9123 41.1581 12.3047C37.0506 10.4793 32.5029 9.46488 27.7182 9.46488C27.2091 9.46488 26.7027 9.47636 26.1992 9.49908C25.8686 6.20304 25.0548 3.04945 23.8297 0.110178C23.3297 0.0597697 22.8247 0.0263878 22.3152 0.0106201C23.6325 2.9904 24.5051 6.2107 24.849 9.5874C23.0817 9.73903 21.354 10.0294 19.6768 10.4476C17.2661 9.48848 14.7162 8.80425 12.0657 8.43365C11.9185 7.95258 11.6222 7.53668 11.2306 7.23988C12.4958 4.8957 14.047 2.7286 15.8374 0.785332C14.9704 1.02586 14.1253 1.31902 13.3057 1.66116C12.0377 3.2498 10.9129 4.95764 9.9506 6.7652C9.90168 6.76219 9.85236 6.76065 9.80268 6.76065C8.85847 6.76065 8.04343 7.3137 7.66383 8.11353C7.5881 8.11302 7.51232 8.11276 7.43648 8.11276C6.49905 8.11276 5.57071 8.1517 4.653 8.22805C4.27868 8.70154 3.92374 9.19105 3.58938 9.6954C4.85048 9.5432 6.13434 9.46488 7.43648 9.46488L7.46044 9.46489C7.53503 9.98628 7.77958 10.4528 8.13618 10.8066C7.38317 12.8401 6.82405 14.9675 6.48125 17.1667C4.06749 19.185 1.94548 21.5406 0.187711 24.1611L0.140625 24.1153C0.224709 24.8517 0.345765 25.5768 0.501879 26.2887C2.52885 28.0628 4.77404 29.5938 7.19191 30.836C7.99548 33.8617 9.21652 36.7172 10.7896 39.3373C10.5209 39.5157 10.2492 39.6901 9.97482 39.8605C10.3998 40.1329 10.8348 40.3908 11.2794 40.6336C11.3563 40.5835 11.4329 40.5332 11.5094 40.4826C11.6023 40.6239 11.6962 40.7644 11.7912 40.9042C12.5843 41.3101 13.4056 41.6684 14.2516 41.9755C13.6764 41.2464 13.1324 40.4915 12.6217 39.7128C14.3465 38.4662 15.9466 37.0577 17.3996 35.5094C17.7496 35.7139 18.1568 35.8311 18.5914 35.8311C19.5495 35.8311 20.3746 35.2616 20.7467 34.4427C21.2647 34.4668 21.7858 34.479 22.3097 34.479C22.8565 34.479 23.4001 34.4657 23.9403 34.4395C24.0366 33.9723 24.1571 33.5138 24.3002 33.0655C23.6419 33.1062 22.9782 33.1268 22.3097 33.1268C21.8472 33.1268 21.387 33.117 20.9292 33.0974C20.8571 32.6349 20.651 32.2167 20.3519 31.8839C23.4313 27.5066 25.4776 22.35 26.1362 16.7685C26.4713 16.6508 26.772 16.4597 27.0189 16.2146C29.8015 18.3951 32.2112 21.0296 34.1366 24.0066C34.6085 23.8979 35.0898 23.814 35.5792 23.7561ZM12.0716 9.80052C11.7815 10.7792 10.8754 11.493 9.80268 11.493C9.64485 11.493 9.49062 11.4776 9.34144 11.4481C8.81715 12.8895 8.39423 14.3797 8.0813 15.9098C10.902 13.8304 14.0643 12.1876 17.4685 11.081C15.7313 10.5034 13.9275 10.0718 12.0716 9.80052ZM1.19129 25.0938C2.62618 22.9228 4.32043 20.9384 6.22987 19.1845C6.13359 20.2134 6.08437 21.2559 6.08437 22.3099C6.08437 24.6292 6.32271 26.8928 6.77624 29.0776C4.76981 27.9511 2.8981 26.6131 1.19129 25.0938ZM7.74288 17.8796C11.1721 15.1043 15.1905 13.0282 19.5813 11.8684C20.8178 12.3803 22.0149 12.9679 23.167 13.6256C23.0502 13.9057 22.9858 14.213 22.9858 14.5353C22.9858 15.6401 23.7429 16.5681 24.7667 16.8285C24.1039 22.1273 22.1365 27.0206 19.196 31.1766C19.003 31.1258 18.8004 31.0987 18.5914 31.0987C17.5983 31.0987 16.7481 31.7105 16.3971 32.5777C13.564 32.0446 10.8635 31.1354 8.34965 29.9039C7.75293 27.4706 7.43648 24.9272 7.43648 22.3099C7.43648 20.8065 7.5409 19.3274 7.74288 17.8796ZM16.2709 33.9298C13.6685 33.4505 11.1726 32.667 8.82147 31.6176C9.57247 34.0726 10.6128 36.4013 11.9027 38.5638C13.5533 37.364 15.0839 36.0091 16.4732 34.5205C16.3811 34.3361 16.3123 34.1379 16.2709 33.9298ZM21.7804 11.3708C22.5501 11.7411 23.3032 12.1403 24.0384 12.5669C24.3237 12.3761 24.6528 12.2457 25.0074 12.194C24.9989 11.7724 24.9822 11.3527 24.9575 10.9353C23.8823 11.0278 22.8224 11.1739 21.7804 11.3708Z" fill="#ADC2FC"/>
<path d="M24.3401 32.9428C23.9 34.2765 23.6619 35.702 23.6619 37.1832V41.1426C23.6619 42.2935 22.7846 43.2675 21.6337 43.2675C16.1246 43.2675 11.0965 41.2083 7.2771 37.8176C7.77742 37.8452 8.28137 37.8592 8.78858 37.8592C14.5774 37.8592 19.9413 36.0403 24.3401 32.9428Z" fill="#7295F6" fill-opacity="0.6" style="mix-blend-mode:multiply"/>
<path d="M32.007 24.6881C34.4352 20.6325 35.8308 15.8877 35.8308 10.8169C35.8308 8.72624 35.5936 6.69097 35.1445 4.73657C40.0963 8.70109 43.2675 14.7971 43.2675 21.6337C43.2675 22.7847 42.2935 23.662 41.1425 23.662H37.183C35.3496 23.662 33.6013 24.0269 32.007 24.6881Z" fill="#7295F6" fill-opacity="0.6" style="mix-blend-mode:multiply"/>
<path d="M37.1831 48C43.1571 48 48 43.1571 48 37.1831C48 31.2091 43.1571 26.3662 37.1831 26.3662C31.2091 26.3662 26.3662 31.2091 26.3662 37.1831C26.3662 43.1571 31.2091 48 37.1831 48Z" fill="#21C000"/>
<path fill-rule="evenodd" clip-rule="evenodd" d="M40.9014 36.507V33.8357C40.9014 32.8447 40.5126 31.8919 39.8167 31.1875C39.1203 30.4827 38.1733 30.0845 37.1831 30.0845C36.193 30.0845 35.2459 30.4827 34.5495 31.1875C33.8536 31.8919 33.4648 32.8447 33.4648 33.8357V36.507H33.1268C32.38 36.507 31.7747 37.1124 31.7747 37.8591V41.9155C31.7747 42.6622 32.38 43.2676 33.1268 43.2676H41.2394C41.9862 43.2676 42.5916 42.6622 42.5916 41.9155V37.8591C42.5916 37.1124 41.9862 36.507 41.2394 36.507H40.9014ZM38.3739 32.613C38.056 32.2912 37.6274 32.1126 37.1831 32.1126C36.7388 32.1126 36.3103 32.2912 35.9923 32.613C35.674 32.9352 35.493 33.3748 35.493 33.8357V36.507H38.8732V33.8357C38.8732 33.3748 38.6922 32.9352 38.3739 32.613Z" fill="white"/>
<path d="M51.7193 29.0704C51.9203 29.0704 52.1213 29.1515 52.2751 29.3097C52.5826 29.6261 52.5826 30.1411 52.2751 30.4575L50.6983 32.0797C50.3908 32.3961 49.8901 32.3961 49.5827 32.0797C49.2752 31.7634 49.2752 31.2483 49.5827 30.932L51.1595 29.3097C51.3132 29.1515 51.5143 29.0704 51.7153 29.0704H51.7193Z" fill="#CCCCCC"/>
<path d="M50.9308 36.3706H53.296C53.7297 36.3706 54.0844 36.7356 54.0844 37.1818C54.0844 37.6279 53.7297 37.9929 53.296 37.9929H50.9308C50.4972 37.9929 50.1424 37.6279 50.1424 37.1818C50.1424 36.7356 50.4972 36.3706 50.9308 36.3706Z" fill="#CCCCCC"/>
<path d="M49.5907 42.2885C49.7444 42.1303 49.9455 42.0492 50.1465 42.0492H50.1504C50.3515 42.0492 50.5525 42.1303 50.7063 42.2885L52.2831 43.9108C52.5906 44.2271 52.5906 44.7422 52.2831 45.0585C51.9756 45.3749 51.475 45.3749 51.1675 45.0585L49.5907 43.4363C49.2832 43.1199 49.2832 42.6049 49.5907 42.2885Z" fill="#CCCCCC"/>
</svg>
