<svg xmlns="http://www.w3.org/2000/svg" width="50" height="50" fill="none"><path fill="url(#a)" d="M27.01 44.46h.038a7.557 7.557 0 0 0 3.275-.843l2.763-1.43.35-.185a22.05 22.05 0 0 0 11.556-19.97l-.154-5.94c-.1-3.812-3.32-6.627-6.91-6.481h-2.656l-.65.422a2.398 2.398 0 0 1-1.03-.554l-.123-.12-1.446-1.525a7.233 7.233 0 0 0-5.28-2.26l-.002-.003h-3.047l-1.23 1.405a7.32 7.32 0 0 0-.873.755l-2.075 2.102a2.401 2.401 0 0 1-1.87.709l-1.613-.109a6.655 6.655 0 0 0-7.103 6.466l-.135 5.17A22.05 22.05 0 0 0 20.65 42.197l2.705 1.41.194.097.756.756h2.385c.107.002.213.002.32 0Zm-4.953-4.964a19.003 19.003 0 0 1-10.215-17.349l.134-5.169a3.608 3.608 0 0 1 3.85-3.505l1.613.109a5.448 5.448 0 0 0 4.246-1.608l1.508-1.529H30.3l.959 1.011.136.139a5.448 5.448 0 0 0 5.447 1.309l.17-.053 3.874 1.02c.54.606.883 1.402.906 2.3l.154 5.94a19.003 19.003 0 0 1-9.96 17.21l-.3.16-.204.105h-9.253l-.172-.09Z"/><path fill="url(#b)" d="m16.991 11.591 7.313-4.265 7.312 4.265 4.875-.61 3.656 2.438.61 9.75-4.266 12.187-12.187 7.617-10.664-5.18L7.85 27.13V14.943l2.134-3.047 7.007-.305Z"/><path fill="url(#c)" d="M24.367 42.706c.278-.027.55-.116.794-.268l10.786-6.742c.352-.22.619-.553.756-.946l3.931-11.232c.08-.23.115-.475.1-.718l-.53-8.477a1.828 1.828 0 0 0-.81-1.406l-2.337-1.558a1.829 1.829 0 0 0-1.241-.293l-3.586.449a1.829 1.829 0 0 1-1.148-.235l-5.858-3.417a1.826 1.826 0 0 0-.992-.247c-.745 4.797-2.146 17.459.135 35.09Z"/><path fill="url(#d)" d="M20.612 43.607a7.56 7.56 0 0 0 6.968.01l2.763-1.431a22.05 22.05 0 0 0 11.914-19.76l-.007-.395-.154-5.94c-.115-4.42-4.428-7.5-8.646-6.177l-.263.083a2.4 2.4 0 0 1-2.338-.519l-.122-.12-1.447-1.524a7.26 7.26 0 0 0-10.295-.238l-.136.135-1.651 1.672a2.371 2.371 0 0 1-2.419.59c-4.216-1.366-8.558 1.72-8.655 6.15l-.101 4.701v2.97A22.05 22.05 0 0 0 17.85 42.17l2.76 1.438Zm5.568-2.696a4.514 4.514 0 0 1-4.16-.006l-2.761-1.439A19.003 19.003 0 0 1 9.04 22.202l.13-5.992c.052-2.39 2.394-4.056 4.669-3.318a5.418 5.418 0 0 0 5.526-1.348l1.651-1.673.16-.154a4.213 4.213 0 0 1 5.893.214l1.446 1.525.137.138a5.448 5.448 0 0 0 5.446 1.31l.263-.083c2.287-.718 4.625.953 4.688 3.349l.154 5.94.006.341A19.002 19.002 0 0 1 28.943 39.48l-2.763 1.43Z"/><path fill="url(#e)" d="M24.601 44.446a7.553 7.553 0 0 0 2.98-.83l2.762-1.43a22.05 22.05 0 0 0 11.914-19.759l-.007-.396-.154-5.94c-.115-4.42-4.428-7.5-8.646-6.177l-.263.083a2.4 2.4 0 0 1-2.338-.518l-.122-.12-1.447-1.525a7.227 7.227 0 0 0-4.691-2.238c-.064.31-.268 1.341-.504 3.025a4.197 4.197 0 0 1 2.985 1.31l1.446 1.525.137.139a5.448 5.448 0 0 0 5.446 1.309l.263-.083c2.287-.717 4.626.953 4.688 3.35l.154 5.94.006.34a19.003 19.003 0 0 1-10.267 17.03l-2.763 1.43a4.508 4.508 0 0 1-1.975.502c.12.995.252 2.006.396 3.033Z"/><path fill="url(#f)" d="M23.39 33.528a2.133 2.133 0 0 0 2.133-2.132v-4.57h4.57a2.133 2.133 0 0 0 0-4.266h-4.57v-4.57a2.133 2.133 0 1 0-4.266 0v4.57h-4.57a2.133 2.133 0 0 0 0 4.265h4.57v4.57c0 1.179.955 2.133 2.133 2.133Z"/><path fill="url(#g)" d="M23.457 33.527a2.132 2.132 0 0 0 2.066-2.131v-4.57h4.57a2.133 2.133 0 0 0 0-4.266h-4.57v-4.57a2.133 2.133 0 0 0-2.133-2.133h-.024c-.292 4.588-.396 10.567.091 17.67Z"/><defs><linearGradient id="a" x1="26.894" x2="26.894" y1="44.462" y2="5.571" gradientUnits="userSpaceOnUse"><stop stop-color="#92540C"/><stop offset="1" stop-color="#C18010"/></linearGradient><linearGradient id="b" x1="24.304" x2="24.304" y1="42.974" y2="7.326" gradientUnits="userSpaceOnUse"><stop stop-color="#FFE8A3"/><stop offset="1" stop-color="#FFD65C"/></linearGradient><linearGradient id="c" x1="31.928" x2="31.928" y1="7.615" y2="42.706" gradientUnits="userSpaceOnUse"><stop stop-color="#FC3"/><stop offset="1" stop-color="#FFDE7A"/></linearGradient><linearGradient id="d" x1="24.14" x2="24.14" y1="44.462" y2="5.571" gradientUnits="userSpaceOnUse"><stop stop-color="#FC3"/><stop offset="1" stop-color="#F9BE1A"/></linearGradient><linearGradient id="e" x1="33.171" x2="33.171" y1="44.446" y2="5.596" gradientUnits="userSpaceOnUse"><stop stop-color="#F9BE1A"/><stop offset="1" stop-color="#E2A412"/></linearGradient><linearGradient id="f" x1="23.39" x2="23.39" y1="33.528" y2="15.857" gradientUnits="userSpaceOnUse"><stop stop-color="#FC3"/><stop offset="1" stop-color="#F9BE1A"/></linearGradient><linearGradient id="g" x1="27.672" x2="27.672" y1="33.527" y2="15.857" gradientUnits="userSpaceOnUse"><stop stop-color="#F9BE1A"/><stop offset="1" stop-color="#E2A412"/></linearGradient></defs></svg>