<svg fill="none" viewBox="0 0 32 32" xmlns="http://www.w3.org/2000/svg">
  <path fill="#ADC2FC" d="M9.25 0h10.161a6.25 6.25 0 0 1 4.42 1.83l3.338 3.34A6.25 6.25 0 0 1 29 9.588V25.75A6.25 6.25 0 0 1 22.75 32H9.25A6.25 6.25 0 0 1 3 25.75V6.25A6.25 6.25 0 0 1 9.25 0Z"/>
  <path fill="#1E42A4" d="M22.75 20a1.25 1.25 0 0 1 0 2.5H9.25a1.25 1.25 0 1 1 0-2.5h13.5Zm0-6a1.25 1.25 0 0 1 0 2.5H9.25a1.25 1.25 0 1 1 0-2.5h13.5Zm-7.872-5.994a1.25 1.25 0 0 1 0 2.488l-.128.006h-5.5a1.25 1.25 0 1 1 0-2.5h5.5l.128.006Z"/>
  <path fill="#8FABF9" fill-rule="evenodd" d="M29 11h-3.75A6.25 6.25 0 0 1 19 4.75V0h.411a6.25 6.25 0 0 1 4.42 1.83l3.338 3.34A6.25 6.25 0 0 1 29 9.588V11Z" clip-rule="evenodd"/>
</svg>
