<svg fill="none" viewBox="0 0 300 56" xmlns="http://www.w3.org/2000/svg">
  <path fill="#eee" d="M0 28C0 14.745 10.745 4 24 4h252c13.255 0 24 10.745 24 24s-10.745 24-24 24H24C10.745 52 0 41.255 0 28"/>
  <path fill="#ccc" d="M276 50v2H24v-2zm22-22c0-12.15-9.85-22-22-22H24C11.85 6 2 15.85 2 28s9.85 22 22 22v2l-.62-.008C10.413 51.664 0 41.048 0 28S10.412 4.336 23.38 4.008L24 4h252c13.255 0 24 10.745 24 24s-10.745 24-24 24v-2c12.15 0 22-9.85 22-22"/>
  <path fill="#888" fill-rule="evenodd" d="M22.625 19a7.625 7.625 0 1 0 4.835 13.521l4.26 4.26a.75.75 0 1 0 1.06-1.061l-4.259-4.26A7.625 7.625 0 0 0 22.625 19M16.5 26.625a6.125 6.125 0 1 1 12.25 0 6.125 6.125 0 0 1-12.25 0" clip-rule="evenodd"/>
  <path fill="#ddd" d="M42 28a9 9 0 0 1 9-9h72a9 9 0 0 1 9 9 9 9 0 0 1-9 9H51a9 9 0 0 1-9-9"/>
  <path fill="#888" d="M187.053 30.557a.82.82 0 0 1 .762-.557c.493 0 .859.459.699.925A9 9 0 0 1 180 37a9 9 0 0 1-9-9 9 9 0 0 1 16.5-4.977V20.75a.75.75 0 0 1 1.5 0v2.75a2.5 2.5 0 0 1-2.5 2.5h-2.75a.75.75 0 0 1 0-1.5h2.75q.067 0 .13-.008a7.5 7.5 0 1 0 .423 6.066m89.329-8.274c-.1-.398-.664-.398-.764 0l-.371 1.483a3.28 3.28 0 0 1-2.386 2.387l-1.484.37c-.397.1-.397.665 0 .764l1.484.371a3.28 3.28 0 0 1 2.386 2.387l.371 1.483c.1.398.664.398.764 0l.371-1.483a3.28 3.28 0 0 1 2.386-2.387l1.484-.37c.397-.1.397-.665 0-.765l-1.484-.37a3.28 3.28 0 0 1-2.386-2.387z"/>
  <path fill="#888" fill-rule="evenodd" d="M268.268 37.916c3.32-.57 9.137-1.673 11.501-2.758 3.655-1.325 6.231-4.52 6.231-8.252 0-4.918-4.477-8.906-10-8.906s-10 3.988-10 8.906c0 2.468 1.127 4.701 2.947 6.314.399.354.475.967.125 1.37l-1.617 1.864c-.552.637-.017 1.604.813 1.462m10.875-4.12.056-.027.058-.02c3.167-1.149 5.243-3.848 5.243-6.843 0-3.931-3.638-7.406-8.5-7.406s-8.5 3.474-8.5 7.406c0 1.992.906 3.83 2.442 5.192.939.832 1.215 2.377.264 3.474l-.489.564c1.345-.246 2.869-.544 4.333-.87 2.175-.485 4.074-1.003 5.093-1.47" clip-rule="evenodd"/>
  <path fill="#fff" d="M200 28c0-15.464 12.536-28 28-28s28 12.536 28 28-12.536 28-28 28-28-12.536-28-28"/>
  <path fill="#3969ef" fill-opacity=".2" d="M200 28c0-15.464 12.536-28 28-28s28 12.536 28 28-12.536 28-28 28-28-12.536-28-28"/>
  <path fill="#3969ef" d="M254 28c0-14.36-11.641-26-26-26s-26 11.64-26 26 11.641 26 26 26v2c-15.464 0-28-12.536-28-28s12.536-28 28-28 28 12.536 28 28-12.536 28-28 28v-2c14.359 0 26-11.64 26-26"/>
  <path fill="#3969ef" d="M229.843 20.154a2.2 2.2 0 0 0-.843-.525V31.25a.75.75 0 0 1-1.5 0V19.663a2.2 2.2 0 0 0-.784.526l-3.424 3.58a.75.75 0 1 1-1.084-1.038l3.424-3.58a3.687 3.687 0 0 1 5.272-.058l3.626 3.626a.75.75 0 0 1-1.06 1.061z"/>
  <path fill="#3969ef" d="M221 29a.75.75 0 0 0-1.5 0v3a5 5 0 0 0 5 5h7.5a5 5 0 0 0 5-5v-3a.75.75 0 0 0-1.5 0v3a3.5 3.5 0 0 1-3.5 3.5h-7.5A3.5 3.5 0 0 1 221 32z"/>
</svg>
