<svg fill="none" viewBox="0 0 64 64" xmlns="http://www.w3.org/2000/svg">
  <g fill-rule="evenodd" clip-path="url(#brave_svg__a)" clip-rule="evenodd">
    <path fill="url(#brave_svg__b)" d="m53.63 17.406 1.313-3.217s-1.67-1.787-3.699-3.813c-2.027-2.025-6.322-.834-6.322-.834L40.032 4H22.855l-4.89 5.542s-4.295-1.191-6.323.834a171 171 0 0 0-3.697 3.813l1.312 3.217-1.671 4.766s4.912 18.582 5.488 20.851c1.133 4.468 1.908 6.195 5.13 8.46 3.22 2.263 9.064 6.195 10.018 6.792.955.595 2.148 1.61 3.222 1.61s2.266-1.015 3.22-1.61 6.798-4.529 10.02-6.792c3.22-2.264 3.996-3.992 5.13-8.46.574-2.27 5.486-20.851 5.486-20.851z"/>
    <path fill="#fff" d="M37.527 14.07c.716 0 6.024-1.013 6.024-1.013s6.29 7.595 6.29 9.22c0 1.341-.54 1.866-1.178 2.486-.133.13-.271.262-.408.41l-4.717 5.002-.154.157c-.47.473-1.163 1.17-.675 2.326l.1.235c.537 1.253 1.2 2.8.357 4.367-.897 1.667-2.433 2.78-3.417 2.596s-3.296-1.39-4.145-1.941c-.85-.551-3.544-2.77-3.544-3.62 0-.708 1.937-1.886 2.879-2.459.187-.113.335-.203.42-.26a14 14 0 0 1 .46-.29c.858-.535 2.41-1.497 2.45-1.923.047-.527.029-.681-.664-1.981-.147-.277-.32-.573-.497-.879-.66-1.133-1.398-2.402-1.234-3.31.184-1.027 1.794-1.615 3.157-2.114q.256-.091.496-.183l1.42-.533c1.362-.509 2.874-1.075 3.124-1.19.345-.158.256-.31-.79-.41q-.254-.024-.507-.052c-1.295-.137-3.683-.39-4.843-.067l-.753.206c-1.304.352-2.902.784-3.056 1.034a2 2 0 0 1-.078.116c-.147.209-.243.345-.08 1.23.048.265.148.784.271 1.426.36 1.88.922 4.81.993 5.469l.031.267c.09.735.15 1.224-.704 1.419l-.223.05c-.965.221-2.378.546-2.888.546s-1.925-.324-2.89-.546l-.221-.05c-.854-.195-.794-.684-.704-1.42q.016-.128.03-.266c.072-.66.635-3.598.996-5.477.122-.639.221-1.155.27-1.418.161-.885.066-1.021-.081-1.23l-.08-.116c-.151-.25-1.75-.682-3.054-1.034-.268-.073-.525-.142-.752-.206-1.161-.324-3.548-.07-4.843.067-.198.021-.37.04-.508.053-1.046.099-1.135.251-.79.41.25.114 1.761.68 3.122 1.19.522.194 1.024.382 1.421.532l.497.184c1.363.499 2.973 1.086 3.157 2.112.164.91-.575 2.178-1.234 3.311-.178.306-.35.602-.498.879-.692 1.3-.71 1.454-.662 1.98.038.428 1.589 1.39 2.448 1.923.2.124.363.225.46.29.086.058.233.148.42.261.942.573 2.88 1.75 2.88 2.46 0 .848-2.694 3.068-3.544 3.619s-3.161 1.757-4.145 1.94-2.52-.928-3.416-2.594c-.843-1.568-.181-3.115.355-4.367l.1-.236c.49-1.157-.203-1.853-.675-2.326l-.153-.157-4.716-5.003q-.21-.217-.41-.41c-.637-.618-1.178-1.144-1.178-2.486 0-1.623 6.29-9.219 6.29-9.219s5.309 1.012 6.024 1.012c.572 0 1.674-.378 2.824-.774q.438-.151.875-.297c1.43-.477 2.385-.48 2.385-.48s.954.003 2.385.48q.437.145.875.297c1.15.396 2.253.774 2.823.774m-.91 26.867c1.121.578 1.917.987 2.218 1.175.39.244.152.703-.203.954-.354.25-5.121 3.937-5.583 4.344l-.188.168c-.446.401-1.014.913-1.418.913-.402 0-.971-.513-1.417-.913l-.187-.168c-.463-.407-5.23-4.094-5.584-4.345s-.592-.709-.203-.953c.301-.188 1.098-.598 2.222-1.177l1.067-.55c1.68-.868 3.776-1.607 4.103-1.607s2.421.738 4.103 1.607q.574.298 1.07.552"/>
    <path fill="url(#brave_svg__c)" d="M44.922 9.542 40.032 4H22.855l-4.89 5.542s-4.295-1.191-6.322.834c0 0 5.726-.516 7.694 2.681 0 0 5.307 1.012 6.023 1.012s2.266-.594 3.698-1.071 2.386-.48 2.386-.48.954.003 2.385.48c1.432.477 2.982 1.072 3.698 1.072s6.024-1.013 6.024-1.013c1.968-3.197 7.693-2.68 7.693-2.68-2.027-2.027-6.322-.835-6.322-.835"/>
  </g>
  <defs>
    <linearGradient id="brave_svg__b" x1="7.587" x2="55.3" y1="60.279" y2="60.279" gradientUnits="userSpaceOnUse">
      <stop stop-color="#F50"/>
      <stop offset=".41" stop-color="#F50"/>
      <stop offset=".582" stop-color="#FF2000"/>
      <stop offset="1" stop-color="#FF2000"/>
    </linearGradient>
    <linearGradient id="brave_svg__c" x1="12.493" x2="51.244" y1="14.033" y2="14.033" gradientUnits="userSpaceOnUse">
      <stop stop-color="#FF452A"/>
      <stop offset="1" stop-color="#FF2000"/>
    </linearGradient>
    <clipPath id="brave_svg__a">
      <path fill="#fff" d="M7 4h49v56H7z"/>
    </clipPath>
  </defs>
</svg>
