<svg fill="none" viewBox="0 0 300 56" xmlns="http://www.w3.org/2000/svg">
  <path fill="#eee" d="M0 20C0 11.163 7.163 4 16 4h268c8.837 0 16 7.163 16 16v16c0 8.837-7.163 16-16 16H16C7.163 52 0 44.837 0 36z"/>
  <path fill="#ccc" d="M284 50v2H16v-2zm14-14V20c0-7.732-6.268-14-14-14H16C8.268 6 2 12.268 2 20v16c0 7.732 6.268 14 14 14v2C7.302 52 .224 45.059.005 36.413L0 36V20C0 11.163 7.163 4 16 4h268l.413.005C293.059 4.224 300 11.302 300 20v16c0 8.698-6.941 15.776-15.587 15.995L284 52v-2c7.732 0 14-6.268 14-14"/>
  <path fill="#888" d="M26.805 20.031a.75.75 0 0 0-1.061-1.06l-7.012 7.011a2.5 2.5 0 0 0 0 3.536l7.013 7.012a.75.75 0 1 0 1.06-1.06l-6.97-6.97H37.25a.75.75 0 0 0 0-1.5H19.836zm63.391 0a.75.75 0 0 1 1.06-1.06l7.012 7.011a2.5 2.5 0 0 1 0 3.536l-7.012 7.012a.75.75 0 1 1-1.06-1.06l6.969-6.97H79.75a.75.75 0 0 1 0-1.5h17.415z"/>
  <g fill="#888" clip-path="url(#toolbar-with-pictogram-light_svg__a)">
    <path d="M218.5 24a3.5 3.5 0 0 0-3.5-3.5h-8a3.5 3.5 0 0 0-3.5 3.5v8a3.5 3.5 0 0 0 3.5 3.5h8a3.5 3.5 0 0 0 3.5-3.5zm1.5 8a5 5 0 0 1-5 5h-8a5 5 0 0 1-5-5v-8a5 5 0 0 1 5-5h8a5 5 0 0 1 5 5z"/>
    <path d="M210.883 23.393q.68 0 1.213.275.533.27.902.797.375.527.568 1.312.2.78.2 1.8v.087q0 1.447-.346 2.45-.346 1-.99 1.523-.645.515-1.553.515-.691 0-1.225-.27a2.35 2.35 0 0 1-.873-.773 2.8 2.8 0 0 1-.433-1.183l-.024-.164h1.559l.023.123q.065.292.2.51.134.21.334.328a.9.9 0 0 0 .457.111.9.9 0 0 0 .691-.31q.281-.317.439-.909a6.4 6.4 0 0 0 .188-1.418l.012-.228q.005-.123.005-.246l-.234-1.43q0-.463-.141-.82a1.24 1.24 0 0 0-.386-.563.88.88 0 0 0-.569-.2.9.9 0 0 0-.574.2 1.36 1.36 0 0 0-.392.557 2.2 2.2 0 0 0-.141.82v.012q0 .474.141.832.14.351.386.55a.93.93 0 0 0 .58.194.88.88 0 0 0 .569-.2q.252-.199.386-.55.141-.358.141-.82v-.194h.34v1.846h-.176a1.9 1.9 0 0 1-.375.58q-.246.257-.597.416a1.95 1.95 0 0 1-.792.152q-.673 0-1.171-.345a2.27 2.27 0 0 1-.768-.967q-.27-.62-.269-1.43v-.011q0-.891.339-1.553a2.53 2.53 0 0 1 .944-1.037q.61-.37 1.412-.37"/>
  </g>
  <path fill="#888" d="M263 21.25a.75.75 0 0 1 .75-.75h16.5a.75.75 0 0 1 0 1.5h-16.5a.75.75 0 0 1-.75-.75m0 6.5a.75.75 0 0 1 .75-.75h16.5a.75.75 0 0 1 0 1.5h-16.5a.75.75 0 0 1-.75-.75m.75 5.75a.75.75 0 0 0 0 1.5h16.5a.75.75 0 0 0 0-1.5z"/>
  <path fill="#ccdaff" d="M122 28c0-15.464 12.536-28 28-28s28 12.536 28 28-12.536 28-28 28-28-12.536-28-28"/>
  <path fill="#3969ef" d="M176 28c0-14.36-11.641-26-26-26s-26 11.64-26 26 11.641 26 26 26v2c-15.464 0-28-12.536-28-28s12.536-28 28-28 28 12.536 28 28-12.536 28-28 28v-2c14.359 0 26-11.64 26-26"/>
  <path fill="#3969ef" d="M148.073 18.036a.75.75 0 0 1 .635.083c1.027.663 1.555 1.591 1.884 2.526.163.462.281.936.386 1.384.107.46.197.879.311 1.29l.01.032c.032.093.126.312.31.508.19.203.485.396.979.396.463 0 .734-.148.903-.295.184-.16.289-.358.345-.493l.017-.045c.039-.12.081-.332.131-.6.024-.125.052-.277.081-.39.012-.044.04-.153.096-.257a.8.8 0 0 1 .297-.313.76.76 0 0 1 .853.055l.034.028.062.055c.492.45 3.593 3.472 3.593 8.478l-.002.147c-.071 3.078-2.366 5.569-5.352 6.678a.75.75 0 0 1-.821-1.202c.485-.544.757-1.265.79-2.062l.003-.16c0-.71-.445-1.537-1.276-2.508-.678-.792-1.509-1.567-2.344-2.36-.841.79-1.663 1.527-2.345 2.307-.819.938-1.271 1.768-1.271 2.56l.003.161c.033.797.305 1.518.79 2.062l.04.05a.75.75 0 0 1-.861 1.152c-2.986-1.11-5.281-3.6-5.352-6.678l-.002-.147c0-2.775 1.237-4.512 2.633-6.171 1.398-1.662 2.935-3.238 3.972-5.835l.017-.039a.75.75 0 0 1 .451-.398"/>
  <defs>
    <clipPath id="toolbar-with-pictogram-light_svg__a">
      <path fill="#fff" d="M199 16h24v24h-24z"/>
    </clipPath>
  </defs>
</svg>
