<svg width="48" height="48" viewBox="0 0 48 48" fill="none" xmlns="http://www.w3.org/2000/svg">
<path fill-rule="evenodd" clip-rule="evenodd" d="M34.6123 17.0309C34.6123 22.0344 30.5562 26.0905 25.5527 26.0905C24.6 26.0905 23.6817 25.9435 22.8191 25.6709L21.3061 27.1839H18.143V29.7816C18.143 30.0615 17.9161 30.2884 17.6362 30.2884H14.98V34.0772C14.98 34.3571 14.7531 34.584 14.4732 34.584H7.99975V28.1406L16.7921 19.3482C16.597 18.6086 16.4931 17.8319 16.4931 17.0309C16.4931 12.0274 20.5492 7.97131 25.5527 7.97131C30.5562 7.97131 34.6123 12.0274 34.6123 17.0309ZM28.1007 17.314C29.6643 17.314 30.9319 16.0465 30.9319 14.4829C30.9319 12.9193 29.6643 11.6518 28.1007 11.6518C26.5372 11.6518 25.2696 12.9193 25.2696 14.4829C25.2696 16.0465 26.5372 17.314 28.1007 17.314Z" fill="#E2A412"/>
<path fill-rule="evenodd" clip-rule="evenodd" d="M36.1123 17.0309C36.1123 22.0344 32.0562 26.0905 27.0527 26.0905C26.1 26.0905 25.1817 25.9435 24.3191 25.6709L22.8061 27.1839H19.643V29.7816C19.643 30.0615 19.4161 30.2884 19.1362 30.2884H16.48V34.0772C16.48 34.3571 16.2531 34.584 15.9732 34.584H9.49975V28.1406L18.2921 19.3482C18.097 18.6086 17.9931 17.8319 17.9931 17.0309C17.9931 12.0274 22.0492 7.97131 27.0527 7.97131C32.0562 7.97131 36.1123 12.0274 36.1123 17.0309ZM29.6007 17.314C31.1643 17.314 32.4319 16.0465 32.4319 14.4829C32.4319 12.9193 31.1643 11.6518 29.6007 11.6518C28.0372 11.6518 26.7696 12.9193 26.7696 14.4829C26.7696 16.0465 28.0372 17.314 29.6007 17.314Z" fill="#F9BE1A"/>
<path fill-rule="evenodd" clip-rule="evenodd" d="M34.0881 25.5989C37.2105 23.3869 38.5698 19.268 37.1429 15.5275C35.4516 11.094 30.4865 8.87105 26.0531 10.5623C21.6196 12.2536 19.3966 17.2187 21.0879 21.6522C21.3586 22.3618 21.7132 23.0149 22.1361 23.6043L17.3174 34.3671L19.4954 40.0763H20.8622C21.0549 40.0763 21.2309 39.9671 21.3164 39.7944L24.2283 33.9107L25.7345 33.3361C25.8931 32.617 26.1292 31.9269 26.4335 31.2751L25.9817 30.0907L27.4866 29.5166C28.0454 28.7694 28.7063 28.1029 29.4486 27.5379L29.6136 27.1695C29.7475 27.1616 29.8817 27.1507 30.0158 27.1364C31.2179 26.3467 32.6004 25.8091 34.0881 25.5989ZM33.0204 14.5138C33.5489 15.8993 32.8542 17.4509 31.4688 17.9794C30.0833 18.5079 28.5317 17.8132 28.0032 16.4278C27.4747 15.0423 28.1693 13.4907 29.5548 12.9622C30.9403 12.4337 32.4919 13.1284 33.0204 14.5138Z" fill="#E2A412"/>
<path fill-rule="evenodd" clip-rule="evenodd" d="M25.4997 35.5V36.6193C25.4997 37.6562 24.8596 38.5855 23.8908 38.9551L20.9514 40.0764L18.7734 34.3671L23.5922 23.6043C23.1693 23.0149 22.8147 22.3618 22.544 21.6522C20.8527 17.2187 23.0756 12.2536 27.5091 10.5623C31.9426 8.87104 36.9077 11.094 38.5989 15.5275C39.9017 18.9426 38.882 22.673 36.3185 24.9797C35.9211 25.3373 35.3909 25.4902 34.858 25.5329C29.7085 25.9449 25.4997 30.1878 25.4997 35.5ZM34.4765 14.5138C35.005 15.8993 34.3103 17.4509 32.9249 17.9794C31.5394 18.5079 29.9878 17.8132 29.4593 16.4278C28.9308 15.0423 29.6255 13.4907 31.0109 12.9622C32.3964 12.4337 33.948 13.1284 34.4765 14.5138Z" fill="#FFCC33"/>
<path fill-rule="evenodd" clip-rule="evenodd" d="M30.5182 13.2102C30.9511 13.6707 31.636 14 32.4998 14C34.0307 14 34.9998 12.9655 34.9998 12C34.9998 11.0951 34.1485 10.1295 32.7812 10.0119C32.0245 9.39366 31.166 8.8953 30.2347 8.54588C30.9158 8.19487 31.6977 8 32.4998 8C34.8349 8 36.9998 9.65179 36.9998 12C36.9998 14.3482 34.8349 16 32.4998 16C31.3221 16 30.1877 15.5799 29.3525 14.8622C29.5089 14.193 29.9194 13.5934 30.5182 13.2102Z" fill="#999999"/>
<path fill-rule="evenodd" clip-rule="evenodd" d="M34.4998 15.5806C33.8842 15.8516 33.1996 16 32.4998 16C31.3221 16 30.1877 15.5799 29.3525 14.8622C29.5089 14.193 29.9194 13.5934 30.5182 13.2102C30.9511 13.6707 31.636 14 32.4998 14C33.3759 14 34.068 13.6612 34.4998 13.1904V15.5806Z" fill="url(#paint0_linear_2814_444)"/>
<path d="M46.2507 29.5C46.3994 29.5 46.5481 29.56 46.6618 29.677C46.8892 29.9109 46.8892 30.2919 46.6618 30.5258L45.4956 31.7256C45.2682 31.9596 44.898 31.9596 44.6706 31.7256C44.4431 31.4917 44.4431 31.1107 44.6706 30.8768L45.8367 29.677C45.9505 29.56 46.0991 29.5 46.2478 29.5H46.2507Z" fill="#CCCCCC"/>
<path d="M45.6676 34.8991H47.4169C47.7376 34.8991 48 35.1691 48 35.499C48 35.829 47.7376 36.0989 47.4169 36.0989H45.6676C45.3469 36.0989 45.0845 35.829 45.0845 35.499C45.0845 35.1691 45.3469 34.8991 45.6676 34.8991Z" fill="#CCCCCC"/>
<path d="M44.6765 39.2759C44.7902 39.1589 44.9389 39.0989 45.0876 39.0989H45.0905C45.2392 39.0989 45.3879 39.1589 45.5016 39.2759L46.6678 40.4757C46.8952 40.7096 46.8952 41.0906 46.6678 41.3245C46.4403 41.5585 46.0701 41.5585 45.8427 41.3245L44.6765 40.1247C44.4491 39.8908 44.4491 39.5098 44.6765 39.2759Z" fill="#CCCCCC"/>
<path d="M43.5 35.5C43.5 31.0817 39.9183 27.5 35.5 27.5C31.0817 27.5 27.5 31.0817 27.5 35.5C27.5 39.9183 31.0817 43.5 35.5 43.5C39.9183 43.5 43.5 39.9183 43.5 35.5Z" fill="#557FF3"/>
<path fill-rule="evenodd" clip-rule="evenodd" d="M36.5 31C36.7761 31 37 31.2239 37 31.5L37 35.9888C37 36.1969 37.2393 36.3139 37.4035 36.1862L38.8483 35.0624C39.069 34.8908 39.3876 34.9334 39.5553 35.1571L40.4552 36.3569C40.6188 36.5751 40.5774 36.8842 40.3621 37.0516L36.2265 40.2672C35.7919 40.5776 35.208 40.5776 34.7734 40.2672L30.6379 37.0516C30.4226 36.8842 30.3812 36.5751 30.5448 36.3569L31.4447 35.1571C31.6124 34.9334 31.931 34.8908 32.1517 35.0624L33.5965 36.1862C33.7607 36.3139 34 36.1969 34 35.9888L34 31.5C34 31.2239 34.2239 31 34.5 31L36.5 31Z" fill="white"/>
<defs>
<linearGradient id="paint0_linear_2814_444" x1="30.9998" y1="14.5" x2="33.9998" y2="14.5" gradientUnits="userSpaceOnUse">
<stop stop-color="#5F5F5F"/>
<stop offset="1" stop-color="#999999" stop-opacity="0"/>
</linearGradient>
</defs>
</svg>
