<svg width="16" height="16" viewBox="0 0 16 16" fill="none" xmlns="http://www.w3.org/2000/svg">
<path fill-rule="evenodd" clip-rule="evenodd" d="M10.0627 0.868722C8.90098 -0.28146 7.03313 -0.290678 5.86012 0.847983L4.86763 1.81141C4.60622 2.06516 4.22766 2.15679 3.87923 2.05065L3.60428 1.9669C1.86255 1.43636 0.0951352 2.71372 0.051234 4.5348L0.00267104 6.54925C-0.0848093 10.178 1.98289 13.5145 5.2705 15.0495L6.6774 15.7064C7.51574 16.0979 8.48426 16.0979 9.3226 15.7064L10.7295 15.0495C14.0171 13.5145 16.0848 10.178 15.9973 6.54925L15.9481 4.50837C15.9045 2.69774 14.1557 1.42162 12.4192 1.93325L11.9985 2.0572C11.6489 2.16022 11.2709 2.06491 11.0118 1.80841L10.0627 0.868722Z" fill="#21C000"/>
<path fill-rule="evenodd" clip-rule="evenodd" d="M12.3162 5.18227C12.5607 5.42591 12.5614 5.82164 12.3177 6.06615L7.96833 10.4311C7.37356 11.028 6.40395 11.0181 5.82162 10.409L3.67327 8.16219C3.43472 7.91271 3.44359 7.51708 3.69307 7.27853C3.94255 7.03998 4.33818 7.04885 4.57673 7.29833L6.72508 9.54516C6.82213 9.64666 6.98373 9.64833 7.08286 9.54885L11.4323 5.18385C11.6759 4.93934 12.0716 4.93863 12.3162 5.18227Z" fill="white"/>
</svg>
