<svg xmlns="http://www.w3.org/2000/svg" width="24" height="24" fill="none" viewBox="0 0 24 24">
  <path fill="#000" d="M20 7.7c0-.288.325-.445.53-.242A4.985 4.985 0 0 1 22 11v5a5 5 0 0 1-5 5h-7a4.985 4.985 0 0 1-3.542-1.47c-.203-.205-.046-.53.242-.53h.942c.363 0 .715.112 1.052.248.404.162.844.252 1.306.252h7a3.5 3.5 0 0 0 3.5-3.5v-5c0-.462-.09-.902-.252-1.306-.136-.337-.248-.689-.248-1.052V7.7Z"/>
  <path fill="#000" fill-rule="evenodd" d="M14 3a5 5 0 0 1 5 5v5a5 5 0 0 1-5 5H7a5 5 0 0 1-5-5V8a5 5 0 0 1 5-5h7ZM7 4.5A3.5 3.5 0 0 0 3.5 8v5A3.5 3.5 0 0 0 7 16.5h7a3.5 3.5 0 0 0 3.5-3.5V8.5h-4.054c-1.06 0-1.82-.3-2.372-.838-.51-.497-.776-1.144-.98-1.612-.226-.52-.394-.873-.666-1.125C9.192 4.706 8.802 4.5 8 4.5H7Zm3.994 0c.207.332.354.67.476.95.231.532.391.885.651 1.138.217.212.572.412 1.325.412h3.909A3.501 3.501 0 0 0 14 4.5h-3.006Z" clip-rule="evenodd"/>
</svg>
