<svg fill="none" viewBox="0 0 96 96" xmlns="http://www.w3.org/2000/svg">
  <path fill="#c18010" d="M71 51c-11.046 0-20 8.954-20 20v1a8 8 0 0 1-8 8h-7a8 8 0 0 1-8-8V24a8 8 0 0 1 8-8h32a8 8 0 0 1 8 8v24a3 3 0 0 1-3 3z"/>
  <path fill="#fff0c2" d="M71 51c-11.046 0-20 8.954-20 20v1a5 5 0 0 1-5 5H34c-5.523 0-10-4.477-10-10V29c0-5.523 4.477-10 10-10h34a5 5 0 0 1 5 5v27z"/>
  <path fill="#e2a412" d="M69 51.099C58.893 52.102 51 60.629 51 71v5a4 4 0 0 1-4 4H35c-8.284 0-15-6.716-15-15V31c0-8.284 6.716-15 15-15h26a8 8 0 0 1 8 8z"/>
  <path fill="#c18010" d="M35 80h-7a8 8 0 0 1-8-8V24a8 8 0 0 1 8-8h7z"/>
  <path fill="#3969ef" d="M62 16H48v29.035c0 1.642 1.868 2.584 3.189 1.609l2.622-1.938a2 2 0 0 1 2.378 0l2.622 1.938c1.32.975 3.189.033 3.189-1.609z"/>
  <path fill="#557ff3" d="M71 87c8.837 0 16-7.163 16-16s-7.163-16-16-16-16 7.163-16 16 7.163 16 16 16"/>
  <path fill="#fff" fill-rule="evenodd" d="M73 62a1 1 0 0 1 1 1v8.978a.5.5 0 0 0 .807.394l2.89-2.247a1 1 0 0 1 1.414.19l1.8 2.399a1 1 0 0 1-.187 1.39l-8.271 6.43a2.5 2.5 0 0 1-2.906 0l-8.271-6.43a1 1 0 0 1-.186-1.39l1.8-2.4a1 1 0 0 1 1.413-.19l2.89 2.248a.5.5 0 0 0 .807-.394V63a1 1 0 0 1 1-1z" clip-rule="evenodd"/>
  <path fill="#ccc" d="M92.502 59c.297 0 .594.12.822.354.454.468.454 1.23 0 1.698l-2.333 2.4a1.145 1.145 0 0 1-1.65 0 1.227 1.227 0 0 1 0-1.698l2.333-2.4c.227-.234.524-.354.822-.354zm-1.167 10.798h3.499c.641 0 1.166.54 1.166 1.2s-.525 1.2-1.166 1.2h-3.499c-.641 0-1.166-.54-1.166-1.2s.525-1.2 1.166-1.2m-1.982 8.754c.227-.234.525-.354.822-.354h.006c.297 0 .595.12.822.354l2.332 2.4c.455.467.455 1.23 0 1.697a1.145 1.145 0 0 1-1.65 0l-2.332-2.4a1.227 1.227 0 0 1 0-1.697"/>
</svg>
