<svg fill="none" viewBox="0 0 71 64" xmlns="http://www.w3.org/2000/svg">
  <path fill="#fff" fill-opacity=".3" d="M2.655 47.853H0V36.398l15.56-15.63a16.2 16.2 0 0 1-.53-4.12C15.03 7.752 22.21.541 31.064.541q.67 0 1.328.054c-8.234.678-14.706 7.605-14.706 16.052a16.2 16.2 0 0 0 .53 4.12l-15.56 15.63z"/>
  <path fill="#fff" fill-opacity=".84" d="M30.97 51.094v-1.612c0-9.377 7.342-16.88 16.366-17.703 1.069-.098 2.135-.4 2.922-1.13 4.432-4.11 6.174-10.667 3.893-16.674a15.3 15.3 0 0 0-2.98-4.864c-.473 2.157-2.012 3.867-4.002 4.832a4.77 4.77 0 0 1-3.06 4.39 4.745 4.745 0 0 1-6.132-2.758 4.77 4.77 0 0 1-.189-2.783 4.78 4.78 0 0 1 2.063-2.937q.405-.26.872-.44a4.74 4.74 0 0 1 5.17 1.204c1.198-.687 1.889-1.826 1.889-2.915 0-.574-.192-1.162-.55-1.69a15.11 15.11 0 0 0-12.706-.866c-7.846 3.007-11.78 11.834-8.787 19.715a15.3 15.3 0 0 0 1.855 3.47l-8.528 19.135 3.855 10.15 4.838-1.855a5 5 0 0 0 3.21-4.669"/>
  <path fill="#fff" fill-opacity=".3" d="M38.654 4.196c-2.21-.19-4.495.105-6.705.952-7.846 3.007-11.78 11.834-8.787 19.715a15.3 15.3 0 0 0 1.855 3.47l-8.528 19.135 3.855 10.15h2.418a1 1 0 0 0 .154-.014l-3.85-10.136 8.528-19.134a15.3 15.3 0 0 1-1.855-3.47c-2.993-7.883.94-16.71 8.787-19.716a15.2 15.2 0 0 1 4.128-.952M23.145 57.531l-.128.05a1 1 0 0 0 .128-.05m24.024-43.588a4.77 4.77 0 0 1-3.06 4.39 4.7 4.7 0 0 1-2.981.136q.203-.058.405-.135a4.76 4.76 0 0 0 2.98-3.596 8.7 8.7 0 0 0 2.656-.795m-1.276-3.324a4.94 4.94 0 0 1-2.088.623 4.76 4.76 0 0 0-2.677-1.963 4.74 4.74 0 0 1 4.765 1.34"/>
  <path fill="#fff" fill-opacity=".6" fill-rule="evenodd" d="M39.85 9.855c.767.819 1.979 1.404 3.508 1.404 2.709 0 4.424-1.839 4.424-3.555 0-1.609-1.507-3.325-3.926-3.534a16 16 0 0 0-4.507-2.607 8.75 8.75 0 0 1 4.009-.97c4.132 0 7.963 2.936 7.963 7.11s-3.831 7.112-7.963 7.112c-2.085 0-4.092-.747-5.57-2.023a4.78 4.78 0 0 1 2.063-2.937" clip-rule="evenodd"/>
  <path fill="#fff" fill-opacity=".48" d="M19.708 40.216h.013l.884-1.983v-3.536h1.576l2.836-6.364a15.3 15.3 0 0 1-1.855-3.47c-2.993-7.882.94-16.709 8.787-19.715a15.1 15.1 0 0 1 6.705-.952 15.1 15.1 0 0 1 6.041.713 16.1 16.1 0 0 0-5.346-3.346A15.9 15.9 0 0 0 33.718.542c-8.855 0-16.033 7.21-16.033 16.106a16.2 16.2 0 0 0 .53 4.12l-15.56 15.63v11.455H14.11a.9.9 0 0 0 .896-.901v-6.736zm24.805-25.478a4.76 4.76 0 0 1-3.385 3.73 4.76 4.76 0 0 1-2.212-1.364 5.01 5.01 0 0 0 3.57-2.333 8.8 8.8 0 0 0 2.027-.033m-1.349-3.482a5 5 0 0 0-.31-1.072c.363.298.685.653.95 1.058a6 6 0 0 1-.64.014"/>
  <path fill="#fff" d="M67.33 38.556c.264 0 .528.106.73.314a1.09 1.09 0 0 1 0 1.51l-2.073 2.132a1.02 1.02 0 0 1-1.466 0 1.09 1.09 0 0 1 0-1.509l2.073-2.133c.202-.208.466-.314.73-.314zm-1.037 9.598h3.11c.57 0 1.036.48 1.036 1.067 0 .586-.467 1.066-1.037 1.066h-3.109c-.57 0-1.037-.48-1.037-1.066s.467-1.067 1.037-1.067m-1.762 7.781a1.02 1.02 0 0 1 .73-.315h.006c.264 0 .529.107.73.315l2.074 2.133a1.09 1.09 0 0 1 0 1.509 1.02 1.02 0 0 1-1.467 0l-2.073-2.133a1.09 1.09 0 0 1 0-1.509"/>
  <rect width="28.44" height="28.444" x="34" y="35" fill="#fff" fill-opacity=".3" rx="14.22"/>
  <path fill="#fff" d="M50.964 46.732a.19.19 0 1 0 0-.38.19.19 0 0 0 0 .38m-5.658.493a.22.22 0 0 0 .223-.224.22.22 0 0 0-.223-.223.22.22 0 0 0-.223.224c0 .124.098.223.223.223"/>
  <path fill="#fff" fill-rule="evenodd" d="M48.227 60.797c.872 0 1.817-.176 2.633-.364a81 81 0 0 1-.77-1.722c-.36.112-.872.164-1.24.177-.279 0-.505-.013-.623-.177-.716.61-2.16 1.425-2.449 1.234-.551-.354-1.07-3.085-.656-3.656.092-.131.263-.197.472-.217-.196.808.263 2.803.52 3.007.248.197 2.036-.867 1.957-1.116a3.7 3.7 0 0 1-.138-1.293c.072-.099.294-.25.444-.315a1 1 0 0 0-.013.243c0 .308.04.84.119 1.07.105.282.216.465.715.459.505-.007 1.32-.118 1.444-.341.125-.224-.04-1.13-.144-1.418l-.06-.138a.1.1 0 0 0-.02-.033h.176c.263.06.488.17.553 1.38 0 .243 1.7.708 2.009.576q.038-.02.046-.04c.144-.74.059-2.585-.597-3.366-.132-.158-1.477.695-2.285 1.3-.17-.184-.472-.29-1.043-.198q-.08.013-.15.027l-.1.02c-.282-.92-.446-1.727-.38-2.252-.63-.335-1.05-.722-1.13-.873-.137-.25.093-.368.21-.302q.01.01.04.02c.663.36 1.726.755 3.17.827q.258.011.526.013c2.33-.02 3.688-.926 3.452-1.379-.111-.21-.595-.156-1.32-.076-.81.09-1.922.214-3.15.037-1.72-.25-1.89-1.037-1.674-1.372.331-.507.951-.48 1.839-.44.469.02 1.012.044 1.627-.006 1.779-.144 2.79-.643 3.347-1.28.296-.335.427-.696.316-.912-.105-.19-.4-.263-1.241.059-.584.223-1.464.512-2.639.65.204-1.307-.407-6.039-3.748-6.754q-.02-.009-.039-.027c-1.017-1.3-3.085-1.89-5.054-1.627q-.018.001-.026.013c-.06.026-.06.137.006.164.224.079.486.197.683.374-.282.15-.696.4-.925.722-.014.013-.014.026-.014.04 0 .039.033.071.08.065.958-.19 1.936-.099 2.513.427.04.032.02.091-.033.105-5.001 1.358-4.01 5.71-2.678 11.046.95 3.808 1.595 6.102 1.85 6.985 1.149.393 2.31.654 3.592.654m2.79-16.1-.026-.01a1.7 1.7 0 0 0-.756-.18 1.5 1.5 0 0 0-.788.178c-.052.026-.13-.027-.105-.08.132-.21.42-.373.893-.373s.696.19.847.393c.033.04-.02.092-.066.073m.354 2.088c0 .4-.329.729-.736.729a.733.733 0 0 1-.735-.73c0-.4.328-.728.736-.728a.73.73 0 0 1 .735.729m-6.446-.348c.473 0 .853.38.853.853s-.38.854-.853.854a.85.85 0 0 1-.853-.854.847.847 0 0 1 .853-.853m-.893-1.562c-.46.19-.603.4-.695.538-.033.053-.158.046-.158-.013 0-.263.243-.663.755-.853.578-.217 1.017-.02 1.214.144.046.033.007.092-.046.079-.25-.06-.61-.086-1.07.105" clip-rule="evenodd"/>
  <path fill="#fff" fill-rule="evenodd" d="M48.22 60.458c6.206 0 11.238-5.032 11.238-11.238S54.426 37.983 48.22 37.983s-11.237 5.03-11.237 11.237 5.03 11.238 11.237 11.238m0 1.162c6.848 0 12.4-5.552 12.4-12.4s-5.552-12.4-12.4-12.4-12.4 5.552-12.4 12.4 5.552 12.4 12.4 12.4" clip-rule="evenodd"/>
</svg>
