<svg width="16" height="16" viewBox="0 0 16 16" fill="none" xmlns="http://www.w3.org/2000/svg">
<path d="M8.48319 3.64453C7.73951 3.64453 7.28748 4.24239 7.28748 4.7965C7.28748 5.46726 7.79784 5.68599 8.24988 5.68599C9.08104 5.68599 9.43101 5.05897 9.43101 4.54861C9.43101 3.90701 8.92064 3.64453 8.48319 3.64453Z" fill="black" fill-opacity="0.6"/>
<path d="M8.91304 6.54504L7.08645 6.84036C7.03054 7.28244 6.95011 7.72956 6.86842 8.18373C6.71074 9.06033 6.54834 9.96319 6.54834 10.9066C6.54834 11.8434 7.10858 12.3547 7.99455 12.3547C9.0064 12.3547 9.17956 11.7196 9.21882 11.1442C8.37999 11.2659 8.19573 10.8873 8.33282 9.99619C8.46992 9.10509 8.91304 6.54504 8.91304 6.54504Z" fill="black" fill-opacity="0.6"/>
<path fill-rule="evenodd" clip-rule="evenodd" d="M8 6.99382e-07C3.58172 1.08564e-06 3.13124e-07 3.58172 6.99382e-07 8C1.08564e-06 12.4183 3.58172 16 8 16C12.4183 16 16 12.4183 16 8C16 3.58172 12.4183 3.13124e-07 8 6.99382e-07ZM1.25 8C1.25 4.27208 4.27208 1.25 8 1.25C11.7279 1.25 14.75 4.27208 14.75 8C14.75 11.7279 11.7279 14.75 8 14.75C4.27208 14.75 1.25 11.7279 1.25 8Z" fill="black" fill-opacity="0.6"/>
</svg>
