<svg width="96" height="72" viewBox="0 0 96 72" fill="none" xmlns="http://www.w3.org/2000/svg">
<path d="M65.25 38.25C56.9657 38.25 50.25 44.9657 50.25 53.25V55.5C50.25 57.1569 48.9069 58.5 47.25 58.5H36C30.201 58.5 25.5 53.799 25.5 48V24C25.5 18.201 30.201 13.5 36 13.5H52.5L70.5 31.5V35.25C70.5 36.9069 69.1569 38.25 67.5 38.25H65.25Z" fill="#DEE1E6"/>
<rect x="32" y="34" width="15" height="4" rx="2" fill="#B4B8BE"/>
<rect x="32" y="43" width="10" height="4" rx="2" fill="#B4B8BE"/>
<path opacity="0.04" d="M51.0826 23.1374L52.4998 13.5L70.4998 31.5L63.9072 33.7733C56.997 36.1562 50.0191 30.3691 51.0826 23.1374Z" fill="black"/>
<path d="M52.5 21V13.5L70.5 31.5H63C57.201 31.5 52.5 26.799 52.5 21Z" fill="#C4C8CE"/>
<path d="M65.25 65.25C71.8774 65.25 77.25 59.8774 77.25 53.25C77.25 46.6226 71.8774 41.25 65.25 41.25C58.6226 41.25 53.25 46.6226 53.25 53.25C53.25 59.8774 58.6226 65.25 65.25 65.25Z" fill="#557FF3"/>
<path d="M65.1719 48.25C65.7155 48.25 66.1562 48.6908 66.1562 49.2344V52.1875H69.1094C69.653 52.1875 70.0937 52.6283 70.0938 53.1719C70.0938 53.7155 69.653 54.1562 69.1094 54.1562H66.1562V57.1094C66.1562 57.653 65.7155 58.0938 65.1719 58.0938C64.6283 58.0937 64.1875 57.653 64.1875 57.1094V54.1562H61.2344C60.6908 54.1562 60.25 53.7155 60.25 53.1719C60.2501 52.6283 60.6908 52.1876 61.2344 52.1875H64.1875V49.2344C64.1876 48.6908 64.6283 48.2501 65.1719 48.25Z" fill="white"/>
<path d="M81.3761 44.25C81.5992 44.25 81.8222 44.34 81.9927 44.5155C82.3338 44.8664 82.3338 45.4378 81.9927 45.7887L80.2434 47.5884C79.9023 47.9394 79.3469 47.9394 79.0058 47.5884C78.6647 47.2375 78.6647 46.6661 79.0058 46.3151L80.7551 44.5155C80.9257 44.34 81.1487 44.25 81.3717 44.25H81.3761Z" fill="#CCCCCC"/>
<path d="M80.5014 52.3487H83.1254C83.6064 52.3487 84 52.7536 84 53.2485C84 53.7434 83.6064 54.1484 83.1254 54.1484H80.5014C80.0204 54.1484 79.6268 53.7434 79.6268 53.2485C79.6268 52.7536 80.0204 52.3487 80.5014 52.3487Z" fill="#CCCCCC"/>
<path d="M79.0147 58.9138C79.1853 58.7383 79.4083 58.6484 79.6314 58.6484H79.6357C79.8588 58.6484 80.0818 58.7383 80.2523 58.9138L82.0016 60.7135C82.3427 61.0645 82.3427 61.6359 82.0016 61.9868C81.6605 62.3377 81.1051 62.3377 80.764 61.9868L79.0147 60.1871C78.6736 59.8362 78.6736 59.2648 79.0147 58.9138Z" fill="#CCCCCC"/>
</svg>
