<svg xmlns="http://www.w3.org/2000/svg" width="24" height="24" fill="none" viewBox="0 0 24 24">
  <path fill="#000" d="M17.031 4A4.969 4.969 0 0 1 22 8.969v1.218c0 .414-.34.75-.753.75a.747.747 0 0 1-.747-.75V8.969c0-.596-.15-1.157-.415-1.647L17.26 9.506a5.001 5.001 0 0 0-4.313 2.926 3.874 3.874 0 0 1-3.317-.69l-5.716-4.42A3.454 3.454 0 0 0 3.5 8.97v6.062A3.469 3.469 0 0 0 6.969 18.5h3.781a.75.75 0 0 1 0 1.5H6.969A4.969 4.969 0 0 1 2 15.031V8.97A4.969 4.969 0 0 1 6.969 4H17.03ZM6.97 5.5c-.777 0-1.494.255-2.072.686l5.65 4.368a2.374 2.374 0 0 0 2.905 0l5.65-4.368a3.453 3.453 0 0 0-2.07-.686H6.968Z"/>
  <path fill="#000" fill-rule="evenodd" d="M14 16v-1.5a3.5 3.5 0 1 1 7 0V16a1 1 0 0 1 1 1v4a1 1 0 0 1-1 1h-7a1 1 0 0 1-1-1v-4a1 1 0 0 1 1-1Zm1.5-1.5a2 2 0 1 1 4 0V16h-4v-1.5Z" clip-rule="evenodd"/>
</svg>
