<svg width="300" height="200" viewBox="0 0 300 200" fill="none" xmlns="http://www.w3.org/2000/svg">
<g clip-path="url(#clip0_28734_91224)">
<rect y="-0.981445" width="300" height="157" rx="6" fill="#F2F2F2"/>
<path d="M22 29.0186C22 23.4957 26.4772 19.0186 32 19.0186H255C260.523 19.0186 265 23.4957 265 29.0186C265 34.5414 260.523 39.0186 255 39.0186H32C26.4771 39.0186 22 34.5414 22 29.0186Z" fill="#E0E0E0"/>
<path d="M22 64.0186C22 58.4957 26.4772 54.0186 32 54.0186H127C132.523 54.0186 137 58.4957 137 64.0186C137 69.5414 132.523 74.0186 127 74.0186H32C26.4772 74.0186 22 69.5414 22 64.0186Z" fill="#E0E0E0"/>
<path d="M60 127.019C60 121.496 64.4772 117.019 70 117.019H116C121.523 117.019 126 121.496 126 127.019C126 132.541 121.523 137.019 116 137.019H70C64.4772 137.019 60 132.541 60 127.019Z" fill="black" fill-opacity="0.09"/>
<path d="M22 127.019C22 121.496 26.4772 117.019 32 117.019C37.5228 117.019 42 121.496 42 127.019C42 132.541 37.5228 137.019 32 137.019C26.4772 137.019 22 132.541 22 127.019Z" fill="black" fill-opacity="0.09"/>
<g clip-path="url(#clip1_28734_91224)">
<rect x="140" y="50.5098" width="150" height="150" rx="75" fill="white"/>
<rect x="97" y="54.0186" width="236" height="153" rx="20" fill="#F9F9F9"/>
<path d="M254.9 123.292C254.788 123.098 254.599 122.95 254.362 122.89C253.887 122.77 253.392 123.056 253.259 123.527L252.575 125.942C252.442 126.413 252.719 126.894 253.194 127.014C253.668 127.134 254.163 126.848 254.297 126.377L254.98 123.962C255.047 123.727 255.014 123.489 254.902 123.295L254.9 123.292Z" fill="#3969EF"/>
<path d="M248.324 128.098L247.012 125.826C246.771 125.409 246.224 125.271 245.795 125.519C245.366 125.766 245.212 126.309 245.453 126.726L246.765 128.998C247.005 129.415 247.553 129.553 247.982 129.306C248.41 129.058 248.564 128.515 248.324 128.098Z" fill="#3969EF"/>
<path d="M243.381 132.669C243.448 132.433 243.414 132.195 243.303 132.002L243.301 131.998C243.189 131.805 243 131.657 242.762 131.597L240.329 130.982C239.855 130.862 239.36 131.147 239.227 131.618C239.093 132.089 239.371 132.57 239.845 132.69L242.279 133.305C242.753 133.425 243.248 133.139 243.381 132.669Z" fill="#3969EF"/>
<g filter="url(#filter0_d_28734_91224)">
<path fill-rule="evenodd" clip-rule="evenodd" d="M263.761 148.793L270.73 146.316L252 136.019L257.46 156.684L261.549 150.521L266.445 156.787L268.657 155.059L263.761 148.793Z" fill="#3969EF"/>
<path d="M252.434 135.23L271.163 145.528L272.92 146.494L271.031 147.165L265.238 149.222L269.366 154.505L269.92 155.214L269.211 155.768L266.999 157.497L266.29 158.05L265.736 157.341L261.608 152.059L258.21 157.181L257.103 158.851L256.59 156.914L251.13 136.249L250.594 134.218L252.434 135.23Z" stroke="white" stroke-width="1.8"/>
</g>
<path d="M161 115.51C161 112.748 163.239 110.51 166 110.51H264C266.761 110.51 269 112.748 269 115.51V135.51C269 138.271 266.761 140.51 264 140.51H166C163.239 140.51 161 138.271 161 135.51V115.51Z" fill="black" fill-opacity="0.09"/>
<path d="M193.585 131.51L198.163 119.093H199.35V121.098H198.86L195.211 131.51H193.585ZM195.659 127.956L196.14 126.64H201.751L202.233 127.956H195.659ZM202.646 131.51L198.997 121.098V119.093H199.694L204.272 131.51H202.646ZM206.22 131.51V118.568H207.717V131.51H206.22ZM210.551 131.51V118.568H212.049V131.51H210.551ZM218.6 131.673C217.728 131.673 216.971 131.481 216.329 131.097C215.692 130.707 215.198 130.153 214.849 129.436C214.504 128.719 214.332 127.87 214.332 126.889V126.872C214.332 125.879 214.504 125.025 214.849 124.308C215.198 123.591 215.692 123.04 216.329 122.656C216.971 122.271 217.728 122.079 218.6 122.079C219.484 122.079 220.244 122.271 220.88 122.656C221.517 123.04 222.008 123.591 222.352 124.308C222.702 125.025 222.877 125.879 222.877 126.872V126.889C222.877 127.87 222.702 128.719 222.352 129.436C222.008 130.153 221.517 130.707 220.88 131.097C220.244 131.481 219.484 131.673 218.6 131.673ZM218.6 130.348C219.185 130.348 219.681 130.21 220.089 129.935C220.496 129.66 220.806 129.264 221.018 128.748C221.236 128.231 221.345 127.612 221.345 126.889V126.872C221.345 126.138 221.236 125.512 221.018 124.996C220.806 124.48 220.496 124.087 220.089 123.817C219.681 123.542 219.185 123.404 218.6 123.404C218.021 123.404 217.527 123.542 217.12 123.817C216.713 124.087 216.4 124.48 216.182 124.996C215.97 125.512 215.864 126.138 215.864 126.872V126.889C215.864 127.612 215.97 128.231 216.182 128.748C216.4 129.264 216.713 129.66 217.12 129.935C217.527 130.21 218.021 130.348 218.6 130.348ZM226.546 131.51L223.947 122.243H225.444L227.268 129.66H227.397L229.471 122.243H230.891L232.965 129.66H233.102L234.926 122.243H236.415L233.816 131.51H232.311L230.237 124.342H230.099L228.043 131.51H226.546Z" fill="black" fill-opacity="0.96"/>
</g>
<rect x="142.5" y="53.0098" width="145" height="145" rx="72.5" stroke="black" stroke-opacity="0.06" stroke-width="5"/>
</g>
<defs>
<filter id="filter0_d_28734_91224" x="244.688" y="129.418" width="34.9219" height="37.6006" filterUnits="userSpaceOnUse" color-interpolation-filters="sRGB">
<feFlood flood-opacity="0" result="BackgroundImageFix"/>
<feColorMatrix in="SourceAlpha" type="matrix" values="0 0 0 0 0 0 0 0 0 0 0 0 0 0 0 0 0 0 127 0" result="hardAlpha"/>
<feOffset dy="1.5"/>
<feGaussianBlur stdDeviation="2.25"/>
<feColorMatrix type="matrix" values="0 0 0 0 0 0 0 0 0 0 0 0 0 0 0 0 0 0 0.2 0"/>
<feBlend mode="normal" in2="BackgroundImageFix" result="effect1_dropShadow_28734_91224"/>
<feBlend mode="normal" in="SourceGraphic" in2="effect1_dropShadow_28734_91224" result="shape"/>
</filter>
<clipPath id="clip0_28734_91224">
<rect width="300" height="200" rx="6" fill="white"/>
</clipPath>
<clipPath id="clip1_28734_91224">
<rect x="140" y="50.5098" width="150" height="150" rx="75" fill="white"/>
</clipPath>
</defs>
</svg>
