<svg fill="none" viewBox="0 0 24 24" xmlns="http://www.w3.org/2000/svg">
  <path fill="#de5833" d="M16.215 2.93c.406-1.27 2.264-1.239 2.598.095l.184.735a1.71 1.71 0 0 0 1.244 1.244l.734.183c1.334.334 1.366 2.191.096 2.598.596 1.28.929 2.71.929 4.215 0 5.523-4.477 10-10 10S2 17.523 2 12 6.477 2 12 2c1.506 0 2.934.333 4.215.93"/>
  <path fill="#ddd" fill-rule="evenodd" d="M13.406 19.46c0-.077.02-.095-.229-.59-.66-1.322-1.323-3.185-1.022-4.387.055-.218-.621-8.085-1.1-8.338-.531-.283-1.185-.733-1.784-.833-.303-.048-.701-.025-1.013.017-.055.007-.057.106-.004.124.204.07.452.19.598.371.028.035-.01.089-.053.09-.138.006-.388.063-.718.344-.038.032-.006.092.043.082.709-.14 1.432-.07 1.86.317.027.025.012.07-.024.08-3.702 1.006-2.97 4.227-1.984 8.179.877 3.515 1.208 4.652 1.312 4.999.01.034.035.062.068.075 1.275.507 4.05.53 4.05-.334z" clip-rule="evenodd"/>
  <path fill="#fff" d="M12 3.062c1.412 0 2.748.327 3.936.908a1.7 1.7 0 0 1-.928.95 7.719 7.719 0 1 0 4.08 4.05 1.7 1.7 0 0 1 .955-.911A8.969 8.969 0 1 1 12 3.063m5.182.211c.083-.33.553-.33.636 0l.184.735a2.74 2.74 0 0 0 1.99 1.99l.734.184c.332.082.332.553 0 .636l-.734.184a2.74 2.74 0 0 0-1.99 1.99l-.184.734c-.083.332-.553.332-.636 0l-.184-.734a2.74 2.74 0 0 0-1.99-1.99l-.734-.184c-.332-.082-.332-.554 0-.636l.734-.184a2.74 2.74 0 0 0 1.99-1.99z"/>
  <path fill="#fff" d="M13.914 20.203c-.45.176-1.328.254-1.836.254-.745 0-1.817-.117-2.207-.293a88 88 0 0 1-1.676-5.966l-.07-.286v-.002c-.848-3.462-1.54-6.29 2.253-7.178.035-.008.052-.05.03-.077-.436-.516-1.252-.686-2.283-.33-.042.015-.079-.028-.053-.064.203-.279.598-.493.793-.587.04-.02.038-.079-.005-.092a4 4 0 0 0-.59-.14c-.057-.01-.062-.109-.004-.117 1.462-.196 2.988.243 3.754 1.207q.011.015.03.018c2.804.603 3.005 5.037 2.682 5.239-.064.04-.268.017-.537-.013-1.092-.122-3.253-.364-1.47 2.96.018.033-.005.077-.042.082-1.006.157.283 3.309 1.23 5.385"/>
  <path fill="#fc3" fill-rule="evenodd" d="M10.636 12.689c.086-.376.488-1.084 1.925-1.066.726-.003 1.628 0 2.226-.069a8 8 0 0 0 1.989-.483c.622-.237.842-.185.92-.043.085.156-.015.426-.233.673-.415.474-1.16.841-2.479.95-1.317.109-2.19-.245-2.566.33-.162.25-.037.834 1.238 1.018 1.721.249 3.136-.3 3.31.032.175.33-.831 1.004-2.556 1.018s-2.802-.604-3.184-.91c-.485-.39-.702-.959-.59-1.45" clip-rule="evenodd"/>
  <path fill="#14307e" d="M12.832 8.582c.096-.157.31-.279.659-.279s.513.14.627.294c.023.032-.012.069-.048.053l-.026-.011a1.3 1.3 0 0 0-.553-.128 1.14 1.14 0 0 0-.583.13c-.038.02-.099-.021-.076-.059m-3.93.202c.339-.142.605-.123.793-.079.04.01.068-.033.036-.059-.146-.118-.474-.264-.9-.105-.381.142-.56.437-.561.63 0 .047.093.05.118.012.065-.105.175-.257.514-.4"/>
  <path fill="#14307e" fill-rule="evenodd" d="M13.787 10.738a.542.542 0 1 1-.002-1.08.542.542 0 0 1 .002 1.08m.383-.72a.14.14 0 0 0-.281 0 .14.14 0 0 0 .28 0m-3.978.552a.632.632 0 1 1-1.263 0 .632.632 0 0 1 1.263 0m-.187-.208a.164.164 0 1 0-.327 0 .164.164 0 0 0 .328 0" clip-rule="evenodd"/>
  <path fill="#3ca82b" d="M15.169 16.171c-.214-.098-1.035.49-1.58.942-.114-.16-.329-.278-.813-.194-.424.074-.658.176-.762.352-.67-.253-1.795-.645-2.067-.267-.298.414.074 2.37.469 2.623.206.133 1.192-.501 1.707-.938.083.117.217.184.492.177.416-.01 1.09-.106 1.195-.3a.2.2 0 0 0 .016-.041c.53.198 1.461.407 1.67.376.542-.082-.076-2.613-.327-2.73"/>
  <path fill="#4cba3c" d="M13.639 17.171a1 1 0 0 1 .056.126c.075.21.198.882.105 1.048s-.697.245-1.069.252c-.373.006-.456-.13-.532-.34-.06-.17-.09-.567-.09-.794-.014-.337.109-.456.678-.548.421-.068.644.012.773.147.598-.446 1.596-1.076 1.693-.961.485.574.547 1.94.442 2.49-.035.18-1.642-.178-1.642-.371 0-.805-.209-1.026-.414-1.049m-3.52-.251c.131-.208 1.199.05 1.785.311 0 0-.12.546.07 1.188.057.188-1.347 1.025-1.53.881-.212-.166-.602-1.942-.325-2.38"/>
</svg>
