<svg fill="none" viewBox="0 0 55 48" xmlns="http://www.w3.org/2000/svg">
  <path fill="#fff" fill-opacity=".6" fill-rule="evenodd" d="M33.804 24.088c-5.832 1.5-10.142 6.794-10.142 13.095v3.96c0 1.15-.877 2.125-2.028 2.125C9.686 43.268 0 33.582 0 21.634S9.686 0 21.634 0c5.111 0 9.808 1.773 13.51 4.737a27 27 0 0 1 .687 6.08 26.9 26.9 0 0 1-3.824 13.871q.87-.361 1.797-.6M23.662 37.183c0-1.481.238-2.907.678-4.24a26.9 26.9 0 0 1-15.55 4.916q-.762 0-1.512-.041a21.55 21.55 0 0 0 14.357 5.45c1.15 0 2.028-.974 2.028-2.125z" clip-rule="evenodd"/>
  <path fill="#fff" fill-opacity=".42" d="M24.34 32.943a13.5 13.5 0 0 0-.678 4.24v3.96c0 1.15-.877 2.124-2.028 2.124a21.55 21.55 0 0 1-14.357-5.45q.75.042 1.512.042a26.9 26.9 0 0 0 15.551-4.916m7.667-8.255a26.9 26.9 0 0 0 3.824-13.871c0-2.09-.237-4.126-.687-6.08 4.952 3.964 8.124 10.06 8.124 16.897 0 1.15-.974 2.028-2.126 2.028h-3.959a13.5 13.5 0 0 0-5.176 1.026"/>
  <path fill="#fff" fill-rule="evenodd" d="M35.58 23.756a33.3 33.3 0 0 0-7.91-8.747 2.37 2.37 0 0 0-1.307-2.614 34 34 0 0 0-.056-1.547 32 32 0 0 1 1.411-.031 31.6 31.6 0 0 1 14.228 3.356 22 22 0 0 0-.788-1.868 33 33 0 0 0-13.44-2.84q-.763 0-1.519.034A33 33 0 0 0 23.83.11q-.75-.076-1.514-.1c1.317 2.98 2.19 6.2 2.534 9.577a33 33 0 0 0-5.172.86 33 33 0 0 0-7.611-2.013 2.37 2.37 0 0 0-.835-1.194A32 32 0 0 1 15.837.785a22 22 0 0 0-2.531.876A33 33 0 0 0 9.95 6.765a2.37 2.37 0 0 0-2.287 1.348 34 34 0 0 0-3.011.115q-.562.71-1.064 1.467a32 32 0 0 1 3.847-.23h.024c.075.521.32.988.676 1.342a33 33 0 0 0-1.655 6.36A33.3 33.3 0 0 0 .188 24.16l-.047-.046q.127 1.106.36 2.174a33.2 33.2 0 0 0 6.69 4.547 33 33 0 0 0 3.599 8.501q-.404.268-.815.523.638.409 1.304.773l.23-.15.282.421a22 22 0 0 0 2.46 1.071 32 32 0 0 1-1.63-2.262 33.3 33.3 0 0 0 4.779-4.204 2.367 2.367 0 0 0 3.347-1.067 34 34 0 0 0 3.193-.003q.146-.7.36-1.374a32 32 0 0 1-3.37.032 2.36 2.36 0 0 0-.578-1.213 32.94 32.94 0 0 0 5.784-15.116 2.4 2.4 0 0 0 .883-.553 32 32 0 0 1 7.118 7.791q.707-.163 1.442-.25M12.071 9.8a2.367 2.367 0 0 1-2.73 1.648 31.5 31.5 0 0 0-1.26 4.462 33 33 0 0 1 9.386-4.83 31.6 31.6 0 0 0-5.396-1.28M1.192 25.094a32 32 0 0 1 5.038-5.91 33.5 33.5 0 0 0 .546 9.894 32 32 0 0 1-5.585-3.984m6.55-7.215a31.7 31.7 0 0 1 11.84-6.01q1.855.768 3.585 1.757a2.367 2.367 0 0 0 1.6 3.203 31.6 31.6 0 0 1-5.571 14.348 2.37 2.37 0 0 0-2.799 1.4 31.5 31.5 0 0 1-8.047-2.673 32 32 0 0 1-.914-7.594q.002-2.258.307-4.43m8.529 16.05a33 33 0 0 1-7.45-2.312 31.6 31.6 0 0 0 3.082 6.947 32 32 0 0 0 4.57-4.044 2.4 2.4 0 0 1-.202-.59m5.51-22.558q1.155.556 2.257 1.196c.286-.191.615-.321.97-.373a32 32 0 0 0-.05-1.259 32 32 0 0 0-3.178.436" clip-rule="evenodd"/>
  <path fill="#fff" d="M37.184 26.366C43.157 26.366 48 31.21 48 37.184S43.157 48 37.184 48s-10.817-4.843-10.818-10.816 4.844-10.818 10.818-10.818m0 3.719c-.99 0-1.938.398-2.634 1.102a3.77 3.77 0 0 0-1.085 2.649v2.67h-.338c-.747 0-1.353.607-1.353 1.353v4.056c0 .747.606 1.353 1.353 1.353h8.112c.747 0 1.353-.606 1.353-1.353v-4.056c0-.746-.606-1.352-1.353-1.352h-.338v-2.671c0-.991-.389-1.944-1.085-2.648a3.7 3.7 0 0 0-2.632-1.103m0 2.027c.444 0 .872.18 1.19.501.318.322.499.762.499 1.223v2.67h-3.38v-2.67c0-.46.181-.9.5-1.223a1.68 1.68 0 0 1 1.19-.5M51.72 29.07c.2 0 .401.082.555.24a.83.83 0 0 1 0 1.148l-1.577 1.622a.774.774 0 0 1-1.115 0 .83.83 0 0 1 0-1.148l1.577-1.622a.78.78 0 0 1 .555-.24zm-.79 7.3h2.366c.434 0 .789.366.789.812a.8.8 0 0 1-.789.811h-2.365a.8.8 0 0 1-.788-.811c0-.446.354-.811.788-.811m-1.341 5.918a.78.78 0 0 1 .557-.24h.004c.2 0 .402.081.555.24l1.577 1.622a.83.83 0 0 1 0 1.148.774.774 0 0 1-1.115 0l-1.577-1.623a.83.83 0 0 1 0-1.147"/>
</svg>
