<svg xmlns="http://www.w3.org/2000/svg" width="225" height="84" fill="none" viewBox="0 0 225 84">
  <rect width="223.5" height="34.5" x=".75" y="24.75" fill="#EEE" rx="11.25"/>
  <rect width="223.5" height="34.5" x=".75" y="24.75" stroke="#CCC" stroke-width="1.5" rx="11.25"/>
  <path fill="#888" d="M20.104 36.023a.562.562 0 1 0-.796-.795l-5.259 5.259a1.875 1.875 0 0 0 0 2.651l5.26 5.26a.562.562 0 1 0 .795-.796l-5.227-5.227h13.061a.562.562 0 1 0 0-1.125H14.877l5.227-5.227Zm47.543 0a.562.562 0 1 1 .795-.795l5.26 5.259a1.876 1.876 0 0 1 0 2.651l-5.26 5.26a.562.562 0 1 1-.796-.796l5.228-5.227H59.813a.562.562 0 1 1 0-1.125h13.06l-5.226-5.227Z"/>
  <g clip-path="url(#a)">
    <path fill="#888" d="M163.875 39a2.625 2.625 0 0 0-2.625-2.625h-6A2.625 2.625 0 0 0 152.625 39v6a2.625 2.625 0 0 0 2.625 2.625h6A2.625 2.625 0 0 0 163.875 45v-6ZM165 45a3.75 3.75 0 0 1-3.75 3.75h-6A3.75 3.75 0 0 1 151.5 45v-6a3.75 3.75 0 0 1 3.75-3.75h6A3.75 3.75 0 0 1 165 39v6Z"/>
    <path fill="#888" d="M158.162 38.514c.34 0 .643.069.91.206.266.135.492.334.677.598.187.264.329.592.426.985.099.39.149.839.149 1.349v.066c0 .723-.086 1.335-.259 1.836-.173.501-.42.882-.743 1.143-.322.258-.71.387-1.164.387a2.01 2.01 0 0 1-.919-.202 1.764 1.764 0 0 1-.655-.58 2.12 2.12 0 0 1-.325-.888l-.017-.123h1.169l.017.092c.032.146.082.274.15.382a.745.745 0 0 0 .25.246.69.69 0 0 0 .343.084.67.67 0 0 0 .518-.233c.141-.158.251-.385.33-.681a4.85 4.85 0 0 0 .141-1.064 8.617 8.617 0 0 0 .013-.355l-.176-1.073a1.68 1.68 0 0 0-.105-.615.942.942 0 0 0-.29-.422.66.66 0 0 0-.427-.15.674.674 0 0 0-.43.15 1.02 1.02 0 0 0-.295.418 1.65 1.65 0 0 0-.105.615v.009c0 .237.035.445.105.624a.997.997 0 0 0 .29.413.695.695 0 0 0 .435.145.66.66 0 0 0 .427-.15.946.946 0 0 0 .29-.413c.07-.178.105-.384.105-.615v-.145h.255v1.384h-.132a1.411 1.411 0 0 1-.281.435 1.42 1.42 0 0 1-.448.312 1.46 1.46 0 0 1-.594.115c-.337 0-.63-.087-.879-.26a1.7 1.7 0 0 1-.575-.725 2.668 2.668 0 0 1-.202-1.072v-.009c0-.445.085-.833.255-1.164.169-.334.405-.594.707-.778a2.005 2.005 0 0 1 1.059-.277Z"/>
  </g>
  <path fill="#888" d="M197.25 36.938c0-.311.252-.563.562-.563h12.376a.562.562 0 0 1 0 1.125h-12.376a.562.562 0 0 1-.562-.563Zm0 4.875c0-.311.252-.563.562-.563h12.376a.562.562 0 0 1 0 1.125h-12.376a.562.562 0 0 1-.562-.563Zm.562 4.312a.562.562 0 0 0 0 1.125h12.376a.562.562 0 0 0 0-1.125h-12.376Z"/>
  <rect width="40.5" height="40.5" x="92.75" y="21.75" fill="#CCDAFF" stroke="#3969EF" stroke-width="1.5" rx="20.25"/>
  <path fill="#3969EF" d="M111.555 34.527a.562.562 0 0 1 .476.063c.77.496 1.166 1.193 1.413 1.894.122.346.211.702.289 1.038.081.345.148.659.234.967l.007.024c.024.07.095.234.233.381.143.153.363.297.734.297.348 0 .551-.11.677-.221a.997.997 0 0 0 .259-.37l.013-.034c.029-.09.061-.248.098-.45.018-.094.039-.207.061-.292a.86.86 0 0 1 .072-.193.573.573 0 0 1 .862-.193l.026.02.046.042c.369.337 2.695 2.604 2.695 6.358l-.001.11c-.054 2.31-1.775 4.177-4.014 5.01a.563.563 0 0 1-.616-.902c.363-.408.568-.949.592-1.547l.002-.12c0-.532-.333-1.153-.956-1.88-.509-.595-1.132-1.176-1.758-1.77-.631.591-1.248 1.144-1.759 1.73-.615.703-.953 1.325-.953 1.92l.002.12c.024.598.229 1.139.592 1.547l.03.037a.562.562 0 0 1-.646.864c-2.239-.832-3.96-2.7-4.014-5.009l-.001-.11c0-2.08.928-3.383 1.975-4.628 1.048-1.246 2.201-2.428 2.979-4.376l.012-.029a.563.563 0 0 1 .339-.298Z"/>
  <defs>
    <clipPath id="a">
      <path fill="#fff" d="M149.25 33h18v18h-18z"/>
    </clipPath>
  </defs>
</svg>
