<svg xmlns="http://www.w3.org/2000/svg" width="50" height="50" fill="none"><path fill="#FFD65C" fill-rule="evenodd" d="M20.375 29.344c0-.708.574-1.282 1.281-1.282h1.922c.708 0 1.281.574 1.281 1.282v15.375c0 .707-.573 1.281-1.28 1.281h-1.923a1.281 1.281 0 0 1-1.281-1.281V29.344Zm5.766 0c0-.708.573-1.282 1.28-1.282h1.923c.707 0 1.281.574 1.281 1.282v15.375c0 .707-.574 1.281-1.281 1.281h-1.922a1.281 1.281 0 0 1-1.281-1.281V29.344Zm7.047-1.282c-.708 0-1.282.574-1.282 1.282v15.375c0 .707.574 1.281 1.282 1.281h1.921c.708 0 1.282-.574 1.282-1.281V29.344c0-.708-.574-1.282-1.282-1.282h-1.922Z" clip-rule="evenodd"/><path fill="#FFE8A3" fill-rule="evenodd" d="M8.844 29.344c0-.708.573-1.282 1.281-1.282h1.922c.707 0 1.281.574 1.281 1.282v15.375c0 .707-.573 1.281-1.281 1.281h-1.922a1.281 1.281 0 0 1-1.281-1.281V29.344Zm5.765 0c0-.708.574-1.282 1.282-1.282h1.921c.708 0 1.282.574 1.282 1.282v15.375c0 .707-.574 1.281-1.282 1.281h-1.921a1.281 1.281 0 0 1-1.282-1.281V29.344Zm24.344-1.282c-.708 0-1.281.574-1.281 1.282v15.375c0 .707.574 1.281 1.281 1.281h1.922c.708 0 1.281-.574 1.281-1.281V29.344c0-.708-.573-1.282-1.281-1.282h-1.922Z" clip-rule="evenodd"/><path fill="url(#a)" fill-rule="evenodd" d="M13.328 36.39H8.844v3.204h4.484V36.39Zm23.063 0h-4.485v3.204h4.485V36.39Zm1.28 0h4.485v3.204h-4.484V36.39Zm-18.577 0h-4.485v3.204h4.485V36.39Zm1.281 0h4.484v3.204h-4.484V36.39Zm10.25 0h-4.484v3.204h4.484V36.39Z" clip-rule="evenodd" opacity=".5"/><mask id="b" width="41" height="16" x="5" y="24" maskUnits="userSpaceOnUse" style="mask-type:alpha"><path fill="#7295F6" d="M5 31.906v-2.972a4.715 4.715 0 0 1 4.715-4.715h31.57A4.715 4.715 0 0 1 46 28.934v5.945a4.715 4.715 0 0 1-4.715 4.715H9.715A4.715 4.715 0 0 1 5 34.879v-2.973Z"/></mask><g mask="url(#b)"><path fill="#A591DC" d="M5 24.219h41v15.375H5V24.219Z"/><path fill="#6B4EBA" d="M5 35.75a3.844 3.844 0 0 0 3.844 3.844h33.312A3.844 3.844 0 0 0 46 35.75v-1.589a2.255 2.255 0 0 0-2.255-2.255H7.255A2.255 2.255 0 0 0 5 34.161v1.589Z"/></g><path fill="#6B4EBA" d="M6.281 28.063c0-.708.574-1.282 1.282-1.282h35.874c.708 0 1.282.574 1.282 1.282v.64c0 .708-.574 1.281-1.282 1.281H7.563a1.281 1.281 0 0 1-1.282-1.28v-.642Z"/><path fill="#FFE8A3" d="M8.844 10.125A5.125 5.125 0 0 1 13.969 5H37.03a5.125 5.125 0 0 1 5.125 5.125v19.86H8.844v-19.86Z"/><path fill="#FFD65C" d="M8.844 10.125A5.125 5.125 0 0 1 13.969 5H37.03a5.125 5.125 0 0 1 5.125 5.125v7.047H8.844v-7.047Z"/><path fill="#C18010" d="M24.219 15.25a6.406 6.406 0 1 1-12.813 0 6.406 6.406 0 0 1 12.813 0Z"/><path fill="#E2A412" d="M22.628 19.476a6.406 6.406 0 1 0-9.63 0 5.207 5.207 0 0 1 9.63 0Z"/><path fill="#C18010" d="M20.415 13.648a2.603 2.603 0 1 1-5.205 0 2.603 2.603 0 0 1 5.205 0Z"/><path fill="#ADC2FC" d="M43.438 35.11a1.281 1.281 0 1 1-2.563 0 1.281 1.281 0 0 1 2.563 0ZM38.953 35.11a1.281 1.281 0 1 1-2.562 0 1.281 1.281 0 0 1 2.562 0Z"/><path fill="#FFD65C" d="M20.375 24.86c0-1.062.86-1.922 1.922-1.922h12.172c1.061 0 1.922.86 1.922 1.921v5.125H20.375V24.86Z"/><path fill="url(#c)" d="M8.844 28.703h33.312v1.281H8.844v-1.28Z" opacity=".2"/><defs><linearGradient id="a" x1="25.5" x2="25.5" y1="39.594" y2="36.391" gradientUnits="userSpaceOnUse"><stop stop-opacity="0"/><stop offset=".809" stop-opacity=".63"/></linearGradient><linearGradient id="c" x1="25.5" x2="25.5" y1="28.703" y2="29.984" gradientUnits="userSpaceOnUse"><stop stop-opacity="0"/><stop offset="1"/></linearGradient></defs></svg>