<svg fill="none" viewBox="0 0 24 24" xmlns="http://www.w3.org/2000/svg">
  <path fill="#ffd65c" d="M15 2.625a6.375 6.375 0 0 1 5.658 9.309 6.25 6.25 0 0 0-9.908 5.048l-1.01 1.024a1.25 1.25 0 0 1-.885.369H7.87a.745.745 0 0 0-.745.745v.765a1.49 1.49 0 0 1-1.49 1.49H4.612a1.987 1.987 0 0 1-1.987-1.987v-.533c0-.788.312-1.544.868-2.102l5.075-5.1c.273-.274.356-.68.26-1.054A6.375 6.375 0 0 1 15 2.625m.5 4.042a1.833 1.833 0 1 0 0 3.666 1.833 1.833 0 0 0 0-3.666"/>
  <path fill="url(#Key-Color-24-1_svg__a)" d="M15.09 2.001a7 7 0 0 1 6.066 10.333 6.3 6.3 0 0 0-1.024-.742 5.75 5.75 0 0 0-5.058-8.34L15 3.249A5.75 5.75 0 0 0 9.25 9l.001.094q.012.7.182 1.35c.142.553.03 1.197-.421 1.65l-5.075 5.1a2.36 2.36 0 0 0-.687 1.662v.532l.002.07c.037.72.631 1.292 1.36 1.292h1.023c.463 0 .84-.363.864-.82l.001-.045v-.765c0-.757.613-1.37 1.37-1.37h.986l.03-.001a.62.62 0 0 0 .386-.161l.023-.022 1.533-1.553a6.3 6.3 0 0 0-.023 1.803l-.62.63c-.34.343-.8.541-1.283.553L8.856 19H7.87a.12.12 0 0 0-.12.12v.765l-.001.054A2.115 2.115 0 0 1 5.635 22H4.612a2.61 2.61 0 0 1-2.611-2.545L2 19.388v-.533a3.6 3.6 0 0 1 1.05-2.544l5.076-5.098c.093-.094.147-.262.097-.457l-.028-.107A7 7 0 0 1 15 2zm.41 4.041a2.458 2.458 0 0 1 .925 4.735q-.52.047-1.013.176a2.455 2.455 0 0 1-2.37-2.453c0-1.358 1.1-2.458 2.458-2.458m0 1.25a1.208 1.208 0 1 0 0 2.416 1.208 1.208 0 0 0 0-2.416"/>
  <circle cx="17" cy="17" r="5" fill="#4cba3c"/>
  <path fill="url(#Key-Color-24-1_svg__b)" fill-rule="evenodd" d="M17 12a5 5 0 1 1 0 10 5 5 0 0 1 0-10m0 1.25a3.75 3.75 0 1 0 0 7.5 3.75 3.75 0 0 0 0-7.5" clip-rule="evenodd"/>
  <path fill="#fff" d="M18.433 15.464a.625.625 0 1 1 .884.884l-2.344 2.344a.625.625 0 0 1-.884 0l-1.406-1.406a.625.625 0 0 1 .86-.906l.024.022.964.964z"/>
  <defs>
    <linearGradient id="Key-Color-24-1_svg__a" x1="12" x2="12" y1="2.75" y2="21.25" gradientUnits="userSpaceOnUse">
      <stop stop-color="#e2a412"/>
      <stop offset="1" stop-color="#c18010"/>
    </linearGradient>
    <linearGradient id="Key-Color-24-1_svg__b" x1="17" x2="17" y1="12" y2="22" gradientUnits="userSpaceOnUse">
      <stop stop-color="#4cba3c"/>
      <stop offset="1" stop-color="#288419"/>
    </linearGradient>
  </defs>
</svg>
