<svg width="96" height="72" viewBox="0 0 96 72" fill="none" xmlns="http://www.w3.org/2000/svg">
<path opacity="0.2" d="M79.2214 28.65L80.3786 28.35C80.5929 28.3071 80.8072 28.0929 80.85 27.8786L81.15 26.7214C81.2357 26.4214 81.4929 26.25 81.75 26.25C82.05 26.25 82.3072 26.4643 82.35 26.7214L82.65 27.8786C82.6928 28.0929 82.9071 28.3071 83.1214 28.35L84.2786 28.65C84.5786 28.7357 84.75 28.9929 84.75 29.25C84.75 29.55 84.5357 29.8071 84.2786 29.85L83.1214 30.15C82.9071 30.1929 82.6928 30.4071 82.65 30.6214L82.35 31.7786C82.2643 32.0786 82.0071 32.25 81.75 32.25C81.45 32.25 81.1928 32.0357 81.15 31.7786L80.85 30.6214C80.8072 30.4071 80.5929 30.1929 80.3786 30.15L79.2214 29.85C78.9214 29.7643 78.75 29.5071 78.75 29.25C78.75 28.95 78.9643 28.6929 79.2214 28.65Z" fill="#888888"/>
<path opacity="0.2" d="M11.9571 23.85L13.6928 23.4C14.0143 23.3357 14.3357 23.0143 14.4 22.6929L14.85 20.9571C14.9786 20.5071 15.3643 20.25 15.75 20.25C16.2 20.25 16.5857 20.5714 16.65 20.9571L17.1 22.6929C17.1643 23.0143 17.4857 23.3357 17.8072 23.4L19.5429 23.85C19.9929 23.9786 20.25 24.3643 20.25 24.75C20.25 25.2 19.9286 25.5857 19.5429 25.65L17.8072 26.1C17.4857 26.1643 17.1643 26.4857 17.1 26.8071L16.65 28.5429C16.5214 28.9929 16.1357 29.25 15.75 29.25C15.3 29.25 14.9143 28.9286 14.85 28.5429L14.4 26.8071C14.3357 26.4857 14.0143 26.1643 13.6928 26.1L11.9571 25.65C11.5071 25.5214 11.25 25.1357 11.25 24.75C11.25 24.3 11.5714 23.9143 11.9571 23.85Z" fill="#888888"/>
<path opacity="0.2" d="M0.471418 39.9L1.62857 39.6C1.84285 39.5571 2.05715 39.3429 2.10001 39.1286L2.39999 37.9714C2.4857 37.6714 2.74286 37.5 3 37.5C3.3 37.5 3.55715 37.7143 3.60001 37.9714L3.89999 39.1286C3.94285 39.3429 4.15715 39.5571 4.37143 39.6L5.52858 39.9C5.82858 39.9857 6 40.2429 6 40.5C6 40.8 5.78572 41.0571 5.52858 41.1L4.37143 41.4C4.15715 41.4429 3.94285 41.6571 3.89999 41.8714L3.60001 43.0286C3.5143 43.3286 3.25714 43.5 3 43.5C2.7 43.5 2.44285 43.2857 2.39999 43.0286L2.10001 41.8714C2.05715 41.6571 1.84285 41.4429 1.62857 41.4L0.471418 41.1C0.171418 41.0143 0 40.7571 0 40.5C0 40.2 0.214275 39.9429 0.471418 39.9Z" fill="#888888"/>
<path opacity="0.2" d="M94.875 39C94.2562 39 93.75 38.4937 93.75 37.875C93.75 37.2562 94.2562 36.75 94.875 36.75C95.4937 36.75 96 37.2562 96 37.875C96 38.4937 95.4937 39 94.875 39Z" fill="#888888"/>
<path opacity="0.2" d="M17.25 52.5C16.425 52.5 15.75 51.825 15.75 51C15.75 50.175 16.425 49.5 17.25 49.5C18.075 49.5 18.75 50.175 18.75 51C18.75 51.825 18.075 52.5 17.25 52.5Z" fill="#888888"/>
<path fill-rule="evenodd" clip-rule="evenodd" d="M57.375 30H38.625V19.5C38.625 16.1863 41.3113 13.5 44.625 13.5H51.375C54.6887 13.5 57.375 16.1863 57.375 19.5V30ZM44.625 17.25C43.3824 17.25 42.375 18.2574 42.375 19.5V26.25H53.625V19.5C53.625 18.2574 52.6176 17.25 51.375 17.25H44.625Z" fill="#888888"/>
<path d="M64.5 37.5C56.2157 37.5 49.5 44.2157 49.5 52.5C49.5 54.5711 47.8211 56.25 45.75 56.25H34.5C31.1863 56.25 28.5 53.5637 28.5 50.25V27C28.5 23.6863 31.1863 21 34.5 21H66C69.3137 21 72 23.6863 72 27V34.5C72 36.1569 70.6569 37.5 69 37.5H64.5Z" fill="#C18010"/>
<path d="M64.5 37.5C56.2157 37.5 49.5 44.2157 49.5 52.5V53.25C49.5 54.9069 48.1569 56.25 46.5 56.25H30C26.6863 56.25 24 53.5637 24 50.25V27C24 23.6863 26.6863 21 30 21H61.5C64.8137 21 67.5 23.6863 67.5 27V37.5H64.5Z" fill="#E2A412"/>
<path fill-rule="evenodd" clip-rule="evenodd" d="M43.7937 42.1394C44.8699 42.7608 46.2459 42.392 46.8673 41.3159L50.9923 34.1712C51.6136 33.095 51.2449 31.7189 50.1687 31.0976L40.4259 25.4726C38.2736 24.23 35.5214 24.9674 34.2788 27.1197L32.4038 30.3673C31.1612 32.5196 31.8986 35.2718 34.0509 36.5144L43.7937 42.1394ZM36.6144 29.0578C36.0286 28.472 35.0789 28.472 34.4931 29.0578C33.9073 29.6436 33.9073 30.5933 34.4931 31.1791C35.0789 31.7649 36.0286 31.7649 36.6144 31.1791C37.2002 30.5933 37.2002 29.6436 36.6144 29.0578Z" fill="#FFE8A3"/>
<path d="M31.5 21H35.25V56.25H31.5V21Z" fill="#F9BE1A"/>
<path d="M60 21H56.25V39.9705C57.3993 39.2123 58.6591 38.6079 60 38.1867V21Z" fill="#F9BE1A"/>
<path d="M64.5 64.5C71.1274 64.5 76.5 59.1274 76.5 52.5C76.5 45.8726 71.1274 40.5 64.5 40.5C57.8726 40.5 52.5 45.8726 52.5 52.5C52.5 59.1274 57.8726 64.5 64.5 64.5Z" fill="#557FF3"/>
<path fill-rule="evenodd" clip-rule="evenodd" d="M66 45.75C66.4142 45.75 66.75 46.0858 66.75 46.5V53.2333C66.75 53.5453 67.1089 53.7209 67.3552 53.5293L69.5225 51.8436C69.8535 51.5861 70.3313 51.6501 70.583 51.9856L71.9328 53.7853C72.1782 54.1126 72.1161 54.5763 71.7931 54.8274L65.5897 59.6508C64.9378 60.1164 64.062 60.1164 63.4101 59.6508L57.2069 54.8274C56.8839 54.5763 56.8218 54.1127 57.0672 53.7854L58.417 51.9856C58.6687 51.6501 59.1465 51.5861 59.4775 51.8436L61.6448 53.5293C61.8911 53.7209 62.25 53.5453 62.25 53.2333V46.5C62.25 46.0858 62.5858 45.75 63 45.75H66Z" fill="white"/>
<path d="M80.6261 43.5C80.8492 43.5 81.0722 43.59 81.2427 43.7655C81.5838 44.1164 81.5838 44.6878 81.2427 45.0387L79.4934 46.8384C79.1523 47.1894 78.5969 47.1894 78.2558 46.8384C77.9147 46.4875 77.9147 45.9161 78.2558 45.5651L80.0051 43.7655C80.1757 43.59 80.3987 43.5 80.6217 43.5H80.6261Z" fill="#CCCCCC"/>
<path d="M79.7514 51.5987H82.3754C82.8564 51.5987 83.25 52.0036 83.25 52.4985C83.25 52.9934 82.8564 53.3984 82.3754 53.3984H79.7514C79.2704 53.3984 78.8768 52.9934 78.8768 52.4985C78.8768 52.0036 79.2704 51.5987 79.7514 51.5987Z" fill="#CCCCCC"/>
<path d="M78.2647 58.1638C78.4353 57.9883 78.6583 57.8984 78.8814 57.8984H78.8857C79.1088 57.8984 79.3318 57.9883 79.5023 58.1638L81.2516 59.9635C81.5927 60.3145 81.5927 60.8859 81.2516 61.2368C80.9105 61.5877 80.3551 61.5877 80.014 61.2368L78.2647 59.4371C77.9236 59.0862 77.9236 58.5148 78.2647 58.1638Z" fill="#CCCCCC"/>
</svg>
