<svg fill="none" viewBox="0 0 24 24" xmlns="http://www.w3.org/2000/svg">
  <path fill="#000" fill-rule="evenodd" d="M9.28 3.13a3.875 3.875 0 0 1 5.442 0l7.046 6.951a.75.75 0 0 1-.827 1.22v5.73A4.97 4.97 0 0 1 15.972 22H8.028a4.97 4.97 0 0 1-4.968-4.97V11.3a.75.75 0 0 1-.828-1.22zm4.388 1.068a2.375 2.375 0 0 0-3.335 0L4.56 9.892v7.14A3.47 3.47 0 0 0 8.028 20.5h.293a2.3 2.3 0 0 1-.129-.75v-6.989a2.25 2.25 0 0 1 2.25-2.25h3.116a2.25 2.25 0 0 1 2.25 2.25v6.99q-.002.395-.128.749h.292a3.47 3.47 0 0 0 3.469-3.469V9.892zm-3.226 7.813a.75.75 0 0 0-.75.75v6.99c0 .41.33.744.74.749h3.134a.75.75 0 0 0 .742-.75v-6.989a.75.75 0 0 0-.75-.75z" clip-rule="evenodd"/>
</svg>
