<svg width="55" height="48" viewBox="0 0 55 48" fill="none" xmlns="http://www.w3.org/2000/svg">
<path d="M37.1831 23.662C37.1831 23.662 37.1831 23.662 37.1831 23.662H41.3254C41.3255 23.662 41.3254 23.662 41.3254 23.662H37.1831Z" fill="white" fill-opacity="0.42"/>
<path fill-rule="evenodd" clip-rule="evenodd" d="M33.804 24.0877C27.9716 25.5882 23.662 30.8824 23.662 37.1831V41.3254C23.662 42.3728 22.8639 43.2582 21.8165 43.2668C21.7557 43.2674 21.6948 43.2676 21.6338 43.2676C9.68578 43.2676 0 33.5818 0 21.6338C0 9.68578 9.68578 0 21.6338 0C26.7451 0 31.4424 1.7726 35.1446 4.7366C35.5936 6.69097 35.8308 8.72621 35.8308 10.8169C35.8308 15.8876 34.4352 20.6324 32.007 24.6881C32.5868 24.4476 33.1868 24.2464 33.804 24.0877ZM23.662 37.1831C23.662 35.702 23.9 34.2764 24.3401 32.9427C19.9413 36.0402 14.5774 37.8591 8.78858 37.8591C8.28137 37.8591 7.77742 37.8451 7.2771 37.8176C11.0965 41.2083 16.1248 43.2676 21.6338 43.2676C21.6948 43.2676 21.7557 43.2674 21.8165 43.2668C22.8639 43.2582 23.662 42.3728 23.662 41.3254V37.1831Z" fill="white" fill-opacity="0.42"/>
<path d="M43.2676 21.6338C43.2676 21.6637 43.2675 21.6936 43.2674 21.7235C43.2673 21.7545 43.2671 21.7855 43.2668 21.8165C43.2674 21.7556 43.2676 21.6948 43.2676 21.6338Z" fill="white" fill-opacity="0.42"/>
<path d="M24.3401 32.9428C23.9 34.2765 23.6619 35.702 23.6619 37.1831V41.3253C23.6619 42.3727 22.8638 43.2581 21.8164 43.2668C21.7556 43.2673 21.6947 43.2675 21.6337 43.2675C16.1246 43.2675 11.0965 41.2083 7.2771 37.8176C7.77742 37.8452 8.28137 37.8592 8.78858 37.8592C14.5774 37.8592 19.9413 36.0403 24.3401 32.9428Z" fill="white" fill-opacity="0.32"/>
<path d="M32.007 24.6881C34.4352 20.6325 35.8308 15.8877 35.8308 10.8169C35.8308 8.72624 35.5936 6.69097 35.1445 4.73657C40.0963 8.70109 43.2675 14.7971 43.2675 21.6337C43.2675 21.6947 43.2672 21.7557 43.2667 21.8166C43.2581 22.8639 42.3727 23.662 41.3253 23.662H37.183C35.3496 23.662 33.6013 24.0269 32.007 24.6881Z" fill="white" fill-opacity="0.32"/>
<path fill-rule="evenodd" clip-rule="evenodd" d="M35.5792 23.756C33.4828 20.3887 30.7989 17.425 27.6708 15.0085C27.7019 14.8556 27.7182 14.6973 27.7182 14.5352C27.7182 13.5901 27.1641 12.7744 26.3631 12.3953C26.3562 11.8764 26.3373 11.3605 26.3068 10.8476C26.7747 10.8272 27.2452 10.8169 27.7182 10.8169C32.8332 10.8169 37.666 12.0255 41.9464 14.1728C41.7123 13.5354 41.449 12.9122 41.1581 12.3046C37.0506 10.4791 32.5029 9.46475 27.7182 9.46475C27.2091 9.46475 26.7027 9.47624 26.1992 9.49896C25.8686 6.20292 25.0548 3.04933 23.8297 0.110056C23.3297 0.0596477 22.8247 0.0262657 22.3152 0.010498C23.6325 2.99028 24.5051 6.21058 24.849 9.58728C23.0817 9.73891 21.354 10.0293 19.6768 10.4475C17.2661 9.48836 14.7162 8.80413 12.0657 8.43352C11.9185 7.95246 11.6222 7.53656 11.2306 7.23976C12.4958 4.89558 14.047 2.72848 15.8374 0.78521C14.9704 1.02574 14.1253 1.3189 13.3057 1.66104C12.0377 3.24967 10.9129 4.95752 9.9506 6.76508C9.90168 6.76207 9.85236 6.76053 9.80268 6.76053C8.85847 6.76053 8.04343 7.31357 7.66383 8.1134C7.5881 8.1129 7.51232 8.11264 7.43648 8.11264C6.49905 8.11264 5.57071 8.15158 4.653 8.22793C4.27868 8.70142 3.92374 9.19093 3.58938 9.69528C4.85048 9.54308 6.13434 9.46475 7.43648 9.46475L7.46044 9.46476C7.53503 9.98616 7.77958 10.4527 8.13618 10.8065C7.38317 12.8399 6.82405 14.9674 6.48125 17.1666C4.06749 19.1849 1.94548 21.5405 0.187711 24.161L0.140625 24.1152C0.224709 24.8515 0.345765 25.5766 0.501879 26.2886C2.52885 28.0627 4.77404 29.5937 7.19191 30.8359C7.99548 33.8615 9.21652 36.7171 10.7896 39.3372C10.5209 39.5156 10.2492 39.69 9.97482 39.8604C10.3998 40.1327 10.8348 40.3907 11.2794 40.6334C11.3563 40.5834 11.4329 40.5331 11.5094 40.4824C11.6023 40.6237 11.6962 40.7643 11.7912 40.9041C12.5843 41.31 13.4056 41.6683 14.2516 41.9754C13.6764 41.2463 13.1324 40.4913 12.6217 39.7126C14.3465 38.4661 15.9466 37.0576 17.3996 35.5093C17.7496 35.7138 18.1568 35.831 18.5914 35.831C19.5495 35.831 20.3746 35.2615 20.7467 34.4426C21.2647 34.4667 21.7858 34.4788 22.3097 34.4788C22.8565 34.4788 23.4001 34.4656 23.9403 34.4394C24.0366 33.9721 24.1571 33.5137 24.3002 33.0654C23.6419 33.1061 22.9782 33.1267 22.3097 33.1267C21.8472 33.1267 21.387 33.1168 20.9292 33.0973C20.8571 32.6348 20.651 32.2166 20.3519 31.8837C23.4313 27.5065 25.4776 22.3499 26.1362 16.7683C26.4713 16.6506 26.772 16.4596 27.0189 16.2145C29.8015 18.395 32.2112 21.0295 34.1366 24.0065C34.6085 23.8978 35.0898 23.8139 35.5792 23.756ZM12.0716 9.8004C11.7815 10.779 10.8754 11.4929 9.80268 11.4929C9.64485 11.4929 9.49062 11.4775 9.34144 11.448C8.81715 12.8894 8.39423 14.3795 8.0813 15.9097C10.902 13.8303 14.0643 12.1874 17.4685 11.0809C15.7313 10.5033 13.9275 10.0716 12.0716 9.8004ZM1.19129 25.0936C2.62618 22.9227 4.32043 20.9383 6.22987 19.1844C6.13359 20.2133 6.08437 21.2558 6.08437 22.3098C6.08437 24.6291 6.32271 26.8927 6.77624 29.0775C4.76981 27.951 2.8981 26.6129 1.19129 25.0936ZM7.74288 17.8795C11.1721 15.1041 15.1905 13.0281 19.5813 11.8683C20.8178 12.3802 22.0149 12.9678 23.167 13.6255C23.0502 13.9056 22.9858 14.2128 22.9858 14.5352C22.9858 15.64 23.7429 16.5679 24.7667 16.8284C24.1039 22.1272 22.1365 27.0205 19.196 31.1765C19.003 31.1256 18.8004 31.0986 18.5914 31.0986C17.5983 31.0986 16.7481 31.7104 16.3971 32.5776C13.564 32.0445 10.8635 31.1352 8.34965 29.9038C7.75293 27.4705 7.43648 24.9271 7.43648 22.3098C7.43648 20.8064 7.5409 19.3273 7.74288 17.8795ZM16.2709 33.9297C13.6685 33.4504 11.1726 32.6669 8.82147 31.6175C9.57247 34.0725 10.6128 36.4012 11.9027 38.5637C13.5533 37.3638 15.0839 36.0089 16.4732 34.5204C16.3811 34.3359 16.3123 34.1377 16.2709 33.9297ZM21.7804 11.3707C22.5501 11.741 23.3032 12.1401 24.0384 12.5668C24.3237 12.376 24.6528 12.2456 25.0074 12.1939C24.9989 11.7722 24.9822 11.3526 24.9575 10.9351C23.8823 11.0277 22.8224 11.1738 21.7804 11.3707Z" fill="white" fill-opacity="0.54"/>
<path fill-rule="evenodd" clip-rule="evenodd" d="M48 37.1831C48 43.1571 43.1571 48 37.1831 48C31.2091 48 26.3662 43.1571 26.3662 37.1831C26.3662 31.2091 31.2091 26.3662 37.1831 26.3662C43.1571 26.3662 48 31.2091 48 37.1831ZM37.7273 32.1019C38.1565 32.2169 38.5242 32.5002 38.748 32.8934C38.9721 33.287 39.0332 33.7585 38.9139 34.2037L38.2967 36.5071H33.1268C32.38 36.5071 31.7747 37.1124 31.7747 37.8592V41.9155C31.7747 42.6623 32.38 43.2676 33.1268 43.2676H41.2394C41.9862 43.2676 42.5916 42.6623 42.5916 41.9155V37.8592C42.5916 37.1124 41.9862 36.5071 41.2394 36.5071H40.3964L40.873 34.7286C41.1295 33.7714 41.0005 32.7505 40.5106 31.8899C40.0204 31.0289 39.2087 30.3991 38.2523 30.1428C37.2959 29.8866 36.278 30.0261 35.4229 30.5267C34.5684 31.027 33.9462 31.8467 33.6898 32.8039L33.4358 33.7516L35.3949 34.2765L35.6488 33.3288C35.7681 32.8836 36.0567 32.5058 36.4476 32.277C36.838 32.0484 37.2982 31.9869 37.7273 32.1019Z" fill="white"/>
<path d="M51.7194 29.0704C51.9204 29.0704 52.1215 29.1515 52.2752 29.3097C52.5827 29.6261 52.5827 30.1411 52.2752 30.4575L50.6984 32.0797C50.3909 32.3961 49.8903 32.3961 49.5828 32.0797C49.2753 31.7634 49.2753 31.2483 49.5828 30.932L51.1596 29.3097C51.3133 29.1515 51.5144 29.0704 51.7154 29.0704H51.7194Z" fill="white"/>
<path d="M50.9309 36.3706H53.2962C53.7298 36.3706 54.0846 36.7356 54.0846 37.1818C54.0846 37.6279 53.7298 37.9929 53.2962 37.9929H50.9309C50.4973 37.9929 50.1425 37.6279 50.1425 37.1818C50.1425 36.7356 50.4973 36.3706 50.9309 36.3706Z" fill="white"/>
<path d="M49.5908 42.2885C49.7445 42.1303 49.9456 42.0492 50.1466 42.0492H50.1506C50.3516 42.0492 50.5527 42.1303 50.7064 42.2885L52.2832 43.9108C52.5907 44.2271 52.5907 44.7422 52.2832 45.0585C51.9757 45.3749 51.4751 45.3749 51.1676 45.0585L49.5908 43.4363C49.2833 43.1199 49.2833 42.6049 49.5908 42.2885Z" fill="white"/>
</svg>
