<svg fill="none" viewBox="0 0 71 64" xmlns="http://www.w3.org/2000/svg">
  <path fill="#e2a412" fill-rule="evenodd" d="M47.096 16.648c0 8.895-7.178 16.106-16.033 16.106-1.686 0-3.31-.262-4.837-.746l-2.678 2.69h-5.597v4.618c0 .497-.402.9-.897.9h-4.701v6.736a.9.9 0 0 1-.897.901H0V36.398l15.56-15.63a16.2 16.2 0 0 1-.53-4.12C15.03 7.753 22.21.542 31.064.542s16.033 7.21 16.033 16.106m-11.523.503c2.767 0 5.01-2.253 5.01-5.033s-2.243-5.033-5.01-5.033-5.01 2.253-5.01 5.033 2.243 5.033 5.01 5.033" clip-rule="evenodd"/>
  <path fill="#f9be1a" fill-rule="evenodd" d="M49.75 16.648c0 8.895-7.177 16.106-16.032 16.106-1.686 0-3.311-.262-4.838-.746l-2.677 2.69h-5.598v4.618c0 .497-.402.9-.897.9h-4.7v6.736a.9.9 0 0 1-.897.901H2.655V36.398l15.56-15.63a16.2 16.2 0 0 1-.53-4.12c0-8.895 7.178-16.106 16.033-16.106s16.033 7.21 16.033 16.106m-11.523.503c2.767 0 5.01-2.253 5.01-5.033s-2.243-5.033-5.01-5.033-5.01 2.253-5.01 5.033 2.243 5.033 5.01 5.033" clip-rule="evenodd"/>
  <path fill="#e2a412" fill-rule="evenodd" d="M46.168 31.88c5.526-3.933 7.932-11.255 5.406-17.905C48.581 6.093 39.794 2.14 31.95 5.148s-11.78 11.834-8.787 19.715a15.3 15.3 0 0 0 1.855 3.47L16.49 47.468l3.855 10.15h2.418a.9.9 0 0 0 .804-.502l5.154-10.46 2.665-1.021a17.6 17.6 0 0 1 1.237-3.664l-.8-2.106 2.664-1.02a17.8 17.8 0 0 1 3.472-3.518l.292-.655q.355-.021.712-.059a17.54 17.54 0 0 1 7.206-2.733m-1.89-19.707c.936 2.463-.293 5.221-2.745 6.16a4.745 4.745 0 0 1-6.133-2.758c-.935-2.463.294-5.221 2.746-6.16a4.745 4.745 0 0 1 6.133 2.758" clip-rule="evenodd"/>
  <path fill="#fc3" fill-rule="evenodd" d="M30.97 49.482v1.612a5 5 0 0 1-3.211 4.67l-4.838 1.853-3.855-10.15 8.528-19.133a15.3 15.3 0 0 1-1.855-3.47c-2.993-7.883.94-16.71 8.787-19.716 7.845-3.007 16.632.945 19.625 8.827 2.281 6.007.539 12.563-3.893 16.673-.787.73-1.853 1.033-2.922 1.13-9.024.824-16.366 8.327-16.366 17.704m15.886-37.31c.935 2.464-.294 5.222-2.746 6.162a4.745 4.745 0 0 1-6.133-2.759c-.935-2.463.294-5.221 2.746-6.16a4.745 4.745 0 0 1 6.133 2.758" clip-rule="evenodd"/>
  <path fill="#999" fill-rule="evenodd" d="M39.85 9.855c.767.819 1.979 1.404 3.508 1.404 2.709 0 4.424-1.839 4.424-3.555 0-1.609-1.507-3.326-3.926-3.535a16 16 0 0 0-4.507-2.606 8.75 8.75 0 0 1 4.009-.97c4.132 0 7.963 2.936 7.963 7.11s-3.831 7.112-7.963 7.112c-2.085 0-4.092-.747-5.57-2.023a4.78 4.78 0 0 1 2.063-2.937" clip-rule="evenodd"/>
  <path fill="url(#Passwords-Widget_svg__a)" fill-rule="evenodd" d="M46.897 14.07a8.8 8.8 0 0 1-3.54.745c-2.084 0-4.091-.747-5.57-2.023a4.78 4.78 0 0 1 2.064-2.937c.766.819 1.978 1.404 3.507 1.404 1.55 0 2.775-.602 3.539-1.439z" clip-rule="evenodd"/>
  <path fill="#ccc" d="M67.692 38.815c.263 0 .527.107.728.314a1.094 1.094 0 0 1 0 1.51l-2.064 2.133a1.01 1.01 0 0 1-1.46 0 1.094 1.094 0 0 1 0-1.51l2.064-2.133c.2-.207.464-.314.727-.314zm-1.032 9.598h3.096c.568 0 1.032.48 1.032 1.067 0 .586-.464 1.066-1.032 1.066H66.66c-.567 0-1.032-.48-1.032-1.066s.465-1.067 1.032-1.067m-1.754 7.781c.201-.208.465-.315.728-.315h.005c.263 0 .526.107.728.315l2.063 2.133a1.094 1.094 0 0 1 0 1.51 1.01 1.01 0 0 1-1.46 0l-2.064-2.134a1.094 1.094 0 0 1 0-1.509"/>
  <rect width="28.315" height="28.444" x="34.509" y="35.259" fill="#de5833" rx="14.158"/>
  <path fill="#fff" d="M52.042 49.006c-.087.055-.364.023-.73-.019-3.238-.572-3.553 1.284-1.993 4.11-1.413.423.254 4.516 1.613 7.59-1.487.528-4.222.414-5.488-.055l-.006-.02c-.278-.104-.623-.102-.784-.323-.435-3.007-6.508-17.357.911-18.297.047-.014-.958-.328-2.311.012-1.692.34 1.643-4.627 5.147-.272 3.807.836 4.08 6.993 3.641 7.273"/>
  <path fill="#4cba3c" d="M53.348 58.45c-.038.243-.122.406-.27.429-.284.043-1.547-.247-2.266-.522-.082.378-2.007.735-2.312.228-.699.607-2.038 1.487-2.318 1.303-.536-.353-1.04-3.068-.637-3.641.613-.56 1.902.049 2.806.37.306-.52 1.79-.717 2.098-.29.812-.62 2.167-1.494 2.299-1.335.658.797.742 2.695.599 3.458"/>
  <path fill="#fc3" fill-rule="evenodd" d="M46.48 50.254c.277-1.969 3.98-1.353 5.635-1.574a10.7 10.7 0 0 0 2.7-.672c1.369-.565 1.602-.004.932.876-1.89 2.252-6.095.613-6.848 1.777-.22.345-.05 1.157 1.68 1.413 2.337.345 4.256-.416 4.493.044-.533 2.458-9.406 1.621-8.593-1.863z" clip-rule="evenodd"/>
  <path fill="#14307e" d="M51.207 44.574c-.245-.533-1.504-.529-1.745-.02-.022.105.066.077.233.024.293-.092.83-.262 1.448.07.048.021.096-.03.064-.074m-6.153.128c-.234-.017-.613-.044-.927.13-.46.198-.609.41-.698.555-.033.054-.16.048-.16-.015.031-.848 1.463-1.257 1.983-.73.064.08-.03.072-.198.06m5.705 2.844c-.964-.005-.964-1.497 0-1.502.963.005.963 1.497 0 1.502m-4.882-.232c-.02 1.151-1.698 1.151-1.718 0 .006-1.145 1.712-1.145 1.718 0"/>
  <path fill="#fff" fill-rule="evenodd" d="M48.666 38.776c-5.885 0-10.657 4.793-10.657 10.705 0 5.913 4.772 10.706 10.657 10.706 5.886 0 10.658-4.793 10.658-10.706s-4.772-10.705-10.658-10.705M36.318 49.48c0-6.85 5.528-12.405 12.348-12.405s12.35 5.554 12.35 12.405c0 6.852-5.53 12.406-12.35 12.406S36.318 56.333 36.318 49.48" clip-rule="evenodd"/>
  <defs>
    <linearGradient id="Passwords-Widget_svg__a" x1="40.703" x2="46.012" y1="12.148" y2="12.148" gradientUnits="userSpaceOnUse">
      <stop stop-color="#5f5f5f"/>
      <stop offset="1" stop-color="#999" stop-opacity="0"/>
    </linearGradient>
  </defs>
</svg>
