<svg xmlns="http://www.w3.org/2000/svg" width="24" height="24" fill="none"><path fill="#fff" d="M17 4.25A3.75 3.75 0 0 1 20.75 8v4a6.25 6.25 0 0 0-9.364 7.75H7A3.75 3.75 0 0 1 3.25 16V8A3.75 3.75 0 0 1 7 4.25h10ZM2.02 16.45a6.047 6.047 0 0 0 0 0Z"/><path fill="url(#a)" d="M17.129 3.002A5 5 0 0 1 22 8v3.476c0 .569-.795.865-1.25.524V8A3.75 3.75 0 0 0 17 4.25H7A3.75 3.75 0 0 0 3.25 8v8A3.75 3.75 0 0 0 7 19.75h4.386c.262.532-.089 1.25-.682 1.25H7a5 5 0 0 1-4.998-4.871L2 16V8a5 5 0 0 1 4.871-4.998L7 3h10l.129.002Z"/><path fill="#888" d="M8.875 15a.75.75 0 0 1 0 1.5H5.25a.75.75 0 0 1 0-1.5h3.625Z"/><rect width="4.5" height="3" x="4.5" y="10.5" fill="#FC3" rx=".75"/><circle cx="17" cy="17" r="5" fill="#4CBA3C"/><path fill="url(#b)" d="M17 12a5 5 0 1 1 0 10 5 5 0 0 1 0-10Zm0 1.25a3.75 3.75 0 1 0 0 7.5 3.75 3.75 0 0 0 0-7.5Z"/><path fill="#fff" d="M18.433 15.464a.625.625 0 1 1 .884.884l-2.344 2.344a.625.625 0 0 1-.884 0l-1.406-1.406a.625.625 0 1 1 .884-.884l.964.964 1.902-1.902Z"/><defs><linearGradient id="a" x1="12" x2="12" y1="3" y2="21" gradientUnits="userSpaceOnUse"><stop stop-color="#888"/><stop offset="1" stop-color="#444"/></linearGradient><linearGradient id="b" x1="17" x2="17" y1="12" y2="22" gradientUnits="userSpaceOnUse"><stop stop-color="#4CBA3C"/><stop offset="1" stop-color="#288419"/></linearGradient></defs></svg>