<svg fill="none" viewBox="0 0 96 96" xmlns="http://www.w3.org/2000/svg">
  <path fill="#de5833" d="M51.421 65.872a20 20 0 0 0-.755 5.461v2.154c0 2.52-1.879 4.69-4.398 4.65A31 31 0 0 1 32.181 74.5c-.664-.351-1.485-.137-1.856.507l-2.521 4.313c-.626 1.054-2.209.84-2.522-.351l-4.378-16.822a1.37 1.37 0 0 1 .978-1.678l16.788-4.391c1.192-.312 2.17.976 1.544 2.03l-2.58 4.39c-.39.683-.156 1.581.547 1.932a19.4 19.4 0 0 0 13.24 1.441m14.21-13.899c.395-1.478.608-2.982.655-4.48.039-1.679 1.114-3.123 2.736-3.552l6.469-1.698c1.134-.293 2.248.507 2.365 1.678q.147 1.538.144 3.089c-.006 2.49-2.16 4.324-4.65 4.324h-2.683c-1.74 0-3.427.222-5.036.64"/>
  <path fill="#3969ef" d="M31.312 37.433c4.81-8.196 15.114-11.205 23.52-7.061.65.324.868 1.152.506 1.783l-2.386 4.053c-.578.973.325 2.162 1.428 1.873l15.53-4.053a1.265 1.265 0 0 0 .903-1.549l-4.05-15.528c-.288-1.099-1.753-1.297-2.331-.324L62.1 20.608c-.344.595-1.103.793-1.718.468-13.577-7.205-30.552-2.486-38.416 10.899a28.64 28.64 0 0 0-3.833 17.329c.109 1.08 1.14 1.82 2.188 1.55l5.984-1.568c1.5-.396 2.494-1.73 2.53-3.279a17.86 17.86 0 0 1 2.46-8.556z"/>
  <path fill="#ccc" fill-rule="evenodd" d="M69.1 55.409a16 16 0 0 1 3.134 0 1.5 1.5 0 1 1-.291 2.986 13 13 0 0 0-2.553 0 1.5 1.5 0 0 1-.29-2.986m-3.053 2.093a1.5 1.5 0 0 1-.746 1.986c-.78.354-1.518.782-2.206 1.276a1.5 1.5 0 1 1-1.75-2.437 16 16 0 0 1 2.716-1.57 1.5 1.5 0 0 1 1.986.745m9.24 0a1.5 1.5 0 0 1 1.985-.746c.96.436 1.869.963 2.716 1.571a1.5 1.5 0 1 1-1.75 2.437 13 13 0 0 0-2.206-1.276 1.5 1.5 0 0 1-.746-1.986m-15.533 4.166a1.5 1.5 0 0 1 .344 2.093 13 13 0 0 0-1.276 2.206 1.5 1.5 0 1 1-2.732-1.24c.435-.96.963-1.869 1.57-2.715a1.5 1.5 0 0 1 2.094-.344m21.825 0a1.5 1.5 0 0 1 2.093.344 16 16 0 0 1 1.571 2.715 1.5 1.5 0 1 1-2.732 1.24 13 13 0 0 0-1.276-2.206 1.5 1.5 0 0 1 .344-2.093m-25.198 6.75a1.5 1.5 0 0 1 1.347 1.638 13 13 0 0 0 0 2.553 1.5 1.5 0 0 1-2.986.291 16 16 0 0 1 0-3.134 1.5 1.5 0 0 1 1.639-1.348m28.571 0a1.5 1.5 0 0 1 1.639 1.348 16 16 0 0 1 0 3.134 1.5 1.5 0 1 1-2.986-.29 13 13 0 0 0 0-2.553 1.5 1.5 0 0 1 1.347-1.639m-28.116 7.535a1.5 1.5 0 0 1 1.986.746c.353.779.782 1.517 1.276 2.206a1.5 1.5 0 1 1-2.437 1.75 16 16 0 0 1-1.571-2.716 1.5 1.5 0 0 1 .746-1.986m27.661 0a1.5 1.5 0 0 1 .746 1.986c-.435.96-.963 1.869-1.57 2.715a1.5 1.5 0 1 1-2.438-1.75c.494-.688.923-1.426 1.276-2.205a1.5 1.5 0 0 1 1.986-.746m-23.495 6.293a1.5 1.5 0 0 1 2.093-.344 13 13 0 0 0 2.206 1.276 1.5 1.5 0 1 1-1.24 2.732 16 16 0 0 1-2.716-1.571 1.5 1.5 0 0 1-.343-2.093m19.33 0a1.5 1.5 0 0 1-.344 2.093 16 16 0 0 1-2.716 1.57 1.5 1.5 0 1 1-1.24-2.731 13 13 0 0 0 2.206-1.276 1.5 1.5 0 0 1 2.094.344m-12.58 3.373a1.5 1.5 0 0 1 1.638-1.348 13 13 0 0 0 2.553 0 1.5 1.5 0 0 1 .29 2.986 16 16 0 0 1-3.134 0 1.5 1.5 0 0 1-1.347-1.638" clip-rule="evenodd"/>
  <path fill="#ccc" d="M77.73 69.332a1.333 1.333 0 0 0 0-1.88l-1.167-1.171a1.333 1.333 0 0 0-1.888 0l-4.969 4.987a1.333 1.333 0 0 1-1.888 0l-1.16-1.164a1.333 1.333 0 0 0-1.888 0l-1.166 1.17a1.333 1.333 0 0 0 0 1.882l4.214 4.23c.52.522 1.367.522 1.888 0z"/>
</svg>
