<svg width="16" height="16" viewBox="0 0 16 16" fill="none" xmlns="http://www.w3.org/2000/svg">
<g clip-path="url(#clip0_713_32428)">
<path d="M7.97168 0C12.39 0 15.9717 3.58172 15.9717 8C15.9717 12.4183 12.39 16 7.97168 16C4.48648 16 1.5219 13.7713 0.425171 10.6614C0.287453 10.2709 0.592983 9.88232 1.00708 9.88232C1.29186 9.88234 1.53949 10.0719 1.63818 10.339C2.58948 12.914 5.06609 14.75 7.97168 14.75C11.6996 14.75 14.7217 11.7279 14.7217 8C14.7217 4.27208 11.6996 1.25 7.97168 1.25C5.50977 1.25001 3.35575 2.56808 2.17664 4.53699C2.14652 4.58727 2.11065 4.63318 2.07043 4.67419C2.20439 4.72319 2.34905 4.75 2.5 4.75H4.375C4.72018 4.75 5 5.02982 5 5.375C5 5.72018 4.72018 6 4.375 6H2.5C1.11946 6 0 4.88125 0 3.50037V1.625C0 1.27982 0.279822 1 0.625 1C0.970178 1 1.25 1.27982 1.25 1.625V3.50037C1.25 3.54993 1.25318 3.59879 1.25879 3.64685C2.68515 1.45179 5.15883 1.05001e-05 7.97168 0Z" fill="#364563"/>
</g>
<defs>
<clipPath id="clip0_713_32428">
<rect width="16" height="16" fill="white"/>
</clipPath>
</defs>
</svg>
