<svg fill="none" viewBox="0 0 24 24" xmlns="http://www.w3.org/2000/svg">
  <path fill="#ffd65c" d="M15 2.625a6.375 6.375 0 0 1 5.902 8.783c-.116.283-.466.363-.728.208a6.25 6.25 0 0 0-9.424 5.366l-1.01 1.024a1.24 1.24 0 0 1-.884.369H7.87a.745.745 0 0 0-.745.745v.765a1.49 1.49 0 0 1-1.49 1.49H4.612a1.987 1.987 0 0 1-1.987-1.987v-.533c0-.788.312-1.544.868-2.102l5.076-5.1c.273-.274.355-.68.258-1.053A6.375 6.375 0 0 1 15 2.625m.5 4.042a1.833 1.833 0 1 0 0 3.666 1.833 1.833 0 0 0 0-3.666"/>
  <path fill="url(#Key-Color-import-24_svg__a)" d="M15.09 2.001A7 7 0 0 1 22 9l-.001.09a7 7 0 0 1-.428 2.324c-.178.484-.785.588-1.22.31a6 6 0 0 0-.22-.132 5.75 5.75 0 0 0-5.058-8.34L15 3.25A5.75 5.75 0 0 0 9.25 9l.001.094q.012.653.16 1.262l.022.086.012.053c.12.524.013 1.12-.391 1.557l-.042.043-5.075 5.098a2.36 2.36 0 0 0-.687 1.662v.533c0 .752.61 1.362 1.362 1.362h1.023a.865.865 0 0 0 .865-.865v-.765c0-.757.613-1.37 1.37-1.37h.986l.03-.001a.62.62 0 0 0 .386-.161l.023-.022 1.533-1.552a6.3 6.3 0 0 0-.023 1.802l-.62.63-.133.121a1.87 1.87 0 0 1-1.15.432L8.856 19H7.87a.12.12 0 0 0-.12.12v.765A2.115 2.115 0 0 1 5.635 22H4.612A2.61 2.61 0 0 1 2 19.388v-.533a3.6 3.6 0 0 1 1.05-2.544l5.076-5.098.018-.019a.49.49 0 0 0 .079-.438l-.028-.107a7 7 0 0 1-.194-1.536L8 9a7 7 0 0 1 7-7zm.41 4.041a2.458 2.458 0 0 1 .925 4.735q-.52.047-1.013.176a2.455 2.455 0 0 1-2.37-2.453c0-1.358 1.1-2.458 2.458-2.458m0 1.25A1.208 1.208 0 1 0 16.708 8.5l-.001-.062A1.21 1.21 0 0 0 15.5 7.292"/>
  <path fill="#557ff3" d="M21.625 17a4.625 4.625 0 1 1-9.25 0 4.625 4.625 0 0 1 9.25 0"/>
  <path fill="url(#Key-Color-import-24_svg__b)" d="M17 12a5 5 0 1 1 0 10 5 5 0 0 1 0-10m0 1.25a3.75 3.75 0 1 0 0 7.5 3.75 3.75 0 0 0 0-7.5"/>
  <path fill="#fff" d="M14.683 17.442a.626.626 0 0 1 .884-.885l.808.808v-2.24l.013-.126a.625.625 0 0 1 1.224 0l.013.126v2.24l.808-.808.098-.08a.626.626 0 0 1 .866.867l-.08.098-1.876 1.875a.625.625 0 0 1-.883 0z"/>
  <defs>
    <linearGradient id="Key-Color-import-24_svg__a" x1="12" x2="12" y1="2.75" y2="21.25" gradientUnits="userSpaceOnUse">
      <stop stop-color="#e2a412"/>
      <stop offset="1" stop-color="#c18010"/>
    </linearGradient>
    <linearGradient id="Key-Color-import-24_svg__b" x1="17" x2="17" y1="12" y2="22" gradientUnits="userSpaceOnUse">
      <stop stop-color="#557ff3"/>
      <stop offset="1" stop-color="#2b55ca"/>
    </linearGradient>
  </defs>
</svg>
