<svg fill="none" viewBox="0 0 16 16" xmlns="http://www.w3.org/2000/svg">
  <path fill="#de5833" d="M11.366.886c.295-1.18 1.973-1.18 2.268 0l.136.544a1.1 1.1 0 0 0 .8.8l.544.136c1.18.295 1.18 1.973 0 2.268l-.544.136a1.1 1.1 0 0 0-.439.225 7.5 7.5 0 1 1-3.126-3.126c.105-.126.183-.275.225-.44z"/>
  <path fill="#ddd" fill-rule="evenodd" d="M8.555 14.096c0-.059.014-.072-.172-.443-.495-.992-.993-2.39-.766-3.29.04-.164-.467-6.064-.825-6.254-.4-.213-.89-.55-1.339-.625a3 3 0 0 0-.76.012c-.04.006-.042.08-.003.094.154.052.34.142.45.278.02.026-.008.067-.041.068-.103.004-.29.047-.538.257-.029.024-.005.07.032.062.531-.105 1.074-.053 1.394.238.021.019.01.053-.017.06-2.777.754-2.227 3.17-1.488 6.134.659 2.64.907 3.491.985 3.75a.08.08 0 0 0 .05.055c.955.38 3.038.398 3.038-.25z" clip-rule="evenodd"/>
  <path fill="#fff" d="M8.935 14.652c-.337.132-.996.19-1.377.19-.558 0-1.362-.087-1.655-.219a66 66 0 0 1-1.257-4.475l-.053-.214v-.002c-.636-2.596-1.155-4.717 1.69-5.383.027-.006.04-.037.022-.058-.326-.387-.938-.514-1.711-.247-.032.01-.06-.021-.04-.048.152-.21.448-.37.595-.44.03-.015.028-.06-.004-.07a3 3 0 0 0-.442-.105c-.043-.007-.047-.081-.004-.087 1.097-.147 2.241.182 2.816.905a.04.04 0 0 0 .022.014C9.64 4.865 9.79 8.19 9.549 8.342c-.048.03-.201.013-.403-.01-.819-.092-2.44-.273-1.102 2.22a.044.044 0 0 1-.032.062c-.754.117.213 2.481.923 4.038"/>
  <path fill="#fff" d="M7.5 2c.526 0 1.037.063 1.527.18.254.062.284.474.148.697l-.037.066c-.074.142-.23.238-.387.201a5.5 5.5 0 1 0 4.105 4.105c-.037-.156.059-.313.2-.387l.067-.037c.223-.136.634-.107.696.147A6.5 6.5 0 1 1 7.5 2"/>
  <path fill="#3ca82b" d="M9.876 11.629c-.16-.075-.776.367-1.184.706-.086-.12-.247-.209-.61-.146-.318.056-.494.133-.572.265-.502-.19-1.346-.484-1.55-.2-.223.31.055 1.776.352 1.966.154.1.894-.376 1.28-.703.062.087.163.138.369.133.312-.007.818-.08.896-.225l.013-.031c.396.148 1.095.305 1.251.282.407-.062-.056-1.96-.245-2.047"/>
  <path fill="#4cba3c" d="M8.73 12.379q.024.045.041.093c.057.159.149.662.08.787-.07.124-.524.184-.803.189-.28.005-.342-.098-.399-.256-.045-.126-.067-.424-.067-.595-.011-.252.081-.341.508-.41.316-.051.483.008.58.11.448-.335 1.197-.808 1.27-.721.364.43.41 1.455.33 1.868-.025.134-1.23-.134-1.23-.28 0-.603-.157-.769-.31-.785m-2.641-.189c.099-.156.9.038 1.339.234 0 0-.09.409.053.89.042.142-1.011.77-1.148.661-.16-.125-.452-1.457-.244-1.785"/>
  <path fill="#fc3" fill-rule="evenodd" d="M6.477 9.016c.064-.281.366-.812 1.444-.799.544-.002 1.22 0 1.67-.051a6 6 0 0 0 1.49-.363c.467-.178.633-.138.69-.032.064.117-.01.32-.174.505-.31.355-.87.63-1.859.712-.988.082-1.643-.183-1.925.248-.121.187-.027.625.928.764 1.292.186 2.353-.225 2.484.023s-.624.753-1.918.764c-1.293.01-2.101-.453-2.388-.683-.363-.293-.526-.719-.442-1.088" clip-rule="evenodd"/>
  <g fill="#14307e" opacity=".8">
    <path d="M8.124 5.937c.072-.119.232-.21.494-.21s.385.104.47.22c.018.024-.008.052-.035.04l-.02-.008a1 1 0 0 0-.415-.096.85.85 0 0 0-.437.097c-.029.016-.074-.015-.057-.043m-2.948.151a.94.94 0 0 1 .596-.06c.03.008.05-.024.026-.043-.11-.089-.355-.199-.675-.08-.285.107-.42.328-.42.474-.001.034.07.037.088.008.049-.078.13-.193.385-.3"/>
    <path fill-rule="evenodd" d="M8.84 7.553a.407.407 0 1 1 0-.813.407.407 0 0 1 0 .813m.287-.54a.105.105 0 0 0-.21 0 .105.105 0 0 0 .21 0m-2.984.415a.474.474 0 1 1-.947-.001.474.474 0 0 1 .947.001m-.14-.157a.123.123 0 0 0-.245 0 .123.123 0 0 0 .245 0" clip-rule="evenodd"/>
  </g>
  <path fill="#fff" d="M12.264 5.89c.061.245.41.245.472 0l.136-.544a2.03 2.03 0 0 1 1.474-1.474l.544-.136c.245-.062.245-.41 0-.472l-.544-.136a2.03 2.03 0 0 1-1.474-1.474l-.136-.544c-.062-.245-.41-.245-.472 0l-.136.544a2.03 2.03 0 0 1-1.474 1.474l-.544.136c-.246.062-.246.41 0 .472l.544.136a2.03 2.03 0 0 1 1.474 1.474z"/>
</svg>
