<svg width="380" height="158" viewBox="0 0 380 158" fill="none" xmlns="http://www.w3.org/2000/svg">
<g clip-path="url(#clip0_29425_39968)">
<rect width="380" height="158" rx="8" fill="#080808"/>
<g filter="url(#filter0_dd_29425_39968)">
<path d="M16 0H364V132C364 137.523 359.523 142 354 142H26C20.4772 142 16 137.523 16 132V0Z" fill="#373737"/>
<path d="M363.5 0.5V132C363.5 137.247 359.247 141.5 354 141.5H26C20.7533 141.5 16.5 137.247 16.5 132V0.5H363.5Z" stroke="white" stroke-opacity="0.09"/>
<path d="M59.4517 56.8923C60.7838 55.7421 62.3208 54.8231 64 54.1956V39.75C64 32.7084 58.2916 27 51.25 27C44.2084 27 38.5 32.7084 38.5 39.75V51.75C38.5 52.9926 39.5074 54 40.75 54C41.9926 54 43 52.9926 43 51.75V39.75C43 35.1937 46.6937 31.5 51.25 31.5C55.8063 31.5 59.5 35.1937 59.5 39.75V56.0039C59.5 56.3041 59.4829 56.6004 59.4517 56.8923ZM51.25 68.7539C52.2834 68.7539 53.2879 68.63 54.25 68.3979V68.25C54.25 66.5186 54.5438 64.8558 55.0835 63.3083C53.9379 63.9109 52.6343 64.2539 51.25 64.2539H50.125C46.19 64.2539 43.0001 61.0639 43 57.1289H38.5C38.5001 63.5491 43.7048 68.7539 50.125 68.7539H51.25Z" fill="#999999"/>
<path d="M54.25 68.25C54.25 59.9657 60.9657 53.25 69.25 53.25C70.4926 53.25 71.5 52.2426 71.5 51V50.25C71.5 47.3505 69.1495 45 66.25 45H52.75L52.75 72.75H54.25V68.25Z" fill="url(#paint0_linear_29425_39968)"/>
<path d="M54.25 68.25C54.25 60.2172 60.5642 53.6598 68.5 53.269V49.5C68.5 47.0147 66.4853 45 64 45H50.5L50.5 75H52C53.2426 75 54.25 73.9926 54.25 72.75V68.25Z" fill="#CCCCCC"/>
<path d="M54.25 68.25C54.25 61.2607 59.0305 55.3884 65.5 53.7231V50.25C65.5 49.0074 64.4926 48 63.25 48H50.5V72H54.25V68.25Z" fill="url(#paint1_linear_29425_39968)"/>
<path d="M32.5 49.5C32.5 47.0147 34.5147 45 37 45H50.5V75H38.5C35.1863 75 32.5 72.3137 32.5 69V49.5Z" fill="#DDDDDD"/>
<path d="M35.5 50.25C35.5 49.0074 36.5074 48 37.75 48H50.5V72H37.75C36.5074 72 35.5 70.9926 35.5 69.75V50.25Z" fill="url(#paint2_linear_29425_39968)"/>
<path d="M86.1261 59.25C86.3492 59.25 86.5722 59.34 86.7427 59.5155C87.0838 59.8664 87.0838 60.4378 86.7427 60.7887L84.9934 62.5884C84.6523 62.9394 84.0969 62.9394 83.7558 62.5884C83.4147 62.2375 83.4147 61.6661 83.7558 61.3151L85.5051 59.5155C85.6757 59.34 85.8987 59.25 86.1217 59.25H86.1261Z" fill="#CCCCCC"/>
<path d="M85.2514 67.3487H87.8754C88.3564 67.3487 88.75 67.7536 88.75 68.2485C88.75 68.7434 88.3564 69.1484 87.8754 69.1484H85.2514C84.7704 69.1484 84.3768 68.7434 84.3768 68.2485C84.3768 67.7536 84.7704 67.3487 85.2514 67.3487Z" fill="#CCCCCC"/>
<path d="M83.7647 73.9138C83.9353 73.7383 84.1583 73.6484 84.3814 73.6484H84.3857C84.6088 73.6484 84.8318 73.7383 85.0023 73.9138L86.7516 75.7135C87.0927 76.0645 87.0927 76.6359 86.7516 76.9868C86.4105 77.3377 85.8551 77.3377 85.514 76.9868L83.7647 75.1871C83.4236 74.8362 83.4236 74.2648 83.7647 73.9138Z" fill="#CCCCCC"/>
<rect x="58" y="56.25" width="24" height="24" rx="12" fill="#DE5833"/>
<path fill-rule="evenodd" clip-rule="evenodd" d="M70 57.7832C64.2194 57.7832 59.5332 62.4694 59.5332 68.25C59.5332 74.0307 64.2194 78.7169 70 78.7169C75.7807 78.7169 80.4669 74.0307 80.4669 68.25C80.4669 62.4694 75.7807 57.7832 70 57.7832ZM60.967 68.25C60.967 63.2612 65.0112 59.217 70 59.217C74.9888 59.217 79.0331 63.2612 79.0331 68.25C79.0331 72.6693 75.8595 76.3474 71.6671 77.1296C70.5775 74.6278 69.4423 71.6319 70.5533 71.3008C69.2307 68.9163 69.4981 67.35 72.2431 67.8328L72.2473 67.8333C72.5549 67.8683 72.7881 67.8948 72.861 67.8484C73.2327 67.6118 73.0021 62.4169 69.775 61.7113C66.8051 58.037 63.9784 62.2279 65.4122 61.9411C66.5592 61.6544 67.411 61.9191 67.3715 61.9305C62.3052 62.5693 64.6609 70.5514 65.9612 74.9573C66.14 75.5634 66.2989 76.1017 66.4158 76.544C63.21 75.1568 60.967 71.9654 60.967 68.25Z" fill="white"/>
<path d="M73.9673 75.817C73.9354 76.0229 73.8644 76.1602 73.7381 76.1794C73.4986 76.216 72.4272 75.9707 71.8183 75.7392C71.749 76.0577 70.1168 76.3592 69.8584 75.9314C69.2661 76.4434 68.1313 77.186 67.8941 77.0305C67.4397 76.733 67.0123 74.4424 67.3543 73.9583C67.8738 73.4861 68.9659 73.9999 69.7321 74.2713C69.9919 73.832 71.2498 73.6654 71.5109 74.026C72.1989 73.503 73.3471 72.7654 73.459 72.8999C74.0172 73.5725 74.0877 75.1732 73.9669 75.8174L73.9673 75.817Z" fill="#4CBA3C"/>
<path fill-rule="evenodd" clip-rule="evenodd" d="M68.147 68.9023C68.3812 67.2408 71.5198 67.7606 72.9233 67.5739C73.9461 67.4554 74.7052 67.2038 75.2108 67.0075C76.3716 66.5307 76.5693 67.0038 76.0017 67.7464C74.3991 69.6463 70.8349 68.2635 70.1968 69.2459C70.0103 69.537 70.1545 70.222 71.6205 70.4379C73.6014 70.729 75.2287 70.087 75.4296 70.475C74.978 72.5488 67.4572 71.8427 68.1461 68.9028L68.147 68.9023Z" fill="#FFCC33"/>
<path d="M72.1543 64.1098C71.9467 63.66 70.8793 63.6632 70.6753 64.0924C70.6567 64.1811 70.731 64.1577 70.8726 64.1131C71.1208 64.035 71.5756 63.8918 72.0995 64.1721C72.1408 64.1899 72.1808 64.1469 72.1543 64.1098Z" fill="#14307E"/>
<path d="M66.9387 64.2178C66.7405 64.2035 66.4188 64.1803 66.1529 64.328C65.7628 64.4941 65.637 64.673 65.5615 64.7957C65.5336 64.841 65.4258 64.8364 65.4258 64.7829C65.4523 64.0672 66.6657 63.7222 67.107 64.167C67.1605 64.2338 67.0819 64.2281 66.9387 64.2178Z" fill="#14307E"/>
<path d="M71.7742 66.6169C70.9576 66.6128 70.9576 65.354 71.7742 65.3499C72.5907 65.354 72.5907 66.6128 71.7742 66.6169Z" fill="#14307E"/>
<path d="M67.6362 66.4217C67.62 67.3926 66.1967 67.3926 66.1805 66.4217C66.185 65.4552 67.6317 65.4557 67.6362 66.4217Z" fill="#14307E"/>
<path d="M31 117C31 111.477 35.4772 107 41 107C46.5228 107 51 111.477 51 117C51 122.523 46.5228 127 41 127C35.4772 127 31 122.523 31 117Z" fill="white" fill-opacity="0.09"/>
</g>
</g>
<rect x="0.5" y="0.5" width="379" height="157" rx="7.5" stroke="white" stroke-opacity="0.09"/>
<defs>
<filter id="filter0_dd_29425_39968" x="8" y="-4" width="364" height="158" filterUnits="userSpaceOnUse" color-interpolation-filters="sRGB">
<feFlood flood-opacity="0" result="BackgroundImageFix"/>
<feColorMatrix in="SourceAlpha" type="matrix" values="0 0 0 0 0 0 0 0 0 0 0 0 0 0 0 0 0 0 127 0" result="hardAlpha"/>
<feOffset dy="4"/>
<feGaussianBlur stdDeviation="4"/>
<feComposite in2="hardAlpha" operator="out"/>
<feColorMatrix type="matrix" values="0 0 0 0 0 0 0 0 0 0 0 0 0 0 0 0 0 0 0.16 0"/>
<feBlend mode="normal" in2="BackgroundImageFix" result="effect1_dropShadow_29425_39968"/>
<feColorMatrix in="SourceAlpha" type="matrix" values="0 0 0 0 0 0 0 0 0 0 0 0 0 0 0 0 0 0 127 0" result="hardAlpha"/>
<feOffset dy="1"/>
<feGaussianBlur stdDeviation="2"/>
<feComposite in2="hardAlpha" operator="out"/>
<feColorMatrix type="matrix" values="0 0 0 0 0 0 0 0 0 0 0 0 0 0 0 0 0 0 0.2 0"/>
<feBlend mode="normal" in2="effect1_dropShadow_29425_39968" result="effect2_dropShadow_29425_39968"/>
<feBlend mode="normal" in="SourceGraphic" in2="effect2_dropShadow_29425_39968" result="shape"/>
</filter>
<linearGradient id="paint0_linear_29425_39968" x1="62.125" y1="45" x2="62.125" y2="75" gradientUnits="userSpaceOnUse">
<stop stop-color="#AAAAAA"/>
<stop offset="1" stop-color="#CCCCCC"/>
</linearGradient>
<linearGradient id="paint1_linear_29425_39968" x1="58" y1="72" x2="47.6482" y2="48.9437" gradientUnits="userSpaceOnUse">
<stop stop-color="#E4E4E4"/>
<stop offset="1" stop-color="#F2F2F2"/>
</linearGradient>
<linearGradient id="paint2_linear_29425_39968" x1="43" y1="72" x2="43" y2="48" gradientUnits="userSpaceOnUse">
<stop stop-color="#FEFEFE"/>
<stop offset="1" stop-color="#ECECEC"/>
</linearGradient>
<clipPath id="clip0_29425_39968">
<rect width="380" height="158" rx="8" fill="white"/>
</clipPath>
</defs>
</svg>
