<svg fill="none" viewBox="0 0 96 96" xmlns="http://www.w3.org/2000/svg">
  <path fill="#e2a412" fill-rule="evenodd" d="M69.225 34.062c0 10.007-8.112 18.12-18.12 18.12a18.1 18.1 0 0 1-5.466-.84l-3.026 3.026h-6.327v5.195c0 .56-.453 1.014-1.013 1.014H29.96v7.577c0 .56-.453 1.014-1.013 1.014H16V56.28l17.585-17.584a18.2 18.2 0 0 1-.598-4.635c0-10.007 8.112-18.12 18.119-18.12s18.12 8.113 18.12 18.12Zm-13.023.566a5.662 5.662 0 1 0 0-11.324 5.662 5.662 0 0 0 0 11.324" clip-rule="evenodd"/>
  <path fill="#f9be1a" fill-rule="evenodd" d="M72.225 34.062c0 10.007-8.112 18.12-18.12 18.12a18.1 18.1 0 0 1-5.466-.84l-3.026 3.026h-6.327v5.195c0 .56-.453 1.014-1.013 1.014H32.96v7.577c0 .56-.453 1.014-1.013 1.014H19V56.28l17.585-17.584a18.2 18.2 0 0 1-.598-4.635c0-10.007 8.112-18.12 18.119-18.12s18.12 8.113 18.12 18.12Zm-13.023.566a5.662 5.662 0 1 0 0-11.324 5.662 5.662 0 0 0 0 11.324" clip-rule="evenodd"/>
  <path fill="#e2a412" fill-rule="evenodd" d="M68.177 51.198c6.244-4.424 8.963-12.662 6.11-20.143-3.383-8.867-13.313-13.313-22.18-9.93-8.867 3.382-13.313 13.312-9.93 22.18a17.2 17.2 0 0 0 2.096 3.904l-9.638 21.525 4.356 11.419h2.734c.385 0 .737-.219.908-.564l5.824-11.768 3.012-1.149c.318-1.438.79-2.818 1.398-4.122l-.903-2.369 3.01-1.148a20 20 0 0 1 3.924-3.957l.33-.737q.402-.024.804-.066a19.9 19.9 0 0 1 8.145-3.075m-2.136-22.17a5.37 5.37 0 1 1-10.034 3.827 5.37 5.37 0 0 1 10.034-3.827" clip-rule="evenodd"/>
  <path fill="#fc3" fill-rule="evenodd" d="M51 71v2.239a5 5 0 0 1-3.218 4.671l-5.879 2.243-4.356-11.419 9.638-21.525a17.2 17.2 0 0 1-2.097-3.905c-3.382-8.867 1.064-18.797 9.93-22.18 8.868-3.382 18.798 1.064 22.18 9.931 2.606 6.83.567 14.291-4.56 18.904-.795.716-1.856 1.021-2.922 1.107C59.417 51.89 51 60.376 51 71m17.954-41.972a5.37 5.37 0 1 1-10.035 3.828 5.37 5.37 0 0 1 10.035-3.828" clip-rule="evenodd"/>
  <path fill="#999" fill-rule="evenodd" d="M61.037 26.42C61.903 27.341 63.273 28 65 28c3.062 0 5-2.069 5-4 0-1.81-1.703-3.74-4.437-3.976a18.1 18.1 0 0 0-5.093-2.932A9.9 9.9 0 0 1 65 16c4.67 0 9 3.304 9 8s-4.33 8-9 8c-2.355 0-4.624-.84-6.294-2.276a5.37 5.37 0 0 1 2.33-3.303Z" clip-rule="evenodd"/>
  <path fill="url(#Passwords-Add-96_svg__a)" fill-rule="evenodd" d="M69 31.161A10 10 0 0 1 65 32c-2.355 0-4.624-.84-6.294-2.276a5.37 5.37 0 0 1 2.33-3.303C61.904 27.34 63.273 28 65 28c1.752 0 3.136-.678 4-1.62z" clip-rule="evenodd"/>
  <path fill="#557ff3" d="M71 87c8.837 0 16-7.163 16-16s-7.163-16-16-16-16 7.163-16 16 7.163 16 16 16"/>
  <path fill="#ccc" d="M92.501 59c.298 0 .595.12.823.354.454.468.454 1.23 0 1.698l-2.333 2.4a1.145 1.145 0 0 1-1.65 0 1.227 1.227 0 0 1 0-1.698l2.333-2.4c.227-.234.524-.354.822-.354zm-1.166 10.798h3.499c.641 0 1.166.54 1.166 1.2s-.525 1.2-1.166 1.2h-3.499c-.641 0-1.166-.54-1.166-1.2s.525-1.2 1.166-1.2m-1.982 8.754c.227-.234.525-.354.822-.354h.006c.297 0 .595.12.822.354l2.332 2.4c.455.467.455 1.23 0 1.697a1.145 1.145 0 0 1-1.65 0l-2.332-2.4a1.227 1.227 0 0 1 0-1.697"/>
  <path fill="#fff" fill-rule="evenodd" d="M74 62.667a.667.667 0 0 0-.667-.667h-4.666a.667.667 0 0 0-.667.667v4.666a.667.667 0 0 1-.667.667h-4.666a.667.667 0 0 0-.667.667v4.666c0 .368.298.667.667.667h4.666c.368 0 .667.299.667.667v4.666c0 .368.299.667.667.667h4.666a.667.667 0 0 0 .667-.667v-4.666c0-.368.299-.667.667-.667h4.666a.667.667 0 0 0 .667-.667v-4.666a.667.667 0 0 0-.667-.667h-4.666a.667.667 0 0 1-.667-.667z" clip-rule="evenodd"/>
  <defs>
    <linearGradient id="Passwords-Add-96_svg__a" x1="62" x2="68" y1="29" y2="29" gradientUnits="userSpaceOnUse">
      <stop stop-color="#5f5f5f"/>
      <stop offset="1" stop-color="#999" stop-opacity="0"/>
    </linearGradient>
  </defs>
</svg>
