<svg width="96" height="80" viewBox="0 0 96 80" fill="none" xmlns="http://www.w3.org/2000/svg">
<g opacity="0.2">
<path d="M12.7429 26.3836C12.3585 25.9991 12.3585 25.3759 12.7429 24.9914L14.304 23.4304C14.6884 23.046 15.3117 23.046 15.6961 23.4304L17.2571 24.9914C17.6416 25.3759 17.6416 25.9991 17.2571 26.3836L15.6961 27.9446C15.3117 28.329 14.6884 28.329 14.304 27.9446L12.7429 26.3836Z" fill="#888888"/>
<path d="M8.80543 35.2429C8.42101 34.8585 8.42101 34.2352 8.80543 33.8508L9.38206 33.2742C9.76648 32.8898 10.3898 32.8898 10.7742 33.2742L11.3508 33.8508C11.7352 34.2352 11.7352 34.8585 11.3508 35.2429L10.7742 35.8196C10.3898 36.204 9.76648 36.204 9.38206 35.8196L8.80543 35.2429Z" fill="#888888"/>
<path d="M25.5398 30.3211C25.1554 29.9366 25.1554 29.3134 25.5398 28.9289L27.1009 27.3679C27.4853 26.9835 28.1085 26.9835 28.493 27.3679L30.054 28.9289C30.4384 29.3134 30.4384 29.9366 30.054 30.3211L28.493 31.8821C28.1085 32.2665 27.4853 32.2665 27.1009 31.8821L25.5398 30.3211Z" fill="#888888"/>
<path d="M74.7586 26.3836C74.3741 25.9991 74.3741 25.3759 74.7586 24.9914L76.3196 23.4304C76.704 23.046 77.3273 23.046 77.7117 23.4304L79.2728 24.9914C79.6572 25.3759 79.6572 25.9991 79.2728 26.3836L77.7117 27.9446C77.3273 28.329 76.704 28.329 76.3196 27.9446L74.7586 26.3836Z" fill="#888888"/>
<path d="M72.7898 46.0711C72.4054 45.6866 72.4054 45.0634 72.7898 44.6789L74.3509 43.1179C74.7353 42.7335 75.3585 42.7335 75.743 43.1179L77.304 44.6789C77.6884 45.0634 77.6884 45.6866 77.304 46.0711L75.743 47.6321C75.3585 48.0165 74.7353 48.0165 74.3509 47.6321L72.7898 46.0711Z" fill="#888888"/>
<path d="M79.6804 49.0242C79.296 48.6398 79.296 48.0165 79.6804 47.6321L80.2571 47.0554C80.6415 46.671 81.2648 46.671 81.6492 47.0554L82.2258 47.6321C82.6102 48.0165 82.6102 48.6398 82.2258 49.0242L81.6492 49.6008C81.2648 49.9852 80.6415 49.9852 80.2571 49.6008L79.6804 49.0242Z" fill="#888888"/>
<path d="M72.7898 54.9304C72.4054 54.546 72.4054 53.9227 72.7898 53.5383L74.3509 51.9773C74.7353 51.5929 75.3585 51.5929 75.743 51.9773L77.304 53.5383C77.6884 53.9227 77.6884 54.546 77.304 54.9304L75.743 56.4915C75.3585 56.8759 74.7353 56.8759 74.3509 56.4915L72.7898 54.9304Z" fill="#888888"/>
<path d="M85.3827 36.0233C85.1109 35.7516 85.1109 35.3109 85.3827 35.0392C85.6545 34.7674 86.0951 34.7674 86.3669 35.0392C86.6386 35.3109 86.6386 35.7516 86.3669 36.0233C86.0951 36.2951 85.6545 36.2951 85.3827 36.0233Z" fill="#888888"/>
<path d="M59.0086 15.5554C58.6241 15.171 58.6241 14.5477 59.0086 14.1633L60.5696 12.6023C60.954 12.2179 61.5773 12.2179 61.9617 12.6023L63.5228 14.1633C63.9072 14.5477 63.9072 15.171 63.5228 15.5554L61.9617 17.1165C61.5773 17.5009 60.954 17.5009 60.5696 17.1165L59.0086 15.5554Z" fill="#888888"/>
<path d="M52.1179 19.4929C51.7335 19.1085 51.7335 18.4852 52.1179 18.1008L53.679 16.5398C54.0634 16.1554 54.6867 16.1554 55.0711 16.5398L56.6321 18.1008C57.0166 18.4852 57.0166 19.1085 56.6321 19.4929L55.0711 21.054C54.6867 21.4384 54.0634 21.4384 53.679 21.054L52.1179 19.4929Z" fill="#888888"/>
<path d="M17.9531 46.3594C17.9531 46.903 17.5124 47.3438 16.9688 47.3438C16.4251 47.3438 15.9844 46.903 15.9844 46.3594C15.9844 45.8157 16.4251 45.375 16.9688 45.375C17.5124 45.375 17.9531 45.8157 17.9531 46.3594Z" fill="#888888"/>
<path d="M63.5227 54.5227C63.9071 54.9071 64.5304 54.9071 64.9148 54.5227L65.4914 53.9461C65.8759 53.5616 65.8759 52.9384 65.4914 52.5539L64.9148 51.9773C64.5304 51.5929 63.9071 51.5929 63.5227 51.9773L62.9461 52.5539C62.5616 52.9384 62.5616 53.5616 62.9461 53.9461L63.5227 54.5227Z" fill="#888888"/>
</g>
<path d="M30.541 60.3726C26.6273 61.7746 22.8457 57.993 24.2477 54.0793L36.3925 20.175C36.8796 18.8152 38.6166 18.4254 39.638 19.4468L65.1735 44.9823C66.1949 46.0037 65.8051 47.7407 64.4453 48.2278L30.541 60.3726Z" fill="#FFD65C"/>
<path fill-rule="evenodd" clip-rule="evenodd" d="M51.2355 52.9598C47.5106 51.3771 43.4544 48.5439 39.7658 44.8553C36.077 41.1665 33.2438 37.1102 31.6611 33.3852L33.3183 28.759C33.9759 32.6951 37.0676 37.9807 41.854 42.7671C46.6402 47.5533 51.9256 50.6449 55.8617 51.3027L51.2355 52.9598Z" fill="#876ECB"/>
<path fill-rule="evenodd" clip-rule="evenodd" d="M41.3669 56.4952C38.8146 55.3288 36.1162 53.3945 33.6714 50.9497C31.2267 48.505 29.2924 45.8065 28.126 43.2542L29.8382 38.4742C29.9453 41.2182 32.146 45.2479 35.7596 48.8616C39.3732 52.4752 43.403 54.6759 46.147 54.783L41.3669 56.4952Z" fill="#876ECB"/>
<path fill-rule="evenodd" clip-rule="evenodd" d="M33.3957 59.3502C31.834 58.4607 30.2616 57.2429 28.8196 55.8009C27.3777 54.3589 26.1599 52.7867 25.2704 51.225L26.7422 47.1163C27.1835 49.0256 28.6738 51.4787 30.9078 53.7127C33.1419 55.9469 35.5951 57.4371 37.5044 57.8784L33.3957 59.3502Z" fill="#876ECB"/>
<g opacity="0.4">
<path d="M33.1264 59.4467C30.1591 60.5096 27.8137 56.8071 30.0424 54.5784L51.0141 33.6067C51.7829 32.8379 53.0295 32.8379 53.7983 33.6067L65.1739 44.9823C66.1953 46.0037 65.8056 47.7408 64.4457 48.2279L33.1264 59.4467Z" fill="#FFCC33" style="mix-blend-mode:multiply"/>
</g>
<path d="M67.0236 46.832C63.5638 50.2918 54.2148 46.5521 46.1419 38.4793C38.069 30.4064 34.3294 21.0573 37.7892 17.5975C41.249 14.1377 50.5981 17.8774 58.6709 25.9502C66.7438 34.0231 70.4834 43.3722 67.0236 46.832Z" fill="#FFCC33"/>
<path d="M46.1419 38.4792C54.2147 46.5521 63.5638 50.2917 67.0236 46.8319C70.4834 43.3721 66.7438 34.0231 58.6709 25.9502L46.1419 38.4792Z" fill="#FFDE7A"/>
<path fill-rule="evenodd" clip-rule="evenodd" d="M63.4171 45.1687C64.3845 45.1623 64.7767 44.9026 64.9355 44.7438C65.0943 44.585 65.3539 44.1928 65.3603 43.2254C65.3668 42.2401 65.0975 40.8861 64.4301 39.2178C63.0997 35.8917 60.4058 31.8615 56.5828 28.0384C52.7597 24.2153 48.7295 21.5215 45.4034 20.191C43.735 19.5237 42.381 19.2544 41.3958 19.2609C40.4283 19.2672 40.0362 19.5269 39.8774 19.6857C39.7186 19.8445 39.4589 20.2367 39.4525 21.2041C39.446 22.1894 39.7154 23.5434 40.3827 25.2117C41.7131 28.5378 44.407 32.568 48.2301 36.3911C52.0531 40.2142 56.0833 42.908 59.4094 44.2385C61.0778 44.9058 62.4318 45.1751 63.4171 45.1687ZM46.1419 38.4793C54.2148 46.5521 63.5638 50.2918 67.0236 46.832C70.4834 43.3722 66.7438 34.0231 58.6709 25.9502C50.5981 17.8774 41.249 14.1377 37.7892 17.5975C34.3294 21.0573 38.069 30.4064 46.1419 38.4793Z" fill="#E2A412"/>
<path fill-rule="evenodd" clip-rule="evenodd" d="M48.7242 12.4522C49.176 11.7733 50.0927 11.5893 50.7715 12.0412C53.5833 13.9128 54.3611 16.9618 53.767 19.9831C53.1832 22.9515 51.2849 26.0144 48.5685 28.4724C47.9639 29.0196 47.0301 28.973 46.4829 28.3683C45.9358 27.7637 45.9824 26.8299 46.5871 26.2827C48.9483 24.146 50.4357 21.6183 50.8693 19.4133C51.2925 17.2611 50.7193 15.5539 49.1352 14.4995C48.4563 14.0477 48.2723 13.131 48.7242 12.4522Z" fill="#DE5833"/>
<path fill-rule="evenodd" clip-rule="evenodd" d="M74.5567 36.3493C68.695 33.8255 61.7008 36.3193 57.3801 39.9022C56.7523 40.4227 55.8215 40.3358 55.3009 39.7081C54.7804 39.0803 54.8673 38.1495 55.495 37.6289C60.2731 33.6669 68.4436 30.502 75.7246 33.6369C76.4736 33.9594 76.8194 34.828 76.4969 35.577C76.1744 36.326 75.3058 36.6718 74.5567 36.3493Z" fill="#3969EF"/>
<path fill-rule="evenodd" clip-rule="evenodd" d="M72.6316 14.9355C73.4503 16.2509 73.9018 18.0858 73.519 19.5635C73.2482 20.6091 72.5711 21.301 71.7475 21.6856C70.9955 22.0367 70.1595 22.1181 69.4572 22.1227C68.7792 22.127 68.0865 22.0579 67.5022 21.9926C67.5251 22.1798 67.5503 22.3766 67.577 22.5793C67.6239 22.9359 67.6712 23.2804 67.7168 23.6127C67.7521 23.8693 67.7863 24.1186 67.8186 24.3607C67.8813 24.8307 67.9513 25.3672 67.9513 25.6529C67.9513 25.9618 67.8889 26.4124 67.5769 26.8239C67.2394 27.269 66.7736 27.4556 66.3866 27.5077C65.7585 27.5921 65.1611 27.3514 64.8374 27.2077C64.0695 26.8667 63.1243 26.2425 62.2997 25.6796C62.0505 25.5095 61.8092 25.3428 61.5772 25.1825C61.3362 25.0161 61.1054 24.8566 60.8865 24.7077C60.893 24.8392 60.9011 24.9762 60.9103 25.1195C60.9145 25.1849 60.9189 25.252 60.9235 25.3207C60.9783 26.148 61.0483 27.2025 60.8369 28.2339C60.6732 29.0327 59.8928 29.5476 59.0939 29.3839C58.2951 29.2201 57.7802 28.4398 57.9439 27.6409C58.0725 27.0139 58.029 26.3359 57.9688 25.3962C57.967 25.367 57.9651 25.3375 57.9632 25.3077C57.9058 24.41 57.837 23.2499 58.1648 22.1017C58.2447 21.8218 58.4108 21.5236 58.6987 21.2903C58.9774 21.0645 59.2775 20.9744 59.5092 20.943C59.9199 20.8875 60.2711 20.9945 60.4357 21.0507C60.8107 21.1786 61.212 21.4068 61.5484 21.6132C62.0669 21.9312 62.7043 22.3716 63.3254 22.8006C63.5424 22.9505 63.7574 23.0991 63.9646 23.2405C64.2446 23.4317 64.5102 23.6097 64.7577 23.7703C64.7209 23.5015 64.6834 23.2257 64.6491 22.9644C64.5675 22.3444 64.4902 21.7103 64.4525 21.2225C64.4344 20.9886 64.4207 20.7316 64.4304 20.5104C64.4345 20.4162 64.4459 20.2237 64.5061 20.0161C64.5342 19.9191 64.6052 19.7004 64.7793 19.478C64.9786 19.2235 65.3775 18.8983 65.9657 18.8983C66.4404 18.8983 67.0216 18.9651 67.5355 19.0242C67.6011 19.0318 67.6656 19.0392 67.7286 19.0463C68.3392 19.1154 68.9153 19.173 69.438 19.1696C69.9778 19.1661 70.314 19.0957 70.498 19.0098C70.6105 18.9573 70.6334 18.9268 70.6603 18.8229C70.7879 18.3304 70.6406 17.3252 70.1244 16.496C69.6088 15.6675 69.182 15.64 68.9256 15.7255C68.152 15.9836 67.3157 15.5657 67.0576 14.7921C66.7996 14.0185 67.2175 13.1822 67.991 12.9242C70.1683 12.1978 71.8124 13.6194 72.6316 14.9355ZM67.3807 20.6399C67.3811 20.629 67.3815 20.6313 67.3805 20.6443C67.3805 20.6427 67.3806 20.6413 67.3807 20.6399Z" fill="#DE5833"/>
</svg>
