<svg width="16" height="16" viewBox="0 0 16 16" fill="none" xmlns="http://www.w3.org/2000/svg">
<g clip-path="url(#clip0_5905_12310)">
<path d="M7.99994 0C12.2444 2.73283e-06 15.7168 3.30549 15.9835 7.48267C16.0013 7.55868 16.0045 7.63488 15.9946 7.70825C15.998 7.80508 15.9999 7.90233 15.9999 8C15.9999 8.06283 15.9992 8.12551 15.9977 8.18799C15.9881 8.60193 15.4803 8.77831 15.136 8.54822C14.3819 8.04403 13.4752 7.75 12.4999 7.75C11.1528 7.75002 9.93665 8.31088 9.0722 9.21179C7.81077 9.25878 6.547 9.22304 5.28912 9.10413C5.39757 10.6193 5.72454 11.9556 6.18182 12.9548C6.77248 14.2455 7.46152 14.75 7.99994 14.75C8.09292 14.75 8.19027 14.7345 8.29095 14.703C8.36922 14.8522 8.45524 14.9968 8.5484 15.1361C8.77852 15.4803 8.60211 15.9882 8.18817 15.9978C8.12561 15.9993 8.06284 16 7.99994 16C3.58169 16 -6.2726e-05 12.4183 -6.2726e-05 8C-6.27257e-05 7.90209 0.00169813 7.80458 0.0051863 7.70752C-0.0045711 7.63454 -0.00136198 7.55873 0.0162947 7.48315C0.282663 3.30576 3.75531 3.27462e-05 7.99994 0ZM12.4999 9C14.4329 9 15.9999 10.567 15.9999 12.5C15.9999 14.433 14.4329 16 12.4999 16C10.567 16 8.99994 14.433 8.99994 12.5C8.99994 10.567 10.567 9.00003 12.4999 9ZM1.26361 8.43311C1.43092 11.0753 3.11849 13.3045 5.46124 14.2561C5.30858 14.0093 5.16949 13.7468 5.0451 13.475C4.48988 12.2617 4.12589 10.6881 4.02716 8.95667C3.1001 8.82756 2.17782 8.65303 1.26361 8.43311ZM10.3749 11.875C10.0988 11.875 9.87494 12.0989 9.87494 12.375V12.625C9.87494 12.9011 10.0988 13.125 10.3749 13.125H14.6249C14.9011 13.125 15.1249 12.9011 15.1249 12.625V12.375C15.1249 12.0989 14.9011 11.875 14.6249 11.875H10.3749ZM7.99994 1.25C7.46152 1.25004 6.77248 1.75447 6.18182 3.04517C5.63122 4.24834 5.26952 5.94002 5.25079 7.84448C7.07894 8.0278 8.92093 8.0278 10.7491 7.84448C10.7303 5.94001 10.3687 4.24834 9.81805 3.04517C9.22737 1.75444 8.53835 1.25 7.99994 1.25ZM5.46124 1.74377C3.24113 2.64559 1.60946 4.69474 1.30231 7.1554C2.1953 7.37919 3.09669 7.55754 4.00311 7.69043C4.03925 5.70536 4.42144 3.88787 5.0451 2.52502C5.1695 2.25319 5.30856 1.99056 5.46124 1.74377ZM10.5386 1.74377C10.6913 1.99056 10.8304 2.25318 10.9548 2.52502C11.5784 3.88787 11.9606 5.70535 11.9968 7.69043C12.9032 7.55754 13.8046 7.37919 14.6976 7.1554C14.3904 4.69472 12.7588 2.64556 10.5386 1.74377Z" fill="#000"/>
</g>
<defs>
<clipPath id="clip0_5905_12310">
<rect width="16" height="16" fill="white"/>
</clipPath>
</defs>
</svg>
