<svg width="16" height="16" viewBox="0 0 16 16" fill="none" xmlns="http://www.w3.org/2000/svg">
<g clip-path="url(#clip0_1379_21435)">
<path fill-rule="evenodd" clip-rule="evenodd" d="M2.35792 12.1761C2.67709 12.4589 2.73732 12.9494 2.45793 13.2716L1.16424 14.7633C0.722625 15.2725 1.15017 16.0466 1.81448 15.9325C4.47004 15.4764 9.12363 14.5946 11.0148 13.7266C13.9388 12.6663 16 10.11 16 7.12487C16 3.18984 12.4183 -0.000126839 8 -0.000126839C3.58172 -0.000126839 0 3.18984 0 7.12487C0 9.09906 0.901524 10.8857 2.35792 12.1761Z" fill="#C7B9EE"/>
<path fill-rule="evenodd" clip-rule="evenodd" d="M10.5977 12.8179L10.6352 12.8007L10.6739 12.7866C13.2723 11.8444 15 9.61937 15 7.125C15 3.84801 11.978 0.999999 8 0.999999C4.02196 0.999999 1 3.84801 1 7.125C1 8.78171 1.75431 10.3054 3.02108 11.4278C3.70049 12.0297 3.8942 13.1419 3.2134 13.9269L2.45086 14.8061C3.65274 14.592 5.10107 14.3163 6.48374 14.0081C8.22243 13.6206 9.7608 13.202 10.5977 12.8179ZM1.81448 15.9327C4.47004 15.4766 9.12363 14.5947 11.0148 13.7267C13.9388 12.6665 16 10.1101 16 7.125C16 3.18997 12.4183 0 8 0C3.58172 0 0 3.18997 0 7.125C0 9.09919 0.901524 10.8859 2.35792 12.1762C2.67709 12.459 2.73732 12.9495 2.45793 13.2717L1.16424 14.7634C0.722625 15.2726 1.15017 16.0468 1.81448 15.9327ZM8.36757 2.787C8.27191 2.40434 7.72809 2.40434 7.63243 2.787L7.19416 4.54008C6.99053 5.35457 6.35457 5.99054 5.54007 6.19416L3.78699 6.63243C3.40434 6.7281 3.40434 7.27191 3.78699 7.36758L5.54007 7.80585C6.35457 8.00947 6.99053 8.64544 7.19416 9.45993L7.63243 11.213C7.72809 11.5957 8.27191 11.5957 8.36757 11.213L8.80584 9.45993C9.00947 8.64544 9.64543 8.00947 10.4599 7.80585L12.213 7.36758C12.5957 7.27191 12.5957 6.7281 12.213 6.63243L10.4599 6.19416C9.64543 5.99054 9.00947 5.35458 8.80584 4.54008L8.36757 2.787Z" fill="url(#paint0_linear_1379_21435)"/>
</g>
<defs>
<linearGradient id="paint0_linear_1379_21435" x1="0" y1="0" x2="16" y2="16" gradientUnits="userSpaceOnUse">
<stop stop-color="#876ECB"/>
<stop offset="1" stop-color="#5132A9"/>
</linearGradient>
<clipPath id="clip0_1379_21435">
<rect width="16" height="16" fill="white"/>
</clipPath>
</defs>
</svg>
