<svg fill="none" viewBox="0 0 64 64" xmlns="http://www.w3.org/2000/svg">
  <g clip-path="url(#vivaldi_svg__a)">
    <path fill="#EF3939" d="M32 59.792c12.244 0 19.048 0 23.505-4.434 4.446-4.433 4.446-11.212 4.446-23.419s0-18.986-4.446-23.42C51.049 4.1 44.246 4.1 32 4.1s-19.047 0-23.505 4.433c-4.446 4.433-4.446 11.212-4.446 23.42 0 12.206 0 18.985 4.446 23.419 4.458 4.42 11.261 4.42 23.505 4.42"/>
    <path fill="url(#vivaldi_svg__b)" d="M50.176 21.647a20.92 20.92 0 0 0-12.797-9.836C26.192 8.826 14.697 15.433 11.7 26.57a20.7 20.7 0 0 0 2.15 15.93c.036.061.073.135.122.196l9.85 17.01c1.633.048 3.401.06 5.305.06h2.775c5.44 0 9.812 0 13.386-.392 4.458-.492 7.65-1.585 10.12-4.04 3.597-3.587 4.285-8.72 4.42-17.034-5.747-9.923-9.64-16.64-9.652-16.653"/>
    <path fill="#fff" d="M46.712 17.214c-8.167-8.154-21.417-8.154-29.596 0-8.167 8.154-8.167 21.368 0 29.51 8.166 8.155 21.417 8.155 29.596 0 8.18-8.154 8.18-21.368 0-29.51m-1.252 9.591c-3.451 5.98-6.902 11.962-10.353 17.955-.639 1.117-1.572 1.78-2.85 1.879-1.424.098-2.554-.504-3.278-1.732-2.186-3.746-4.347-7.516-6.509-11.274-1.314-2.284-2.64-4.568-3.954-6.865-1.327-2.309.172-5.12 2.824-5.256 1.4-.073 2.481.577 3.193 1.793.97 1.658 1.928 3.34 2.898 5.01.7 1.204 1.376 2.42 2.088 3.599 1.032 1.731 2.555 2.702 4.58 2.825 2.862.171 5.527-1.904 5.871-4.937.025-.221.037-.455.05-.565-.013-.983-.197-1.818-.59-2.591-1.069-2.137.073-4.532 2.395-5.048 1.89-.417 3.856.97 4.101 2.886.123.823-.049 1.597-.466 2.321"/>
  </g>
  <defs>
    <linearGradient id="vivaldi_svg__b" x1="1065.48" x2="3714.74" y1="288.967" y2="4910.79" gradientUnits="userSpaceOnUse">
      <stop stop-opacity=".2"/>
      <stop offset=".791" stop-opacity=".05"/>
    </linearGradient>
    <clipPath id="vivaldi_svg__a">
      <path fill="#fff" d="M4 4h56v55.877H4z"/>
    </clipPath>
  </defs>
</svg>
