<svg width="24" height="24" viewBox="0 0 24 24" fill="none" xmlns="http://www.w3.org/2000/svg">
<path d="M12 2C17.5228 2 22 5.98747 22 10.9062C22 11.0799 21.9944 11.2523 21.9833 11.4235C21.9416 12.0675 21.1407 12.2761 20.6147 11.9022C19.5945 11.1768 18.3473 10.75 17 10.75C13.5482 10.75 10.75 13.5482 10.75 17C10.75 17.7546 10.8842 18.4776 11.1296 19.1471C11.3669 19.7944 11.0591 20.5764 10.3863 20.7266C8.2189 21.2104 5.93079 21.6305 4.26855 21.916C3.4382 22.0586 2.90315 21.0906 3.45508 20.4541L5.07227 18.5898C5.42147 18.1872 5.34614 17.5742 4.94727 17.2207C3.12676 15.6077 2.00001 13.374 2 10.9062C2 5.98747 6.47716 2 12 2Z" fill="url(#paint0_linear_1897_239)"/>
<path d="M12 2C17.5228 2 22 5.98747 22 10.9062C22 11.3394 21.965 11.7653 21.8977 12.1819C21.8462 12.5004 21.4471 12.5987 21.2087 12.3812C21.037 12.2246 20.8565 12.0774 20.668 11.9404C20.7208 11.601 20.75 11.2559 20.75 10.9062C20.75 6.81002 16.9726 3.25 12 3.25C7.02745 3.25 3.25001 6.81002 3.25 10.9062L3.25098 11.0029C3.27991 13.0363 4.21764 14.9041 5.77637 16.2852C6.62541 17.0376 6.86741 18.427 6.0166 19.4082L5.06445 20.5068C6.56648 20.2392 8.37667 19.8949 10.1045 19.5098C10.4688 19.4286 10.8256 19.3447 11.1729 19.2617C11.2264 19.3995 11.2847 19.5349 11.3476 19.6677C11.5246 20.0416 11.34 20.5086 10.9369 20.6017C8.61317 21.1379 6.07235 21.6062 4.26855 21.916C3.43819 22.0586 2.90315 21.0906 3.45508 20.4541L5.07227 18.5898L5.10449 18.5518C5.41716 18.1494 5.33362 17.5632 4.94727 17.2207L4.8623 17.1445C3.0917 15.5378 2.00001 13.3354 2 10.9062C2.00001 5.98747 6.47716 2 12 2Z" fill="url(#paint1_linear_1897_239)"/>
<path d="M11.541 5.48347C11.6608 5.00558 12.3403 5.00544 12.46 5.48347L13.0078 7.67488C13.2623 8.693 14.0571 9.48773 15.0752 9.74226L17.2666 10.2901C17.5178 10.353 17.6348 10.5708 17.6221 10.7803C17.4175 10.7601 17.2099 10.7501 17 10.7501C14.3745 10.7501 12.1276 12.3691 11.2021 14.6632L10.9932 13.8253C10.7386 12.8071 9.94292 12.0114 8.9248 11.7569L6.73339 11.2091C6.2556 11.0892 6.25547 10.4098 6.73339 10.2901L8.9248 9.74226C9.94292 9.48773 10.7386 8.693 10.9932 7.67488L11.541 5.48347Z" fill="white"/>
<path fill-rule="evenodd" clip-rule="evenodd" d="M10.35 5.09992C10.8404 3.4403 13.2439 3.46759 13.6722 5.18097L14.2201 7.37238C14.3628 7.94245 14.8082 8.38707 15.3783 8.52961L17.5697 9.07746C18.5516 9.32299 18.9788 10.2176 18.8529 11.0286C18.2676 10.8472 17.6453 10.7503 17.0004 10.7503C13.5486 10.7503 10.7504 13.5485 10.7504 17.0003C10.7504 17.0355 10.7517 17.0707 10.7523 17.1058C10.5585 16.903 10.4079 16.6412 10.3275 16.3196L9.77966 14.1282C9.63712 13.5581 9.19249 13.1127 8.62243 12.97L6.43103 12.4222C4.6903 11.987 4.69032 9.51267 6.43103 9.07746L8.62243 8.52961C9.19228 8.38694 9.637 7.94224 9.77966 7.37238L10.3275 5.18097L10.35 5.09992ZM12.0004 8.59015C11.5866 9.56143 10.8115 10.3365 9.84021 10.7503C10.8114 11.1641 11.5866 11.9392 12.0004 12.9105C12.4141 11.9392 13.1892 11.1641 14.1605 10.7503C13.1893 10.3366 12.4142 9.56135 12.0004 8.59015Z" fill="url(#paint2_linear_1897_239)"/>
<path d="M11.541 5.48347C11.6608 5.00558 12.3403 5.00544 12.46 5.48347L13.0078 7.67488C13.2623 8.693 14.0571 9.48773 15.0752 9.74226L17.2666 10.2901C17.5178 10.353 17.6348 10.5708 17.6221 10.7803C17.4175 10.7601 17.2099 10.7501 17 10.7501C14.3745 10.7501 12.1276 12.3691 11.2021 14.6632L10.9932 13.8253C10.7386 12.8071 9.94292 12.0114 8.9248 11.7569L6.73339 11.2091C6.2556 11.0892 6.25547 10.4098 6.73339 10.2901L8.9248 9.74226C9.94292 9.48773 10.7386 8.693 10.9932 7.67488L11.541 5.48347Z" fill="white"/>
<path d="M22 17C22 19.7614 19.7614 22 17 22C14.2386 22 12 19.7614 12 17C12 14.2386 14.2386 12 17 12C19.7614 12 22 14.2386 22 17Z" fill="#F9BE1A"/>
<path d="M17 12C19.7614 12 22 14.2386 22 17C22 19.7614 19.7614 22 17 22C14.2386 22 12 19.7614 12 17C12 14.2386 14.2386 12 17 12ZM17 13.25C14.9289 13.25 13.25 14.9289 13.25 17C13.25 19.0711 14.9289 20.75 17 20.75C19.0711 20.75 20.75 19.0711 20.75 17C20.75 14.9289 19.0711 13.25 17 13.25Z" fill="url(#paint3_linear_1897_239)"/>
<path d="M17.75 18.9687C17.75 18.986 17.736 19 17.7188 19H16.2813C16.264 19 16.25 18.986 16.25 18.9687V17.0313C16.25 17.0141 16.236 17.0001 16.2188 17.0001H14.5728C14.5453 17.0001 14.5312 16.9672 14.5502 16.9473L16.9773 14.3989C16.9896 14.3859 17.0102 14.3859 17.0225 14.3989L19.4496 16.9473C19.4686 16.9672 19.4545 17.0001 19.427 17.0001H17.7813C17.764 17.0001 17.75 17.0141 17.75 17.0313V18.9687Z" fill="#92540C"/>
<defs>
<linearGradient id="paint0_linear_1897_239" x1="12" y1="2.00001" x2="12" y2="21.9302" gradientUnits="userSpaceOnUse">
<stop stop-color="#A7B7FD"/>
<stop offset="1" stop-color="#3969EF"/>
</linearGradient>
<linearGradient id="paint1_linear_1897_239" x1="12" y1="21.9302" x2="12" y2="2.00001" gradientUnits="userSpaceOnUse">
<stop stop-color="#2B55CA"/>
<stop offset="1" stop-color="#557FF3"/>
</linearGradient>
<linearGradient id="paint2_linear_1897_239" x1="12" y1="5.12536" x2="12" y2="16.3765" gradientUnits="userSpaceOnUse">
<stop stop-color="#839DF9"/>
<stop offset="1" stop-color="#3969EF"/>
</linearGradient>
<linearGradient id="paint3_linear_1897_239" x1="16.9837" y1="12.8669" x2="16.9837" y2="21.5356" gradientUnits="userSpaceOnUse">
<stop offset="0.00833332" stop-color="#E2A412"/>
<stop offset="1" stop-color="#C18010"/>
</linearGradient>
</defs>
</svg>
