<svg width="48" height="48" viewBox="0 0 48 48" fill="none" xmlns="http://www.w3.org/2000/svg">
<path d="M17.5 10C13.3579 10 10 13.3579 10 17.5V30.5C10 34.6421 13.3579 38 17.5 38H25.5V35.5C25.5 29.9772 29.9772 25.5 35.5 25.5H38L38 17.5C38 13.3579 34.6421 10 30.5 10L17.5 10Z" fill="#63C853"/>
<path d="M17.375 8C12.1283 8 8 12.2533 8 17.5L8 30.5C8 35.7467 12.1283 40 17.375 40L23.5 40C24.6046 40 25.5 39.1046 25.5 38V35.5C25.5 32.8994 26.493 30.531 28.1201 28.7524L27.875 26.5H31.1367C32.4553 25.8596 33.9356 25.5 35.5 25.5H37.875C38.9796 25.5 39.875 24.6046 39.875 23.5L39.875 17.5C39.875 12.2533 35.6217 8 30.375 8L17.375 8Z" fill="#999999"/>
<path d="M15.3335 10C12.388 10 10 12.388 10 15.3335L10 30.6665C10 33.612 12.388 36 15.3335 36H25.5V35.5C25.5 29.9772 29.9772 25.5 35.5 25.5H36L36 15.3335C36 12.388 33.612 10 30.6665 10L15.3335 10Z" fill="#E5E5E5"/>
<path d="M15.3335 8C11.2834 8 8 11.2834 8 15.3335L8 30.6665C8 34.7166 11.2834 38 15.3335 38L25.5 38V36L15.3335 36L15.0591 35.9932C12.3318 35.855 10.145 33.6682 10.0068 30.9409L10 30.6665L10 15.3335C10 12.48 12.241 10.1496 15.0591 10.0068L15.3335 10L30.6665 10L30.9409 10.0068C33.759 10.1496 36 12.48 36 15.3335L36 25.5H38L38 15.3335C38 11.2834 34.7166 8 30.6665 8L15.3335 8Z" fill="#CCCCCC"/>
<path d="M23 11.5C16.6487 11.5 11.5 16.6487 11.5 23C11.5 29.3513 16.6487 34.5 23 34.5C23.8883 34.5 24.753 34.3991 25.5835 34.2085C26.1625 29.7184 29.7188 26.1618 34.209 25.583C34.3995 24.7527 34.5 23.8881 34.5 23C34.5 16.6487 29.3513 11.5 23 11.5Z" fill="#288419"/>
<path opacity="0.1" d="M22.9999 11.5C26.1756 11.5 29.0506 12.7871 31.1317 14.8682L22.9999 23L16.1641 13.7515C18.075 12.3367 20.4397 11.5 22.9999 11.5Z" fill="#D3FFCC"/>
<path opacity="0.2" d="M23.0005 11.5C26.176 11.5 29.0508 12.7872 31.1318 14.8682L23.0005 23L18.8086 12.2881C20.1074 11.7795 21.5214 11.5 23.0005 11.5Z" fill="#D3FFCC"/>
<path opacity="0.2" d="M23 11.5C26.1756 11.5 29.0508 12.7871 31.1319 14.8682L23 23L22.0039 11.5435C22.3322 11.5153 22.6644 11.5 23 11.5Z" fill="#D3FFCC"/>
<path opacity="0.2" d="M25.4429 11.7606C27.638 12.2355 29.6001 13.3364 31.1318 14.868L23 22.9999L25.4429 11.7606Z" fill="#D3FFCC"/>
<path opacity="0.3" d="M28.6592 12.9873C29.5673 13.5017 30.399 14.1354 31.1318 14.8682L23 23L28.6592 12.9873Z" fill="#D3FFCC"/>
<path d="M23 11.5C25.6824 11.5 28.1503 12.4185 30.1064 13.958C28.4477 13.0299 26.5359 12.5 24.5 12.5C18.1487 12.5 13 17.6487 13 24C13 27.6686 14.7179 30.9358 17.3931 33.0415C13.8773 31.0742 11.5 27.3152 11.5 23C11.5 16.6487 16.6487 11.5 23 11.5Z" fill="#1A690D"/>
<path d="M22 16.75C22 17.1642 21.6642 17.5 21.25 17.5C20.8358 17.5 20.5 17.1642 20.5 16.75C20.5 16.3358 20.8358 16 21.25 16C21.6642 16 22 16.3358 22 16.75Z" fill="#D3FFCC"/>
<path d="M17 22.25C17 22.6642 16.6642 23 16.25 23C15.8358 23 15.5 22.6642 15.5 22.25C15.5 21.8358 15.8358 21.5 16.25 21.5C16.6642 21.5 17 21.8358 17 22.25Z" fill="#96E38A"/>
<path d="M20 24.25C20 24.6642 19.6642 25 19.25 25C18.8358 25 18.5 24.6642 18.5 24.25C18.5 23.8358 18.8358 23.5 19.25 23.5C19.6642 23.5 20 23.8358 20 24.25Z" fill="#96E38A"/>
<path d="M27 27.25C27 27.6642 26.6642 28 26.25 28C25.8358 28 25.5 27.6642 25.5 27.25C25.5 26.8358 25.8358 26.5 26.25 26.5C26.6642 26.5 27 26.8358 27 27.25Z" fill="#96E38A"/>
<path d="M16.6464 17.1465C16.8294 16.9634 17.1189 16.9521 17.3153 17.1123L17.3534 17.1465L17.7499 17.543L18.1464 17.1465L18.1845 17.1123C18.3809 16.9521 18.6704 16.9634 18.8534 17.1465C19.0364 17.3296 19.0478 17.6191 18.8876 17.8155L18.8534 17.8535L18.457 18.25L18.8534 18.6465L18.8876 18.6846C19.0477 18.881 19.0365 19.1705 18.8534 19.3536C18.6704 19.5366 18.3809 19.5478 18.1845 19.3878L18.1464 19.3536L17.7499 18.9571L17.3534 19.3536L17.3153 19.3878C17.119 19.5479 16.8294 19.5365 16.6464 19.3536C16.4633 19.1705 16.452 18.881 16.6122 18.6846L16.6464 18.6465L17.0429 18.25L16.6464 17.8535L16.6122 17.8155C16.452 17.6191 16.4633 17.3296 16.6464 17.1465Z" fill="#D3FFCC"/>
<path d="M29.6464 23.6465C29.8294 23.4634 30.1189 23.4521 30.3153 23.6123L30.3534 23.6465L30.7499 24.043L31.1464 23.6465L31.1845 23.6123C31.3809 23.4521 31.6704 23.4634 31.8534 23.6465C32.0364 23.8296 32.0478 24.1191 31.8876 24.3155L31.8534 24.3535L31.457 24.75L31.8534 25.1465L31.8876 25.1846C32.0477 25.381 32.0365 25.6705 31.8534 25.8536C31.6704 26.0366 31.3809 26.0478 31.1845 25.8878L31.1464 25.8536L30.7499 25.4571L30.3534 25.8536L30.3153 25.8878C30.119 26.0479 29.8294 26.0365 29.6464 25.8536C29.4633 25.6705 29.452 25.381 29.6122 25.1846L29.6464 25.1465L30.0429 24.75L29.6464 24.3535L29.6122 24.3155C29.452 24.1191 29.4633 23.8296 29.6464 23.6465Z" fill="#96E38A"/>
<path d="M18.6464 28.1465C18.8294 27.9634 19.1189 27.9521 19.3153 28.1123L19.3534 28.1465L19.7499 28.543L20.1464 28.1465L20.1845 28.1123C20.3809 27.9521 20.6704 27.9634 20.8534 28.1465C21.0364 28.3296 21.0478 28.6191 20.8876 28.8155L20.8534 28.8535L20.457 29.25L20.8534 29.6465L20.8876 29.6846C21.0477 29.881 21.0365 30.1705 20.8534 30.3536C20.6704 30.5366 20.3809 30.5478 20.1845 30.3878L20.1464 30.3536L19.7499 29.9571L19.3534 30.3536L19.3153 30.3878C19.119 30.5479 18.8294 30.5365 18.6464 30.3536C18.4633 30.1705 18.452 29.881 18.6122 29.6846L18.6464 29.6465L19.0429 29.25L18.6464 28.8535L18.6122 28.8155C18.452 28.6191 18.4633 28.3296 18.6464 28.1465Z" fill="#96E38A"/>
<path d="M35.5 43.5C39.9183 43.5 43.5 39.9183 43.5 35.5C43.5 31.0817 39.9183 27.5 35.5 27.5C31.0817 27.5 27.5 31.0817 27.5 35.5C27.5 39.9183 31.0817 43.5 35.5 43.5Z" fill="#21C000"/>
<path d="M39.9426 34.1548C40.2028 33.8946 40.2028 33.4727 39.9426 33.2124L39.0131 32.2829C38.7529 32.0227 38.331 32.0227 38.0707 32.2829L34.8013 35.5523C34.5411 35.8125 34.1192 35.8126 33.859 35.5523L32.9294 34.6228C32.6691 34.3626 32.2472 34.3626 31.987 34.6228L31.0575 35.5523C30.7972 35.8125 30.7972 36.2345 31.0575 36.4947L33.859 39.2961C34.1192 39.5563 34.5411 39.5563 34.8014 39.2961L39.9426 34.1548Z" fill="white"/>
<path d="M46.2507 29.5C46.3994 29.5 46.5481 29.56 46.6618 29.677C46.8892 29.9109 46.8892 30.2919 46.6618 30.5258L45.4956 31.7256C45.2682 31.9596 44.898 31.9596 44.6706 31.7256C44.4431 31.4917 44.4431 31.1107 44.6706 30.8768L45.8367 29.677C45.9505 29.56 46.0991 29.5 46.2478 29.5H46.2507Z" fill="#CCCCCC"/>
<path d="M45.6676 34.8991H47.4169C47.7376 34.8991 48 35.1691 48 35.499C48 35.829 47.7376 36.0989 47.4169 36.0989H45.6676C45.3469 36.0989 45.0845 35.829 45.0845 35.499C45.0845 35.1691 45.3469 34.8991 45.6676 34.8991Z" fill="#CCCCCC"/>
<path d="M44.6765 39.2759C44.7902 39.1589 44.9389 39.0989 45.0876 39.0989H45.0905C45.2392 39.0989 45.3879 39.1589 45.5016 39.2759L46.6678 40.4757C46.8952 40.7096 46.8952 41.0906 46.6678 41.3245C46.4403 41.5585 46.0701 41.5585 45.8427 41.3245L44.6765 40.1247C44.4491 39.8908 44.4491 39.5098 44.6765 39.2759Z" fill="#CCCCCC"/>
</svg>
