<svg width="72" height="72" viewBox="0 0 72 72" fill="none" xmlns="http://www.w3.org/2000/svg">
<path d="M31.9856 13.5C35.9553 16.1397 36.2098 20.5501 37.3381 24.75C37.5293 25.4615 38.5588 28.5 42 28.5C45.0588 28.5 46.3234 26.4534 46.7058 25.5C47.088 24.5469 47.2793 22.5012 47.4705 22.6714C47.6616 22.843 54.1501 29.8984 54.1501 42.1018C54.1501 51.2543 46.5147 57 36 57C25.4853 57 16.5001 51.2543 16.5 42.1018C16.5 29.8984 26.8238 26.8475 31.9856 13.5Z" fill="url(#paint0_linear_6041_18342)"/>
<path d="M54 42.1018C54 34.1184 50.4476 28.463 48.2219 25.7028C48.1825 25.8272 48.1426 25.9471 48.0981 26.0581C47.5913 27.3219 45.9092 30 42 30C39.7657 30 38.2489 28.9863 37.3008 27.8554C36.392 26.7714 36.0129 25.5987 35.8894 25.1389C35.5989 24.0576 35.3591 22.9411 35.1233 21.9331C34.8815 20.8996 34.6358 19.9406 34.3154 19.0459C33.8978 17.8794 33.3621 16.85 32.573 15.9712C29.924 21.812 26.3295 25.6702 23.4697 29.1775C20.3076 33.0555 18 36.5289 18 42.1018L18.0037 42.3955C18.1509 48.5495 22.9143 53.903 29.7004 56.0398C31.6732 56.6609 33.7994 57 36 57C38.2006 57 40.3268 56.6609 42.2996 56.0398C49.1934 53.8691 53.9999 48.3788 54 42.1018ZM56.9956 42.4724C56.8115 50.2303 50.8616 56.4883 43.2004 58.9006C40.9383 59.6129 38.5085 60 36 60C33.4915 60 31.0617 59.6129 28.7996 58.9006C21.1384 56.4883 15.1885 50.2303 15.0044 42.4724L15 42.1018C15 35.4713 17.8541 31.3171 21.1443 27.2819C24.433 23.2487 28.1119 19.358 30.5867 12.9587L30.6562 12.8049C30.8386 12.4562 31.1522 12.1908 31.5315 12.0703C31.9649 11.9326 32.4375 11.9994 32.8162 12.2512C35.1502 13.8033 36.3678 15.8787 37.1396 18.0344C37.5201 19.097 37.7976 20.1928 38.0449 21.2497C38.2982 22.3323 38.5132 23.3425 38.7869 24.361C38.8546 24.613 39.086 25.3155 39.5999 25.9284C40.0746 26.4946 40.7933 27 42 27C44.2081 27 45.0555 25.585 45.3135 24.9419C45.4389 24.629 45.5555 24.0503 45.6877 23.3759C45.7434 23.092 45.8091 22.757 45.8789 22.5058C45.9056 22.4096 45.9724 22.1724 46.1038 21.9477C46.1508 21.8672 46.3497 21.5254 46.7754 21.3171C47.031 21.192 47.3612 21.1203 47.7217 21.186C47.9796 21.233 48.1838 21.3381 48.3347 21.4453L48.468 21.5507L48.4724 21.5551C48.7589 21.8123 57 29.2454 57 42.1018L56.9956 42.4724Z" fill="url(#paint1_linear_6041_18342)"/>
<path d="M36 38.25C40 42.3441 45 46.7796 45 51.1296C44.9999 55.8207 41.9999 60 36 60C30.0001 60 27.0001 55.8207 27 51.1296C27 46.4385 32 42.3441 36 38.25Z" fill="#FFCC33"/>
<defs>
<linearGradient id="paint0_linear_6041_18342" x1="35.5247" y1="22.2002" x2="39.9223" y2="53.2339" gradientUnits="userSpaceOnUse">
<stop stop-color="#FFBB5C"/>
<stop offset="0.52" stop-color="#F68161"/>
<stop offset="1" stop-color="#F14D1F"/>
</linearGradient>
<linearGradient id="paint1_linear_6041_18342" x1="36" y1="13.5" x2="36" y2="58.5" gradientUnits="userSpaceOnUse">
<stop stop-color="#FF862D"/>
<stop offset="1" stop-color="#B40B4A"/>
</linearGradient>
</defs>
</svg>
