<svg fill="none" viewBox="0 0 24 24" xmlns="http://www.w3.org/2000/svg">
  <path fill="#000" d="M10.708 2.12c1.027.662 1.555 1.59 1.884 2.525.163.462.281.936.385 1.384.108.46.198.879.312 1.29.064.2.177.387.32.54.19.203.485.396.98.396.462 0 .733-.148.902-.295.165-.144.287-.334.362-.538a6 6 0 0 0 .131-.6c.068-.363.127-.756.473-.96.32-.187.688-.096.95.138.37.337 2.203 2.12 3.1 5.1.157.525-.446.944-.962.758a6 6 0 0 0-.422-.136 10.6 10.6 0 0 0-1.893-3.7 2.7 2.7 0 0 1-.754 1.07c-1.114.968-2.957.865-3.962-.208a3 3 0 0 1-.64-1.067c-.146-.475-.244-.964-.357-1.447-.22-.944-.457-1.763-.945-2.377-1.123 2.325-2.615 3.881-3.791 5.28C5.447 10.858 4.5 12.248 4.5 14.478c.026 2.077 1.367 3.816 3.114 4.827a5 5 0 0 1-.114-1.049c0-1.22.67-2.278 1.43-3.168.785-.918 1.69-1.746 2.57-2.573a.75.75 0 0 1 1.027.027c.232.229.48.468.732.713a6 6 0 0 0-.925 1.193l-.336-.327c-.696.666-1.366 1.285-1.928 1.942C9.372 16.88 9 17.589 9 18.256c.016.746.236 1.484.776 2.022a.75.75 0 0 1-.74 1.251C5.845 20.594 3.044 17.971 3 14.478c0-2.775 1.237-4.512 2.633-6.171C7.03 6.645 8.568 5.069 9.605 2.472c.184-.425.705-.609 1.103-.353Z"/>
  <path fill="#000" d="M17.5 13a4.5 4.5 0 1 1 0 9 4.5 4.5 0 0 1 0-9m-2.25 3.75a.5.5 0 0 0-.5.5v.5a.5.5 0 0 0 .5.5h4.5a.5.5 0 0 0 .5-.5v-.5a.5.5 0 0 0-.5-.5z"/>
</svg>
