<svg fill="none" viewBox="0 0 64 64" xmlns="http://www.w3.org/2000/svg">
  <g clip-path="url(#bitwarden_svg__a)">
    <path fill="#175DDC" d="M55.289 4.71c-.476-.476-1.04-.71-1.686-.71H10.396c-.652 0-1.209.234-1.685.71C8.235 5.184 8 5.747 8 6.39v28.75q0 3.213 1.253 6.384 1.255 3.159 3.115 5.616 1.855 2.448 4.426 4.775c1.715 1.55 3.298 2.83 4.741 3.855a61 61 0 0 0 4.536 2.903c1.576.914 2.697 1.528 3.357 1.85s1.194.578 1.59.746c.3.146.623.227.975.227a2.1 2.1 0 0 0 .974-.227c.403-.176.93-.424 1.598-.746.66-.322 1.78-.944 3.356-1.85a61 61 0 0 0 4.536-2.903q2.176-1.537 4.749-3.855c1.715-1.55 3.188-3.137 4.426-4.775 1.239-1.638 2.272-3.503 3.115-5.616Q56 38.364 56 35.139V6.399c.007-.65-.235-1.213-.711-1.689m-5.57 30.7C49.72 45.815 32 54.78 32 54.78V10.158h17.72z"/>
  </g>
  <defs>
    <clipPath id="bitwarden_svg__a">
      <path fill="#fff" d="M8 4h48v57.495H8z"/>
    </clipPath>
  </defs>
</svg>
