<svg fill="none" viewBox="0 0 16 16" xmlns="http://www.w3.org/2000/svg">
  <g clip-path="url(#Update-16_svg__a)">
    <path fill="#000" d="M8 0a8 8 0 1 1 0 16A8 8 0 0 1 8 0Zm0 1.25a6.75 6.75 0 1 0 0 13.5 6.75 6.75 0 0 0 0-13.5ZM5.775 4.168a2.312 2.312 0 0 1 3.2 0l1.833 1.756a.625.625 0 0 1-.865.902L8.11 5.07A1.07 1.07 0 0 0 8 4.978v3.335a2.438 2.438 0 0 0 2.438 2.437.625.625 0 0 1 0 1.25A3.688 3.688 0 0 1 6.75 8.312V4.979a1.071 1.071 0 0 0-.11.092L4.808 6.826a.625.625 0 0 1-.865-.902l1.832-1.756Z"/>
  </g>
  <defs>
    <clipPath id="Update-16_svg__a">
      <path fill="#fff" d="M0 0h16v16H0z"/>
    </clipPath>
  </defs>
</svg>
