<svg xmlns="http://www.w3.org/2000/svg" width="50" height="50" fill="none"><path fill="#876ECB" d="M14.62 4.938h16.112c6.503 0 11.93 5.271 11.93 11.774v7.437a2.479 2.479 0 0 1-2.479 2.479h-3.099c-6.845 0-12.394 5.549-12.394 12.394v3.099a2.479 2.479 0 0 1-2.479 2.478H14.62C8.117 44.6 3 39.328 3 32.825V16.712C3 10.21 8.117 4.938 14.62 4.938Z"/><path fill="#C7B9EE" d="M12.09 7.416a6.61 6.61 0 0 0-6.611 6.61v19.005a6.61 6.61 0 0 0 6.61 6.61H24.69v-.619c0-6.845 5.55-12.394 12.394-12.394h.62V14.027a6.61 6.61 0 0 0-6.61-6.61H12.089Z"/><path fill="#A591DC" d="M31.094 4.938H12.089A9.09 9.09 0 0 0 3 14.027V33.03a9.09 9.09 0 0 0 9.09 9.09h12.6v-2.48h-12.6a6.61 6.61 0 0 1-6.611-6.61V14.027a6.61 6.61 0 0 1 6.61-6.61h19.005a6.61 6.61 0 0 1 6.61 6.61v12.6h2.48v-12.6a9.09 9.09 0 0 0-9.09-9.09Z"/><path fill="#3E228C" d="M35.484 26.73c.236-1.029.361-2.1.361-3.201 0-7.872-6.381-14.254-14.253-14.254S7.338 15.657 7.338 23.53s6.381 14.253 14.253 14.253c1.101 0 2.172-.124 3.201-.36A12.4 12.4 0 0 1 35.484 26.73Z"/><path fill="#3E228C" fill-rule="evenodd" d="M21.592 9.275c-4.482 0-8.48 2.069-11.093 5.302l11.093 8.952L31.67 13.45a14.209 14.209 0 0 0-10.08-4.175Z" clip-rule="evenodd"/><path fill="#C7B9EE" fill-rule="evenodd" d="M13.119 12.066a14.19 14.19 0 0 1 8.472-2.79c3.936 0 7.5 1.595 10.08 4.174L21.59 23.53 13.12 12.066Z" clip-rule="evenodd" opacity=".1"/><path fill="#C7B9EE" fill-rule="evenodd" d="M16.396 10.252c1.61-.63 3.362-.977 5.195-.977 3.936 0 7.5 1.596 10.08 4.175L21.59 23.53l-5.195-13.277Z" clip-rule="evenodd" opacity=".1"/><path fill="#C7B9EE" fill-rule="evenodd" d="M20.357 9.328A14.209 14.209 0 0 1 31.67 13.45L21.59 23.53l-1.234-14.2Z" clip-rule="evenodd" opacity=".1"/><path fill="#C7B9EE" fill-rule="evenodd" d="m24.62 9.598-3.028 13.931L31.67 13.45a14.228 14.228 0 0 0-7.05-3.852Z" clip-rule="evenodd" opacity=".1"/><path fill="#C7B9EE" fill-rule="evenodd" d="M28.606 11.118a14.31 14.31 0 0 1 3.064 2.332L21.592 23.53l7.014-12.41Z" clip-rule="evenodd" opacity=".1"/><path fill="#3E228C" fill-rule="evenodd" d="M14.649 35.98a14.229 14.229 0 0 1-5.452-11.212c0-7.872 6.382-14.253 14.254-14.253 2.52 0 4.888.654 6.943 1.802a14.192 14.192 0 0 0-8.802-3.042c-7.872 0-14.254 6.382-14.254 14.254 0 5.351 2.949 10.014 7.31 12.451Z" clip-rule="evenodd"/><path fill="#C7B9EE" d="M20.352 15.163a.93.93 0 1 1-1.86 0 .93.93 0 0 1 1.86 0Z"/><path fill="#6B4EBA" d="M14.155 21.98a.93.93 0 1 1-1.86 0 .93.93 0 0 1 1.86 0ZM17.873 24.459a.93.93 0 1 1-1.859 0 .93.93 0 0 1 1.86 0Z"/><path fill="#C7B9EE" d="M14.593 15.654a.62.62 0 0 0-.876.877l.491.491-.491.491a.62.62 0 0 0 .876.877l.491-.492.492.492a.62.62 0 1 0 .876-.877l-.491-.491.491-.491a.62.62 0 0 0-.876-.877l-.492.491-.491-.49Z"/><path fill="#6B4EBA" d="M30.706 23.71a.62.62 0 0 0-.877.877l.492.491-.492.492a.62.62 0 0 0 .877.876l.491-.491.492.491a.62.62 0 0 0 .876-.876l-.491-.492.491-.491a.62.62 0 0 0-.876-.877l-.492.492-.491-.492ZM17.072 29.288a.62.62 0 0 0-.877.876l.492.492-.492.491a.62.62 0 1 0 .877.877l.491-.492.492.492a.62.62 0 0 0 .876-.877l-.491-.491.491-.492a.62.62 0 0 0-.876-.876l-.492.491-.491-.491Z"/><path fill="#21C000" d="M37.084 48.938c5.477 0 9.916-4.44 9.916-9.916s-4.44-9.915-9.916-9.915-9.915 4.439-9.915 9.915c0 5.476 4.44 9.916 9.915 9.916Z"/><path fill="#fff" d="M42.59 37.355a.826.826 0 0 0 0-1.168l-1.151-1.152a.826.826 0 0 0-1.168 0l-4.053 4.052a.826.826 0 0 1-1.168 0l-1.152-1.152a.826.826 0 0 0-1.168 0l-1.152 1.152a.826.826 0 0 0 0 1.168l3.472 3.472a.826.826 0 0 0 1.168 0l6.373-6.372Z"/></svg>