<svg width="24" height="24" viewBox="0 0 24 24" fill="none" xmlns="http://www.w3.org/2000/svg">
<path d="M17.5 13C19.9853 13 22 15.0147 22 17.5C21.9999 19.9852 19.9852 22 17.5 22C15.0148 22 13.0001 19.9852 13 17.5C13 15.0147 15.0147 13 17.5 13ZM15.4812 2.99977C15.1348 3.61116 14.5494 4.06639 13.8484 4.24171L13.5466 4.31715C13.3709 4.36108 13.2107 4.42328 13.0657 4.50001H7C5.06703 4.50001 3.50004 6.06705 3.5 8.00001V16C3.50001 16.2246 3.52132 16.4444 3.56177 16.6572L7.9397 12.2796C8.23258 11.9867 8.70761 11.9867 9.00049 12.2796L11.532 14.811L15.8325 10.5103C15.9624 10.9784 16.2222 11.3332 16.5493 11.575C13.8722 12.0011 11.7853 14.1981 11.5269 16.9275L8.46997 13.8704L4.21753 18.1228C4.85706 18.9598 5.86534 19.5 7 19.5H11.8418C11.868 19.574 11.8956 19.6474 11.9246 19.72C12.1508 20.2878 11.774 21 11.1628 21H7C4.23862 21 2.00007 18.7614 2 16V8.00001C2.00004 5.23862 4.2386 2.99977 7 2.99977H15.4812ZM15.25 16.75C14.9739 16.75 14.75 16.9739 14.75 17.25V17.75C14.7501 18.0261 14.9739 18.25 15.25 18.25H19.75C20.0261 18.25 20.2499 18.0261 20.25 17.75V17.25C20.25 16.9739 20.0261 16.75 19.75 16.75H15.25ZM22 11.5842C21.9999 12.2626 21.0872 12.6427 20.5 12.303V8.88746C20.8182 8.58819 21.2123 8.36842 21.6516 8.25856L21.9534 8.18312C21.9691 8.17918 21.9845 8.17439 22 8.17018V11.5842ZM17.2725 2.41017C17.3968 1.91308 18.1032 1.91308 18.2275 2.41017L18.303 2.71192C18.6704 4.1817 19.8181 5.32931 21.2878 5.69679L21.5896 5.77223C22.0868 5.89652 22.0868 6.60325 21.5896 6.72755L21.2878 6.80299C19.8181 7.17046 18.6704 8.31807 18.303 9.78785L18.2275 10.0896C18.1032 10.5867 17.3968 10.5867 17.2725 10.0896L17.197 9.78785C16.8296 8.31807 15.6819 7.17046 14.2122 6.80299L13.9104 6.72755C13.4132 6.60325 13.4132 5.89652 13.9104 5.77223L14.2122 5.69679C15.6819 5.32932 16.8296 4.1817 17.197 2.71192L17.2725 2.41017ZM8.5 7.00001C9.3284 7.00001 9.99996 7.67162 10 8.50001C9.99997 9.32841 9.32841 10 8.5 10C7.67159 10 7.00003 9.32841 7 8.50001C7.00004 7.67162 7.6716 7.00001 8.5 7.00001Z" fill="black"/>
</svg>
